<?xml version="1.0" encoding="UTF-8"?>
<svg width="300px" height="300px" viewBox="0 0 300 300" version="1.1" xmlns="http://www.w3.org/2000/svg" xmlns:xlink="http://www.w3.org/1999/xlink">
    <!-- Generator: Sketch 51.3 (57544) - http://www.bohemiancoding.com/sketch -->
    <title>illustrations/snowflake 2</title>
    <desc>Created with Sketch.</desc>
    <defs>
        <polygon id="path-1" points="0.138593237 0.247089349 46.0724104 0.247089349 46.0724104 65.1800235 0.138593237 65.1800235"></polygon>
        <polygon id="path-3" points="0.137653565 0.108479503 46.0714707 0.108479503 46.0714707 64.9867348 0.137653565 64.9867348"></polygon>
        <polygon id="path-5" points="0.0760257899 0.125104963 61.3783794 0.125104963 61.3783794 49.4255232 0.0760257899 49.4255232"></polygon>
    </defs>
    <g id="illustrations/snowflake-2" stroke="none" stroke-width="1" fill="none" fill-rule="evenodd">
        <g id="illustrations/organic-circle/blue-light" transform="translate(48.000000, 40.000000)" fill="#AFF0FC">
            <path d="M31.8519976,175.738247 C-6.91658504,128.962393 -13.1032991,66.9751006 28.968212,26.5406779 C71.0397232,-13.8937448 146.802291,-6.03171209 190.460863,35.928015 C234.119434,77.887742 229.161714,138.075396 187.090202,178.509819 C145.018691,218.944241 70.6205803,222.514101 31.8519976,175.738247 Z" id="Oval-3"></path>
        </g>
        <g id="illustrations/organic-circle/purple" transform="translate(48.000000, 56.000000)" fill="#64426B">
            <path d="M16,30.9135293 C24.8476775,31.9201018 32,23.9789813 32,15.4247829 C32,6.87058439 26.1648313,0 17.3294107,0 C8.4939902,1.04528974e-15 0,6.87058439 0,15.4247829 C0,23.9789813 7.15232245,29.9069569 16,30.9135293 Z" id="Oval-3"></path>
        </g>
        <g id="illustrations/organic-circle/yellow" transform="translate(226.000000, 40.000000)" fill="#F5F400">
            <path d="M8.5,15.95537 C13.2003287,16.4748913 17,12.3762484 17,7.96117825 C17,3.54610807 13.9000666,0 9.20624945,0 C4.51243229,5.39504384e-16 0,3.54610807 0,7.96117825 C0,12.3762484 3.7996713,15.4358487 8.5,15.95537 Z" id="Oval-3"></path>
        </g>
        <g id="illustrations/organic-circle/hot-pink" transform="translate(48.000000, 197.000000)" fill="#E82D55">
            <path d="M37.5,73.7935862 C58.2367443,76.1963721 75,57.240149 75,36.8204494 C75,16.4007498 61.3238233,0 40.6158064,0 C19.9077895,2.49520778e-15 0,16.4007498 0,36.8204494 C0,57.240149 16.7632557,71.3908003 37.5,73.7935862 Z" id="Oval-3"></path>
        </g>
        <g id="Group-7" transform="translate(73.000000, 56.000000)">
            <g id="Group">
                <g id="Group-3" transform="translate(48.929130, 0.000000)">
                    <mask id="mask-2" fill="white">
                        <use xlink:href="#path-1"></use>
                    </mask>
                    <g id="Clip-2"></g>
                    <path d="M18.8635572,31.5056585 L18.8635572,61.1550386 C18.8635572,63.3768303 20.6663836,65.1800235 22.8907198,65.1800235 C25.115056,65.1800235 26.9178825,63.3768303 26.9178825,61.1550386 L26.9178825,31.5861582 L44.8924518,13.6213091 C46.46573,12.0502233 46.46573,9.50240788 44.8924518,7.92998046 C43.3191735,6.35755304 40.7699796,6.35755304 39.1967014,7.92998046 L26.9178825,20.2021593 L26.9178825,4.27126922 C26.9178825,2.04813591 25.115056,0.246284352 22.8907198,0.246284352 C20.6663836,0.246284352 18.8635572,2.04813591 18.8635572,4.27126922 L18.8635572,20.1216596 L7.01295988,8.27747082 C5.43968167,6.70638506 2.8918301,6.70638506 1.31855189,8.27881248 C-0.254726315,9.84989824 -0.254726315,12.3977137 1.31855189,13.9701411 L18.8635572,31.5056585 Z" id="Fill-1" fill="#1F88E9" mask="url(#mask-2)"></path>
                </g>
                <g id="Group-6" transform="translate(48.929130, 90.841672)">
                    <mask id="mask-4" fill="white">
                        <use xlink:href="#path-3"></use>
                    </mask>
                    <g id="Clip-5"></g>
                    <path d="M27.3465068,33.7542099 L27.3465068,4.13004176 C27.3465068,1.91013939 25.5436803,0.108479503 23.3193442,0.108479503 C21.095008,0.108479503 19.2921815,1.91013939 19.2921815,4.13004176 L19.2921815,33.6724381 L1.31761222,51.622011 C-0.255665987,53.1917608 -0.255665987,55.7387502 1.31761222,57.3085 C2.10425133,58.0940452 3.13520496,58.4868178 4.16481621,58.4868178 C5.19576985,58.4868178 6.22672349,58.0940452 7.01336259,57.3085 L19.2921815,45.0467567 L19.2921815,60.9654406 C19.2921815,63.1866835 21.095008,64.9870029 23.3193442,64.9870029 C25.5436803,64.9870029 27.3465068,63.1866835 27.3465068,60.9654406 L27.3465068,45.1285285 L39.1971041,56.9613051 C40.7703823,58.5323955 43.3182339,58.5323955 44.8915121,56.9613051 C46.4647903,55.3915553 46.4647903,52.8459064 44.8915121,51.2748161 L27.3465068,33.7542099 Z" id="Fill-4" fill="#1F88E9" mask="url(#mask-4)"></path>
                </g>
                <path d="M4.04115701,64.6016032 C4.38750222,64.6016032 4.74058566,64.556174 5.08962616,64.4639793 L29.1532059,58.0718172 L54.9431211,72.8349859 C55.580558,73.199756 56.2759437,73.3721199 56.9618959,73.3721199 C58.3594056,73.3721199 59.7164858,72.6532689 60.4657774,71.3665523 C61.5829765,69.4491709 60.9199343,66.998664 58.9860613,65.8909921 L33.2648761,51.1679081 L26.6600595,26.7296462 C26.0832667,24.5917994 23.8636926,23.3264613 21.7088055,23.8943269 C19.5525707,24.467537 18.273654,26.6655108 18.8504468,28.8033577 L23.362368,45.4999416 L9.5045168,37.5671936 C7.57064376,36.4595217 5.09905969,37.1169096 3.98186056,39.034291 C2.86466143,40.9516724 3.52770362,43.4021794 5.46157665,44.5098513 L19.2493502,52.4025146 L2.99807846,56.7196291 C0.840496064,57.2928393 -0.43842067,59.4908131 0.138372125,61.6286599 C0.622177296,63.4204428 2.25687276,64.6016032 4.04115701,64.6016032" id="Fill-7" fill="#1F88E9"></path>
                <path d="M138.665515,90.6653754 L114.602936,97.0572835 L88.8126481,82.2947016 C86.8787471,81.1884098 84.4057797,81.8457716 83.2899121,83.7617407 C82.1726968,85.680382 82.8357486,88.1307915 84.7696495,89.2384194 L110.491206,103.960918 L117.094771,128.398209 C117.578583,130.18992 119.211954,131.371034 120.997612,131.371034 C121.342614,131.371034 121.695703,131.325606 122.046096,131.233415 C124.20371,130.660228 125.482645,128.462341 124.904496,126.323244 L120.39251,109.628659 L134.251909,117.561092 C134.888007,117.925848 135.583403,118.099541 136.269365,118.099541 C137.666895,118.099541 139.025342,117.380718 139.773297,116.094053 C140.890512,114.176748 140.227461,111.726338 138.294907,110.61871 L124.505587,102.726361 L140.758441,98.4094178 C142.914707,97.8362304 144.19499,95.638344 143.616841,93.5005821 C143.04004,91.3614842 140.821781,90.0975324 138.665515,90.6653754" id="Fill-9" fill="#1F88E9"></path>
                <path d="M59.6812685,89.9119854 C61.620917,88.8078492 62.2859393,86.3651643 61.1654037,84.4539032 C60.0462198,82.5426422 57.5686061,81.8900164 55.6262543,82.9914889 L29.8282537,97.6675764 L5.10483192,91.1399872 C2.94756435,90.5739343 0.718658188,91.8339015 0.138791152,93.9649243 C-0.439724212,96.097279 0.843011958,98.2882368 3.00568622,98.8596173 L19.8934688,103.317451 L5.99558338,111.224877 C4.05728658,112.329013 3.39091257,114.77303 4.51279984,116.684291 C5.26297748,117.965569 6.62546226,118.682125 8.02714551,118.682125 C8.71514626,118.682125 9.41260871,118.508979 10.0505976,118.146705 L23.8808995,110.279236 L19.5136492,126.340488 C18.9337821,128.472843 20.21787,130.663801 22.3805442,131.233849 C22.7319788,131.327081 23.0861167,131.371034 23.4334963,131.371034 C25.2231092,131.371034 26.8626866,130.193644 27.346585,128.408912 L33.8116294,104.62803 L59.6812685,89.9119854 Z" id="Fill-11" fill="#1F88E9"></path>
                <g id="Group-15" transform="translate(82.747173, 23.758591)">
                    <mask id="mask-6" fill="white">
                        <use xlink:href="#path-5"></use>
                    </mask>
                    <g id="Clip-14"></g>
                    <path d="M58.3927671,32.8925595 L41.6129654,28.3982138 L55.4224629,20.4284017 C57.3494007,19.3155544 58.0100652,16.853598 56.8968725,14.9272581 C55.7863654,13.0022605 53.3236449,12.3418011 51.3940214,13.453306 L37.6543502,21.3828461 L41.9943245,5.19353609 C42.5703916,3.0457006 41.2960613,0.83745724 39.1462163,0.261568849 C36.9963714,-0.308949953 34.7887854,0.960957781 34.2127183,3.10879327 L27.7873541,27.0772949 L2.08992562,41.9094414 C0.164330574,43.0222887 -0.496333835,45.4842451 0.616858838,47.4105851 C1.36212052,48.7033135 2.71567687,49.4255232 4.10817482,49.4255232 C4.79166707,49.4255232 5.48455901,49.2510116 6.11836714,48.8858796 L31.7459693,34.094005 L56.3073772,40.6730936 C56.6565088,40.765719 57.008326,40.8113605 57.3534292,40.8113605 C59.1313147,40.8113605 60.7601479,39.6246814 61.2408753,37.8245268 C61.8169424,35.6766913 60.5426121,33.4684479 58.3927671,32.8925595" id="Fill-13" fill="#1F88E9" mask="url(#mask-6)"></path>
                </g>
                <path d="M68.8974537,72.7713243 C66.0477069,74.4113343 65.0714543,78.0436429 66.7159511,80.8833022 C68.3631261,83.724296 72.0069988,84.6970928 74.8567456,83.0570828 C77.7078315,81.4170728 78.6854233,77.7847642 77.0382482,74.9451048 C75.3937514,72.1041111 71.7485396,71.1313142 68.8974537,72.7713243" id="Fill-16" fill="#1F88E9"></path>
                <path d="M57.0385176,60.2074114 C57.7810971,61.4799418 59.1260207,62.1916064 60.5123471,62.1916064 C61.190819,62.1916064 61.8799755,62.0209656 62.5117022,61.6598422 C64.4269162,60.5645665 65.0840189,58.1372347 63.9768276,56.2390215 L55.1620353,41.1154875 C54.0561796,39.2185971 51.6080714,38.5691039 49.6888507,39.6630568 C47.7736368,40.7596552 47.1151985,43.1856642 48.2223898,45.0838774 L57.0385176,60.2074114 Z" id="Fill-18" fill="#1F88E9"></path>
                <path d="M86.717164,94.922246 C85.6126438,93.025404 83.1632,92.3746046 81.2439794,93.4698523 C79.3287654,94.5651 78.6716627,96.99237 79.778854,98.8905348 L88.5936463,114.013683 C89.3362257,115.286181 90.6824849,115.997828 92.0674758,115.997828 C92.7472832,115.997828 93.4351041,115.825868 94.0668309,115.466077 C95.9820449,114.369507 96.6404831,111.943559 95.5332918,110.045395 L86.717164,94.922246 Z" id="Fill-20" fill="#1F88E9"></path>
                <path d="M31.4025163,74.070902 C29.1634263,74.070902 27.3486419,75.79142 27.3486419,77.9142035 C27.3486419,80.0369871 29.1634263,81.757505 31.4025163,81.757505 L49.2409149,81.757505 C51.4800048,81.757505 53.2947893,80.0369871 53.2947893,77.9142035 C53.2947893,75.79142 51.4800048,74.070902 49.2409149,74.070902 L31.4025163,74.070902 Z" id="Fill-22" fill="#1F88E9"></path>
                <path d="M112.352954,81.757505 C114.592161,81.757505 116.40704,80.0369871 116.40704,77.9142035 C116.40704,75.79142 114.592161,74.070902 112.352954,74.070902 L94.5149779,74.070902 C92.2757713,74.070902 90.4608923,75.79142 90.4608923,77.9142035 C90.4608923,80.0369871 92.2757713,81.757505 94.5149779,81.757505 L112.352954,81.757505 Z" id="Fill-24" fill="#1F88E9"></path>
                <path d="M49.6891073,115.466091 C50.3208232,115.827196 51.0086322,115.997828 51.6884279,115.997828 C53.0733947,115.997828 54.4196306,115.286199 55.1621972,114.013734 L63.9768369,98.8909708 C65.084009,96.9928544 64.4269177,94.5669691 62.5117369,93.4704266 C60.5952206,92.373884 58.1458192,93.0259895 57.038647,94.9227832 L48.2226718,110.045546 C47.1154996,111.943663 47.772591,114.369548 49.6891073,115.466091" id="Fill-26" fill="#1F88E9"></path>
                <path d="M94.0665743,39.6642053 C92.1487224,38.5676628 89.699321,39.2197683 88.5934844,41.116562 L79.7788447,56.239325 C78.6716726,58.1374414 79.3287639,60.5633267 81.2439447,61.6598693 C81.8756605,62.0209743 82.5648051,62.1916064 83.2432652,62.1916064 C84.6295677,62.1916064 85.974468,61.4799781 86.7170346,60.2075126 L95.5330098,45.0847496 C96.640182,43.1866332 95.9830906,40.7607478 94.0665743,39.6642053" id="Fill-28" fill="#1F88E9"></path>
            </g>
        </g>
    </g>
</svg>