<?xml version="1.0" encoding="utf-8"?>
<!-- Generator: Adobe Illustrator 15.0.0, SVG Export Plug-In . SVG Version: 6.00 Build 0)  -->
<!DOCTYPE svg PUBLIC "-//W3C//DTD SVG 1.1//EN" "http://www.w3.org/Graphics/SVG/1.1/DTD/svg11.dtd" [
	<!ENTITY ns_flows "http://ns.adobe.com/Flows/1.0/">
	<!ENTITY ns_extend "http://ns.adobe.com/Extensibility/1.0/">
	<!ENTITY ns_ai "http://ns.adobe.com/AdobeIllustrator/10.0/">
	<!ENTITY ns_graphs "http://ns.adobe.com/Graphs/1.0/">
]>
<svg version="1.1" id="Layer_1" xmlns:x="&ns_extend;" xmlns:i="&ns_ai;" xmlns:graph="&ns_graphs;"
	 xmlns="http://www.w3.org/2000/svg" xmlns:xlink="http://www.w3.org/1999/xlink" xmlns:a="http://ns.adobe.com/AdobeSVGViewerExtensions/3.0/"
	 x="0px" y="0px" width="64px" height="64px" viewBox="0 0 64 64" enable-background="new 0 0 64 64" xml:space="preserve">
<path fill="#594640" d="M4.499,31v19c0,6.631,12.313,12,27.5,12c15.188,0,27.499-5.369,27.499-12V31H4.499z"/>
<path fill="#F7E3C6" d="M4.001,30.346v6.469c0,3.793,3.686,8.521,9.445,6.098c6.113-2.568,8.324,5.48,15.441,5.48
	c7.626,0,15.38-7.533,22.698-4.773c5.297,2,8.414-3.24,8.414-6.805v-6.469H4.001z"/>
<path fill="#FFEED6" d="M3.999,30.346c0,12.469,55.999,12.469,55.999,0C59.998,17.885,3.999,17.885,3.999,30.346z"/>
<path fill="#FFF4E6" d="M58.961,33.061c0-0.738-6.707,5.705-26.962,5.559c-20.256,0.146-26.961-6.297-26.961-5.559
	c0,0.574,6.111,7.939,26.961,7.939C52.848,41,58.961,33.719,58.961,33.061z"/>
<path fill="#89CC14" d="M33.499,35.786c0,0.681-3,0.681-3,0C30.499,35.101,33.499,35.101,33.499,35.786z"/>
<path fill="#FC8DA8" d="M15.189,33.103c0,0.681-3,0.681-3,0C12.189,32.417,15.189,32.417,15.189,33.103z"/>
<path fill="#FFE12C" d="M51.81,32.38c0,0.681-3,0.681-3,0C48.81,31.694,51.81,31.694,51.81,32.38z"/>
<path fill="#48C2F9" d="M22.642,35.586c0,0.681-3,0.681-3,0C19.642,34.9,22.642,34.9,22.642,35.586z"/>
<path fill="#FF8800" d="M43.291,34.762c0,0.681-3,0.681-3,0C40.291,34.076,43.291,34.076,43.291,34.762z"/>
<path fill="#FFE12C" d="M10.077,29.991c0,0.681-3,0.681-3,0C7.077,29.306,10.077,29.306,10.077,29.991z"/>
<path fill="#FFE12C" d="M36.242,28.638c0,0.681-3,0.681-3,0C33.242,27.952,36.242,27.952,36.242,28.638z"/>
<path fill="#FF4638" d="M57.801,28.751c0,0.681-3,0.681-3,0C54.801,28.064,57.801,28.064,57.801,28.751z"/>
<path fill="#89CC14" d="M16.471,28.969c0,0.679-3,0.679-3,0C13.471,28.542,16.471,28.542,16.471,28.969z"/>
<path fill="#48C2F9" d="M28.317,27.535c0,0.551-2.436,0.551-2.436,0C25.882,27.188,28.317,27.188,28.317,27.535z"/>
<path fill="#FF8800" d="M49.701,24.149c0,0.553-2.434,0.553-2.434,0C47.268,23.805,49.701,23.805,49.701,24.149z"/>
<path fill="#FF8800" d="M28.882,31.769c0,0.682-3,0.682-3,0C25.882,31.344,28.882,31.344,28.882,31.769z"/>
<path fill="#FF8800" d="M14.564,25.918c0,0.679-3,0.679-3,0C11.564,25.447,14.564,25.447,14.564,25.918z"/>
<path fill="#48C2F9" d="M52.012,28.231c0,0.682-3,0.682-3,0C49.012,27.764,52.012,27.764,52.012,28.231z"/>
<path fill="#FF4638" d="M27.1,23.614c0,0.551-2.436,0.551-2.436,0C24.664,23.268,27.1,23.268,27.1,23.614z"/>
<path fill="#FC8DA8" d="M39.338,23.613c0,0.553-2.436,0.553-2.436,0C36.902,23.269,39.338,23.269,39.338,23.613z"/>
<path fill="#FC8DA8" d="M37.742,32.282c0,0.681-3,0.681-3,0C34.742,31.857,37.742,31.857,37.742,32.282z"/>
<path fill="#0FB4D4" d="M20.839,18.524c-3.082-0.016-2.221,0.703-2.316,12.624h4.633C23.047,19.228,23.722,18.51,20.839,18.524z"/>
<path fill="#75D6FF" d="M23.378,19.066c0.997,1.798-0.951,0.542-1.248,1.59c-0.73,2.572-1.813-1.931-2.684,1.441
	c-1.434,5.565-1.424-2.077-1.131-3.214C18.619,17.71,22.199,16.944,23.378,19.066z"/>
<path fill="#EA8800" d="M20.8,17.934c-5.168-3.45,0.855-5.648-0.265-8.791C20.535,9.143,26.74,13.081,20.8,17.934z"/>
<path fill="#FFE12C" d="M20.8,17.934c0,0-2.253-2.154,0.378-5.658C21.178,12.275,22.951,15.384,20.8,17.934z"/>
<path fill="#0FB4D4" d="M43.084,18.524c3.003-0.016,2.171,0.703,2.255,12.624h-4.513C40.914,19.228,40.274,18.51,43.084,18.524z"/>
<path fill="#75D6FF" d="M40.611,19.066c-0.973,1.798,0.38,5.22,0.478,4.132c0.495-5.468,2.013-0.327,2.332-3.404
	c0.153-1.472,3.167,3.256,2.119-0.91C45.246,17.71,41.76,16.944,40.611,19.066z"/>
<path fill="#EA8800" d="M42.813,17.934c-5.031-3.45,0.836-5.648-0.256-8.791C42.557,9.143,48.602,13.081,42.813,17.934z"/>
<path fill="#FFE12C" d="M42.813,17.934c0,0-2.194-2.154,0.368-5.658C43.181,12.275,44.909,15.384,42.813,17.934z"/>
<path fill="#0FB4D4" d="M31.844,12.217c-3.063-0.016-2.218-0.271-2.302,12.711h4.604C34.059,11.946,34.71,12.201,31.844,12.217z"/>
<path fill="#75D6FF" d="M34.366,12.807c0.991,1.958-0.449,4.438-0.646,3.269c-0.646-3.858-2.583-0.838-2.809-1.944
	c-0.391-1.914-2.186,4.308-1.575-1.522C29.474,11.294,33.195,10.496,34.366,12.807z"/>
<path fill="#EA8800" d="M31.805,11.573C26.67,7.816,32.656,5.423,31.543,2C31.543,2,37.709,6.289,31.805,11.573z"/>
<path fill="#FFE12C" d="M31.805,11.573c0,0-2.24-2.346,0.375-6.161C32.18,5.412,33.943,8.797,31.805,11.573z"/>
<path fill="#F7E3C6" d="M39.422,31.38c1.625-0.247,5.828,1.722,6.906-0.669C44.987,31.645,40.859,29.667,39.422,31.38z"/>
<path fill="#F7E3C6" d="M28.317,25.177c1.625-0.247,5.828,1.722,6.906-0.669C33.883,25.441,29.755,23.464,28.317,25.177z"/>
<path fill="#F7E3C6" d="M24.362,31.38c-1.625-0.247-5.828,1.722-6.906-0.669C18.797,31.645,22.925,29.667,24.362,31.38z"/>
</svg>
