<?xml version="1.0" encoding="utf-8"?>
<!-- Generator: Adobe Illustrator 15.0.0, SVG Export Plug-In . SVG Version: 6.00 Build 0)  -->
<!DOCTYPE svg PUBLIC "-//W3C//DTD SVG 1.1//EN" "http://www.w3.org/Graphics/SVG/1.1/DTD/svg11.dtd">
<svg version="1.1" id="Layer_1" xmlns="http://www.w3.org/2000/svg" xmlns:xlink="http://www.w3.org/1999/xlink" x="0px" y="0px"
	 width="64px" height="64px" viewBox="0 0 64 64" enable-background="new 0 0 64 64" xml:space="preserve">
<path fill="#013366" d="M52.795,38.867l6.845,7.169c0,0-22.66,11.51-30.276,15.224c-1.236,0.6-3.911,1.558-5.473-0.586
	C20.632,45.598,52.795,38.867,52.795,38.867z"/>
<path fill="#E6EBEF" d="M28.598,52.34c0,0-5.693,2.134-4.733,6.236c0.801,3.424,4.386,2.331,5.713,1.66
	c7.979-4.039,28.759-14.2,28.759-14.2s-1.614-4.495,1.304-7.556L28.598,52.34z"/>
<polygon fill="#0FB4D4" points="33.476,9.799 61,38.264 28.889,52.396 6.286,17.708 "/>
<polygon fill="#BEC3CF" points="58.023,41.697 39.06,49.93 58.318,40.613 "/>
<polygon fill="#BEC3CF" points="57.916,43.852 37.557,53.043 57.896,42.887 "/>
<polygon fill="#BEC3CF" points="58.145,45.353 32.087,57.473 58.006,44.633 "/>
<path fill="#006DAE" d="M23.891,60.674c-1.002-5.492,4.998-8.277,4.998-8.277L6.656,17.61c-4.243,1.324-4.14,6.321-2.934,8.406
	C9.628,36.23,23.891,60.674,23.891,60.674z"/>
<path fill="#014F27" d="M10.206,31.067l-6.845,7.169c0,0,22.66,11.509,30.276,15.223c1.234,0.601,3.909,1.558,5.472-0.585
	C42.367,37.798,10.206,31.067,10.206,31.067z"/>
<path fill="#E6EBEF" d="M34.402,44.54c0,0,5.693,2.134,4.733,6.236c-0.8,3.423-4.386,2.33-5.712,1.66
	c-7.98-4.039-28.759-14.2-28.759-14.2s1.614-4.495-1.304-7.556L34.402,44.54z"/>
<polygon fill="#92C932" points="29.525,2 2,30.464 34.112,44.597 56.714,9.909 "/>
<polygon fill="#BEC3CF" points="4.978,33.897 23.94,42.13 4.683,32.813 "/>
<polygon fill="#BEC3CF" points="5.085,36.052 25.443,45.243 5.104,35.087 "/>
<polygon fill="#BEC3CF" points="4.856,37.553 30.914,49.672 4.995,36.833 "/>
<path fill="#529320" d="M39.109,52.874c1.002-5.492-4.997-8.277-4.997-8.277l22.23-34.786c4.244,1.325,4.141,6.321,2.935,8.407
	C53.372,28.43,39.109,52.874,39.109,52.874z"/>
<path fill="#8A0505" d="M54.926,27.057l5.901,6.182c0,0-19.534,9.922-26.101,13.122c-1.065,0.52-3.371,1.343-4.718-0.505
	C27.199,32.861,54.926,27.057,54.926,27.057z"/>
<path fill="#E6EBEF" d="M34.066,38.673c0,0-4.908,1.839-4.081,5.376c0.69,2.951,3.782,2.009,4.925,1.431
	c6.879-3.481,24.793-12.241,24.793-12.241s-1.393-3.877,1.124-6.514L34.066,38.673z"/>
<polygon fill="#E03636" points="38.271,2 62,26.536 34.317,38.722 14.832,8.816 "/>
<polygon fill="#FFFFFF" points="38.699,7.098 43.533,12.735 26.479,19.18 21.982,12.474 "/>
<polygon fill="#BEC3CF" points="59.434,29.497 43.086,36.594 59.688,28.563 "/>
<polygon fill="#BEC3CF" points="59.341,31.355 41.789,39.278 59.323,30.522 "/>
<polygon fill="#BEC3CF" points="59.538,32.649 37.074,43.097 59.418,32.029 "/>
<path fill="#C21413" d="M30.009,45.855c-0.863-4.733,4.309-7.134,4.309-7.134L15.152,8.733c-3.658,1.143-3.57,5.448-2.529,7.247
	C17.714,24.783,30.009,45.855,30.009,45.855z"/>
</svg>
