<?xml version="1.0" encoding="UTF-8"?>
<svg width="60px" height="60px" viewBox="0 0 60 60" version="1.1" xmlns="http://www.w3.org/2000/svg" xmlns:xlink="http://www.w3.org/1999/xlink">
    <!-- Generator: Sketch 52.5 (67469) - http://www.bohemiancoding.com/sketch -->
    <title>emojis/butterfly</title>
    <desc>Created with Sketch.</desc>
    <defs>
        <radialGradient cx="50.0082464%" cy="51.1651764%" fx="50.0082464%" fy="51.1651764%" r="85.4633955%" gradientTransform="translate(0.500082,0.511652),scale(1.000000,0.359927),rotate(90.000003),translate(-0.500082,-0.511652)" id="radialGradient-1">
            <stop stop-color="#3E4A52" offset="0%"></stop>
            <stop stop-color="#3B444D" offset="36.55%"></stop>
            <stop stop-color="#33323F" offset="87.28%"></stop>
            <stop stop-color="#302C3B" offset="100%"></stop>
        </radialGradient>
    </defs>
    <g id="emojis/butterfly" stroke="none" stroke-width="1" fill="none" fill-rule="evenodd">
        <g id="butterfly" transform="translate(0.000000, 4.000000)">
            <path d="M29.9980645,18.87 C15.0929032,-1.35967742 -4.71774194,-4.9683871 2.49870968,6.33677419 C10.4767742,18.8322581 0.389032258,24.1645161 9.24096774,25.6877419 C-0.438387097,37.0616129 14.6767742,57.7151613 23.2829032,47.6274194 C27.9058065,42.21 26.6041935,35.6254839 29.9980645,31.7003226 C33.3948387,35.6254839 32.0922581,42.21 36.7151613,47.6274194 C45.3212903,57.7151613 60.4364516,37.0616129 50.7590323,25.6877419 C59.61,24.1645161 49.5232258,18.8322581 57.5012903,6.33677419 C64.7177419,-4.9683871 44.9051613,-1.35967742 29.9980645,18.87 Z" id="Path" fill="#302C3B"></path>
            <path d="M50.7890323,6.6716129 C48.9629032,9.00387097 46.4458065,8.39516129 46.0809677,6.6716129 C45.5041935,3.95129032 52.1883871,4.87935484 50.7890323,6.6716129 Z" id="Path" fill="#FFE8BB"></path>
            <path d="M52.6364516,4.10806452 C52.9693548,2.1783871 54.6251613,1.74193548 55.3770968,2.63419355 C56.5635484,4.03451613 52.3790323,5.5916129 52.6364516,4.10806452 Z" id="Path" fill="#FFE8BB"></path>
            <path d="M51.5816129,7.04516129 C53.2693548,6.05322581 54.6716129,7.03548387 54.4790323,8.18709677 C54.176129,9.99967742 50.2867742,7.80870968 51.5816129,7.04516129 Z" id="Path" fill="#FFE8BB"></path>
            <path d="M52.0441935,12.273871 C52.6316129,11.8103226 52.743871,10.9229032 52.7109677,10.2967742 C52.6519355,9.14419355 48.326129,9.05129032 48.326129,9.05129032 C48.326129,9.05129032 47.2674194,10.5367742 46.0896774,11.97 C48.9445161,12.5003226 51.2864516,12.8709677 52.0441935,12.273871 Z" id="Path" fill="#C21413"></path>
            <path d="M52.1332258,13.8425806 C49.4341935,13.6083871 45.2816129,13.1448387 45.2816129,13.1448387 C44.2132258,14.163871 42.0174194,16.016129 42.0174194,16.016129 C45.236129,17.1687097 48.783871,18.2332258 51.6154839,18.4258065 C52.563871,18.4877419 53.3670968,13.9480645 52.1332258,13.8425806 Z" id="Path" fill="#D47706"></path>
            <path d="M46.4158065,9.06387097 C46.4158065,9.06387097 43.3674194,8.58193548 41.9796774,9.4383871 C41.2296774,9.9 34.0151613,16.743871 31.7545161,18.9929032 L31.7545161,20.8983871 C36.4664516,17.9932258 42.4993548,14.6187097 46.4158065,9.06387097 Z" id="Path" fill="#C21413"></path>
            <path d="M51.7345161,20.5141935 C49.3016129,19.4825806 40.9887097,16.7448387 40.383871,17.013871 C39.0735484,17.5983871 31.7535484,21.5825806 31.7535484,21.5825806 L31.7535484,22.7903226 C45.4509677,21.5603226 50.6864516,24.3435484 51.1674194,23.7319355 C51.6096774,23.1658065 52.6093548,20.8848387 51.7345161,20.5141935 Z" id="Path" fill="#F59E01"></path>
            <path d="M7.95580645,12.273871 C7.36645161,11.8103226 7.25419355,10.9229032 7.28709677,10.2967742 C7.34806452,9.14419355 11.6719355,9.05129032 11.6719355,9.05129032 C11.6719355,9.05129032 12.7306452,10.5367742 13.9103226,11.97 C11.0554839,12.5003226 8.71354839,12.8709677 7.95580645,12.273871 Z" id="Path" fill="#C21413"></path>
            <path d="M7.86483871,13.8425806 C10.563871,13.6083871 14.7183871,13.1448387 14.7183871,13.1448387 C15.7867742,14.163871 17.9806452,16.016129 17.9806452,16.016129 C14.7619355,17.1687097 11.216129,18.2332258 8.38451613,18.4258065 C7.43612903,18.4877419 6.63096774,13.9480645 7.86483871,13.8425806 Z" id="Path" fill="#D47706"></path>
            <path d="M13.5822581,9.06387097 C13.5822581,9.06387097 16.6325806,8.58193548 18.0203226,9.4383871 C18.7683871,9.9 25.983871,16.743871 28.2435484,18.9929032 L28.2435484,20.8983871 C23.5316129,17.9932258 17.4987097,14.6187097 13.5822581,9.06387097 Z" id="Path" fill="#C21413"></path>
            <path d="M8.26354839,20.5141935 C10.6964516,19.4825806 19.0093548,16.7448387 19.6122581,17.013871 C20.9235484,17.5983871 28.2445161,21.5825806 28.2445161,21.5825806 L28.2445161,22.7903226 C14.5490323,21.5603226 9.31258065,24.3435484 8.83064516,23.7319355 C8.39032258,23.1658065 7.38870968,20.8848387 8.26354839,20.5141935 Z" id="Path" fill="#F59E01"></path>
            <path d="M9.21096774,6.6716129 C11.0370968,9.00387097 13.5522581,8.39516129 13.9190323,6.6716129 C14.493871,3.95129032 7.80967742,4.87935484 9.21096774,6.6716129 Z" id="Path" fill="#FFE8BB"></path>
            <path d="M7.36354839,4.10806452 C7.0316129,2.1783871 5.37580645,1.74193548 4.62096774,2.63419355 C3.43645161,4.03451613 7.62096774,5.5916129 7.36354839,4.10806452 Z" id="Path" fill="#FFE8BB"></path>
            <path d="M8.41645161,7.04516129 C6.73064516,6.05322581 5.3283871,7.03548387 5.52096774,8.18709677 C5.82193548,9.99967742 9.71129032,7.80870968 8.41645161,7.04516129 Z" id="Path" fill="#FFE8BB"></path>
            <path d="M26.3787097,35.6651613 C25.8667742,36.3890323 25.0364516,32.9293548 23.3032258,32.0564516 C22.5551613,31.6780645 22.3945161,31.0229032 30.5041935,25.1854839 L30.5041935,26.1532258 C27.7587097,28.0035484 27.5545161,33.9929032 26.3787097,35.6651613 Z" id="Path" fill="#F9B700"></path>
            <path d="M12.24,25.5406452 C13.1245161,25.1912903 21.5883871,24.9396774 21.5883871,24.9396774 C18.9909677,30.0793548 11.9409677,28.9906452 8.72032258,31.1012903 C8.41064516,29.4677419 11.1667742,25.9616129 12.24,25.5406452 Z" id="Path" fill="#F9B700"></path>
            <path d="M29.2519355,25.0296774 C18.5496774,31.9819355 19.3587097,34.9974194 16.5048387,33.0745161 C16.0780645,32.7870968 19.5725806,29.1145161 23.0574194,25.406129 C24.1441935,24.2516129 29.2519355,25.0296774 29.2519355,25.0296774 Z" id="Path" fill="#F9B700"></path>
            <path d="M17.8045161,35.0070968 C18.0387097,35.9787097 12.6067742,39.5622581 11.7483871,43.7206452 C4.6083871,36.506129 17.2432258,32.696129 17.8045161,35.0070968 Z" id="Path" fill="#FFE12C"></path>
            <path d="M17.2432258,30.0783871 C17.2432258,30.0783871 15.4548387,32.9593548 14.4367742,33.2651613 C10.5125806,34.4409677 8.8983871,37.4564516 8.8983871,37.4564516 C5.8616129,31.8416129 13.6103226,30.5283871 17.2432258,30.0783871 Z" id="Path" fill="#FFE12C"></path>
            <path d="M21.8651613,32.2935484 C28.7864516,38.0080645 23.7329032,43.4951613 21.0203226,46.0354839 C8.33322581,42.7393548 16.5822581,40.2270968 21.8651613,32.2935484 Z" id="Path" fill="#FFE12C"></path>
            <path d="M15.4916129,45.7809677 C15.1664516,43.8948387 13.5503226,43.4690323 12.8148387,44.3409677 C11.6583871,45.7083871 15.7432258,47.2287097 15.4916129,45.7809677 Z" id="Path" fill="#FFE8BB"></path>
            <path d="M19.4264516,46.4932258 C17.7803226,45.5235484 16.4119355,46.4835484 16.5987097,47.6080645 C16.893871,49.3770968 20.6912903,47.2383871 19.4264516,46.4932258 Z" id="Path" fill="#FFE8BB"></path>
            <path d="M33.6193548,35.6651613 C34.1312903,36.3890323 34.9596774,32.9293548 36.6948387,32.0564516 C37.4429032,31.6780645 37.6025806,31.0229032 29.493871,25.1854839 L29.493871,26.1532258 C32.2393548,28.0035484 32.4416129,33.9929032 33.6193548,35.6651613 Z" id="Path" fill="#F9B700"></path>
            <path d="M47.76,25.5406452 C46.8735484,25.1912903 38.4096774,24.9396774 38.4096774,24.9396774 C41.0070968,30.0793548 48.0590323,28.9906452 51.2777419,31.1012903 C51.5874194,29.4677419 48.8312903,25.9616129 47.76,25.5406452 Z" id="Path" fill="#F9B700"></path>
            <path d="M30.746129,25.0296774 C41.4483871,31.9819355 40.6393548,34.9974194 43.4932258,33.0745161 C43.9219355,32.7870968 40.4254839,29.1145161 36.9406452,25.406129 C35.853871,24.2516129 30.746129,25.0296774 30.746129,25.0296774 Z" id="Path" fill="#F9B700"></path>
            <path d="M42.1954839,35.0070968 C41.9593548,35.9787097 47.3912903,39.5622581 48.2516129,43.7206452 C55.3916129,36.506129 42.7548387,32.696129 42.1954839,35.0070968 Z" id="Path" fill="#FFE12C"></path>
            <path d="M42.7548387,30.0783871 C42.7548387,30.0783871 44.5451613,32.9593548 45.5632258,33.2651613 C49.4854839,34.4409677 51.0996774,37.4564516 51.0996774,37.4564516 C54.1364516,31.8416129 46.3896774,30.5283871 42.7548387,30.0783871 Z" id="Path" fill="#FFE12C"></path>
            <path d="M38.1309677,32.2935484 C31.2096774,38.0080645 36.2632258,43.4951613 38.9777419,46.0354839 C51.6667742,42.7393548 43.4177419,40.2270968 38.1309677,32.2935484 Z" id="Path" fill="#FFE12C"></path>
            <path d="M44.5064516,45.7809677 C44.8316129,43.8948387 46.4477419,43.4690323 47.1832258,44.3409677 C48.3416129,45.7083871 44.2548387,47.2287097 44.5064516,45.7809677 Z" id="Path" fill="#FFE8BB"></path>
            <path d="M40.5716129,46.4932258 C42.2196774,45.5235484 43.5880645,46.4835484 43.4012903,47.6080645 C43.106129,49.3770968 39.3067742,47.2383871 40.5716129,46.4932258 Z" id="Path" fill="#FFE8BB"></path>
            <path d="M35.9622581,2.72225806 C33.0909677,6.1016129 32.9177419,11.6341935 31.2483871,13.4148387 C31.0925806,13.5812903 30.4480645,12.1025806 30.5235484,13.1922581 C30.5835484,14.0467742 29.4164516,14.0467742 29.4764516,13.1922581 C29.5519355,12.1025806 28.9074194,13.5812903 28.7516129,13.4148387 C27.0822581,11.6341935 26.9090323,6.1016129 24.0377419,2.72225806 C23.0090323,1.51354839 21.0541935,2.56258065 23.8964516,3.18677419 C24.99,3.42677419 28.7709677,14.2287097 27.9774194,15.9106452 C26.1648387,19.7612903 26.7454839,44.2848387 30,44.2848387 C33.2545161,44.2848387 33.8351613,19.7612903 32.0225806,15.9116129 C31.2290323,14.2296774 35.01,3.42774194 36.1035484,3.18774194 C38.9458065,2.5616129 36.9909677,1.51258065 35.9622581,2.72225806 Z" id="Path" fill="url(#radialGradient-1)"></path>
        </g>
    </g>
</svg>