<?xml version="1.0" encoding="UTF-8"?>
<svg width="32px" height="32px" viewBox="0 0 32 32" version="1.1" xmlns="http://www.w3.org/2000/svg" xmlns:xlink="http://www.w3.org/1999/xlink">
    <!-- Generator: Sketch 51.2 (57519) - http://www.bohemiancoding.com/sketch -->
    <title>icons/mvp/call-green</title>
    <desc>Created with Sketch.</desc>
    <defs>
        <polygon id="path-1" points="0 0.000361907959 10.0236441 0.000361907959 10.0236441 19.3017578 0 19.3017578"></polygon>
        <polygon id="path-3" points="0.0001 0 26 0 26 25.9999 0.0001 25.9999"></polygon>
    </defs>
    <g id="icons/mvp/call-green" stroke="none" stroke-width="1" fill="none" fill-rule="evenodd">
        <g id="Page-1" transform="translate(11.071381, 5.562012)">
            <mask id="mask-2" fill="white">
                <use xlink:href="#path-1"></use>
            </mask>
            <g id="Clip-2"></g>
        </g>
        <g id="Group-6" transform="translate(3.000000, 3.000000)">
            <g id="Group-3">
                <mask id="mask-4" fill="white">
                    <use xlink:href="#path-3"></use>
                </mask>
                <g id="Clip-2"></g>
                <path d="M13.0001,24.4999 C6.6591,24.4999 1.5001,19.3409 1.5001,12.9999 C1.5001,6.6589 6.6591,1.4999 13.0001,1.4999 C19.3411,1.4999 24.5001,6.6589 24.5001,12.9999 C24.5001,19.3409 19.3411,24.4999 13.0001,24.4999 M13.0001,-0.0001 C5.8201,-0.0001 0.0001,5.8199 0.0001,12.9999 C0.0001,20.1799 5.8201,25.9999 13.0001,25.9999 C20.1801,25.9999 26.0001,20.1799 26.0001,12.9999 C26.0001,5.8199 20.1801,-0.0001 13.0001,-0.0001" id="Fill-1" fill="#0CBA52" mask="url(#mask-4)"></path>
            </g>
            <path d="M15.7911,14.8422 L15.6881,14.9672 C15.3711,15.3442 15.0211,15.6932 14.6451,16.0102 L14.5331,16.1032 C13.0651,17.3272 11.2161,17.9952 9.3091,17.9952 C9.2531,17.9952 9.1971,17.9952 9.1411,17.9942 C8.2661,17.9742 7.4801,17.4502 7.1281,16.6492 L7.0351,16.4342 L7.0381,16.4342 C6.9671,16.2642 7.0181,16.0682 7.1621,15.9542 L9.0461,14.5142 C9.1051,14.4672 9.1791,14.4442 9.2501,14.4442 C9.3321,14.4442 9.4131,14.4732 9.4781,14.5322 L10.4491,15.5042 C10.5751,15.6292 10.7441,15.6982 10.9181,15.6982 C10.9531,15.6982 10.9881,15.6962 11.0241,15.6902 C11.9311,15.5442 12.7801,15.1562 13.4841,14.5672 L13.5481,14.5142 C13.7871,14.3162 14.0091,14.0962 14.2101,13.8602 L14.2631,13.7962 C14.8531,13.0942 15.2411,12.2462 15.3891,11.3412 C15.4231,11.1312 15.3541,10.9172 15.2031,10.7662 L14.2311,9.7942 C14.1141,9.6762 14.1021,9.4892 14.2021,9.3572 L15.6301,7.4792 C15.7091,7.3752 15.8301,7.3182 15.9551,7.3182 C16.0111,7.3182 16.0661,7.3292 16.1201,7.3522 L16.3341,7.4452 C17.1351,7.7972 17.6591,8.5812 17.6801,9.4552 C17.7241,11.4202 17.0531,13.3342 15.7911,14.8422 M16.9381,6.0722 L16.7151,5.9752 C16.4811,5.8722 16.2221,5.8182 15.9551,5.8182 C15.3601,5.8182 14.7921,6.1002 14.4341,6.5742 L13.0081,8.4492 C12.4581,9.1742 12.5261,10.2062 13.1671,10.8512 L13.8181,11.5032 C13.6811,11.9892 13.4411,12.4422 13.1141,12.8322 L13.0591,12.8992 C12.9231,13.0582 12.7631,13.2172 12.5911,13.3592 L12.5241,13.4142 C12.1311,13.7432 11.6751,13.9842 11.1871,14.1202 L10.5381,13.4712 C10.5241,13.4582 10.5111,13.4452 10.4961,13.4322 C10.1561,13.1172 9.7141,12.9442 9.2501,12.9442 C8.8451,12.9442 8.4441,13.0812 8.1241,13.3302 L6.2511,14.7632 C5.6121,15.2632 5.3601,16.0922 5.5921,16.8402 C5.6091,16.9042 5.6321,16.9672 5.6581,17.0292 L5.7511,17.2432 C6.3401,18.5822 7.6561,19.4612 9.1071,19.4932 L9.3091,19.4962 C11.5641,19.4962 13.7621,18.7002 15.4941,17.2552 L15.6041,17.1622 C16.0521,16.7872 16.4651,16.3742 16.8361,15.9322 L16.9461,15.8002 C18.4371,14.0172 19.2311,11.7512 19.1801,9.4222 C19.1451,7.9702 18.2661,6.6562 16.9381,6.0722" id="Fill-4" fill="#0CBA52"></path>
        </g>
    </g>
</svg>