<?xml version="1.0" encoding="UTF-8"?>
<svg width="148px" height="24px" viewBox="0 0 148 24" version="1.1" xmlns="http://www.w3.org/2000/svg" xmlns:xlink="http://www.w3.org/1999/xlink">
    <!-- Generator: Sketch 51.2 (57519) - http://www.bohemiancoding.com/sketch -->
    <title>cc-logo-small-white</title>
    <desc>Created with Sketch.</desc>
    <defs></defs>
    <g id="cc-logo-small-white" stroke="none" stroke-width="1" fill="none" fill-rule="evenodd">
        <g id="Group-23" transform="translate(34.000000, 5.000000)" fill="#FFFFFF">
            <path d="M0,6.99963183 C0,3.53077253 2.72818815,1 6.40623491,1 C8.27181185,1 9.89537209,1.61925508 11,2.8268393 L9.87792262,3.88273915 C8.94551348,2.92698043 7.80522795,2.49107198 6.47527416,2.49107198 C3.74632733,2.49107198 1.72673978,4.4018531 1.72673978,6.99963183 C1.72673978,9.59741057 3.74632733,11.5081917 6.47527416,11.5081917 C7.80522795,11.5081917 8.94551348,11.0560839 9.87792262,10.1003252 L11,11.1569614 C9.89537209,12.363073 8.27181185,13 6.38954411,13 C2.72818815,13 0,10.4692275 0,6.99963183" id="Fill-1"></path>
            <path d="M20.2403125,8.49159562 C20.2403125,6.61266748 18.8601499,5.39805116 17.0087705,5.39805116 C15.1581885,5.39805116 13.7604848,6.61266748 13.7604848,8.49159562 C13.7604848,10.3712546 15.1581885,11.6026797 17.0087705,11.6026797 C18.8601499,11.6026797 20.2403125,10.3712546 20.2403125,8.49159562 M12,8.49159562 C12,5.863581 14.1232658,4 17.0087705,4 C19.8942752,4 22,5.863581 22,8.49159562 C22,11.120341 19.8942752,13 17.0087705,13 C14.1232658,13 12,11.120341 12,8.49159562" id="Fill-3"></path>
            <path d="M29,12.3759181 C28.5355339,12.7976551 27.8293199,13 27.1393163,13 C25.4231176,13 24.4441442,12.0045819 24.4441442,10.1990432 L24.4441442,5.28940098 L23,5.28940098 L23,3.95748265 L24.4441442,3.95748265 L24.4441442,2 L25.9841419,2 L25.9841419,3.95748265 L28.42347,3.95748265 L28.42347,5.28940098 L25.9841419,5.28940098 L25.9841419,10.1323361 C25.9841419,11.0936595 26.4655233,11.6332457 27.3155174,11.6332457 C27.7651827,11.6332457 28.1979326,11.4813018 28.5186186,11.2115087 L29,12.3759181 Z" id="Fill-5"></path>
            <path d="M36,12.3759181 C35.5355339,12.7976551 34.8293199,13 34.1393163,13 C32.4231176,13 31.4441442,12.0045819 31.4441442,10.1990432 L31.4441442,5.28940098 L30,5.28940098 L30,3.95748265 L31.4441442,3.95748265 L31.4441442,2 L32.9841419,2 L32.9841419,3.95748265 L35.42347,3.95748265 L35.42347,5.28940098 L32.9841419,5.28940098 L32.9841419,10.1323361 C32.9841419,11.0936595 33.4655233,11.6332457 34.3155174,11.6332457 C34.7644779,11.6332457 35.1979326,11.4813018 35.5186186,11.2115087 L36,12.3759181 Z" id="Fill-7"></path>
            <path d="M43.3335239,10.2051324 L43.3335239,8.97360728 L40.7659615,8.97360728 C39.1170192,8.97360728 38.6481799,9.58973526 38.6481799,10.3388826 C38.6481799,11.2203183 39.412045,11.7692058 40.6790547,11.7692058 C41.9277682,11.7692058 42.9172861,11.2203183 43.3335239,10.2051324 M45,7.57617346 L45,12.9006009 L43.4204307,12.9006009 L43.4204307,11.7363164 C42.8654469,12.5344324 41.8416238,13 40.4008005,13 C38.3188489,13 37,11.9351145 37,10.4046614 C37,8.99114829 37.9544502,7.82613286 40.6958262,7.82613286 L43.3335239,7.82613286 L43.3335239,7.5096638 C43.3335239,6.16266039 42.518582,5.38062368 40.8704021,5.38062368 C39.7764437,5.38062368 38.6664761,5.74679227 37.9544502,6.32856911 L37.2607204,5.13139516 C38.2144082,4.39978886 39.5858586,4 41.0609872,4 C43.5767105,4 45,5.16501543 45,7.57617346" id="Fill-9"></path>
            <path d="M55.309236,8.52785415 C55.309236,6.70567842 53.9424034,5.48571429 52.0359485,5.48571429 C50.1121119,5.48571429 48.7452793,6.70567842 48.7452793,8.52785415 C48.7452793,10.3313808 50.1121119,11.5878661 52.0359485,11.5878661 C53.9424034,11.5878661 55.309236,10.3313808 55.309236,8.52785415 Z M57,4.08858338 L57,12.1893007 C57,15.4971907 55.2918543,17 52.0541202,17 C50.309631,17 48.5469701,16.522893 47.5040689,15.6020921 L48.3312791,14.2943216 C49.2122146,15.0371787 50.5972189,15.5142857 52.000395,15.5142857 C54.2481631,15.5142857 55.2728925,14.4885834 55.2728925,12.3656904 L55.2728925,11.6228332 C54.4456822,12.5956964 53.2052619,13.0735804 51.8384293,13.0735804 C49.0865924,13.0735804 47,11.2335326 47,8.52785415 C47,5.82217573 49.0865924,4 51.8384293,4 C53.2589871,4 54.5539227,4.51285117 55.3629612,5.5385535 L55.3629612,4.08858338 L57,4.08858338 Z" id="Fill-11"></path>
            <path d="M59.6369082,7.87624848 L65.4319827,7.87624848 C65.2620018,6.3956151 64.1193111,5.34762485 62.5348199,5.34762485 C60.9660537,5.34762485 59.8076379,6.37880633 59.6369082,7.87624848 M66.9663034,9.02362972 L59.6369082,9.02362972 C59.8413346,10.5714982 61.1195607,11.6026797 62.9092271,11.6026797 C63.966553,11.6026797 64.8531492,11.2526188 65.5180963,10.5378806 L66.4211665,11.5697929 C65.6027124,12.5008526 64.3581829,13 62.8583077,13 C59.9439221,13 58,11.1196102 58,8.49159562 C58,5.88038977 59.9266994,4 62.5348199,4 C65.1429403,4 67,5.82996346 67,8.54202192 C67,8.67429963 66.9835261,8.87454324 66.9663034,9.02362972" id="Fill-13"></path>
            <path d="M69,6.99963183 C69,3.53077253 71.7281882,1 75.4062349,1 C77.2718118,1 78.8953721,1.61925508 80,2.8268393 L78.8779226,3.88273915 C77.9447548,2.92698043 76.8052279,2.49107198 75.4752742,2.49107198 C72.7463273,2.49107198 70.7267398,4.4018531 70.7267398,6.99963183 C70.7267398,9.59741057 72.7463273,11.5081917 75.4752742,11.5081917 C76.8052279,11.5081917 77.9447548,11.0560839 78.8779226,10.1003252 L80,11.1569614 C78.8953721,12.363073 77.2718118,13 75.3895441,13 C71.7281882,13 69,10.4692275 69,6.99963183" id="Fill-15"></path>
            <polygon id="Fill-17" points="82 13 84 13 84 0 82 0"></polygon>
            <path d="M91.3341275,10.2051324 L91.3341275,8.97360728 L88.7663204,8.97360728 C87.117221,8.97360728 86.648337,9.58973526 86.648337,10.3388826 C86.648337,11.2203183 87.4115124,11.7692058 88.6794053,11.7692058 C89.9282379,11.7692058 90.91785,11.2203183 91.3341275,10.2051324 M93,7.57617346 L93,12.9006009 L91.4202802,12.9006009 L91.4202802,11.7363164 C90.8652435,12.5344324 89.8413228,13 88.4011246,13 C86.3189746,13 85,11.9351145 85,10.4046614 C85,8.99114829 85.9537787,7.82613286 88.6961784,7.82613286 L91.3341275,7.82613286 L91.3341275,7.5096638 C91.3341275,6.16266039 90.519108,5.38062368 88.8700086,5.38062368 C87.7767083,5.38062368 86.6658725,5.74679227 85.9537787,6.32856911 L85.2599828,5.13139516 C86.214524,4.39978886 87.5853426,4 89.0613742,4 C91.5773373,4 93,5.16501543 93,7.57617346" id="Fill-19"></path>
            <path d="M95,11.9687348 L95.7146499,10.7050512 C96.5187292,11.2363976 97.803687,11.6193763 99.0360855,11.6193763 C100.625417,11.6193763 101.285938,11.1698879 101.285938,10.4214715 C101.285938,8.44152997 95.3043734,10.1554328 95.3043734,6.64503817 C95.3043734,5.0648855 96.8215336,4 99.2502451,4 C100.482644,4 101.875858,4.29892805 102.697196,4.79811597 L101.964503,6.06253045 C101.10708,5.54726328 100.161012,5.36381355 99.2329869,5.36381355 C97.7323005,5.36381355 97.0003922,5.8798116 97.0003922,6.5785285 C97.0003922,8.65859997 103,6.96077635 103,10.3885821 C103,11.984814 101.428712,13 98.9105707,13 C97.3392822,13 95.7860365,12.5512425 95,11.9687348" id="Fill-20"></path>
            <path d="M104,11.9687348 L104.713935,10.7050512 C105.518094,11.2363976 106.803177,11.6193763 108.035697,11.6193763 C109.625184,11.6193763 110.28577,11.1698879 110.28577,10.4214715 C110.28577,8.44152997 104.303619,10.1554328 104.303619,6.64503817 C104.303619,5.0648855 105.821712,4 108.250662,4 C109.482397,4 110.875748,4.29892805 111.697166,4.79811597 L110.964401,6.06253045 C110.106894,5.54726328 109.160734,5.36381355 108.232617,5.36381355 C106.731784,5.36381355 106.000588,5.8798116 106.000588,6.5785285 C106.000588,8.65859997 112,6.96077635 112,10.3885821 C112,11.984814 110.428557,13 107.91017,13 C106.338727,13 104.785329,12.5512425 104,11.9687348" id="Fill-21"></path>
        </g>
        <path d="M15.0705838,11.1496048 C14.9675987,12.2187095 14.466144,12.9980851 13.553618,14.0784163 C12.641092,15.1583157 12.5072549,15.3267126 12.5072549,15.3267126 C12.5072549,15.3267126 12.3078028,15.2433777 10.9846401,14.733869 C9.66104289,14.2243603 8.84411487,13.780915 8.23532968,12.8935927 C7.5713584,11.9259579 7.67130172,10.5649652 8.70680144,9.95700903 C9.9434914,9.23117502 11.1163046,9.94578257 11.4057056,11.0658381 C11.1163046,9.94578257 11.7980918,8.75793643 13.2333648,8.80197871 C14.436161,8.83954418 15.1835632,9.98377983 15.0705838,11.1496048 Z M21.5821084,10.8788743 L23,8.49627349 L10.9450973,1.4119436 L10.9468354,1.4089211 L8.5490648,0 L8.54732666,0.00302250925 L8.54471944,0.00129536111 L7.12682789,2.38346443 L7.12986964,2.38519158 L0,14.3638275 L2.39777064,15.7731804 L3.49714718,13.9255637 L5.84233894,23 L22.0674854,18.8604577 L19.7227281,9.78602136 L21.5821084,10.8788743 Z" id="Fill-22" fill="#FFFFFF"></path>
    </g>
</svg>