<?xml version="1.0" encoding="UTF-8"?>
<svg width="124px" height="23px" viewBox="0 0 124 23" version="1.1" xmlns="http://www.w3.org/2000/svg" xmlns:xlink="http://www.w3.org/1999/xlink">
    <!-- Generator: Sketch 52.2 (67145) - http://www.bohemiancoding.com/sketch -->
    <title>mvp/misc/cc-logo-horiz-blue</title>
    <desc>Created with Sketch.</desc>
    <defs>
        <polygon id="path-1" points="0 16 94 16 94 0 0 0"></polygon>
    </defs>
    <g id="mvp/misc/cc-logo-horiz-blue" stroke="none" stroke-width="1" fill="none" fill-rule="evenodd">
        <g id="Group-2">
            <g id="Group" transform="translate(30.000000, 4.000000)">
                <mask id="mask-2" fill="white">
                    <use xlink:href="#path-1"></use>
                </mask>
                <g id="Clip-18"></g>
                <path d="M0,7.29378558 C0,4.16501052 2.27449833,1.88235294 5.34089651,1.88235294 C6.89623338,1.88235294 8.24980024,2.44089674 9.17073171,3.53009035 L8.23525256,4.48247061 C7.45790038,3.62041372 6.50724104,3.22724139 5.39845473,3.22724139 C3.1233239,3.22724139 1.43958793,4.95069103 1.43958793,7.29378558 C1.43958793,9.63688012 3.1233239,11.3603298 5.39845473,11.3603298 C6.50724104,11.3603298 7.45790038,10.9525463 8.23525256,10.0904894 L9.17073171,11.0435338 C8.24980024,12.1313991 6.89623338,12.7058824 5.32698134,12.7058824 C2.27449833,12.7058824 0,10.4232248 0,7.29378558" id="Fill-1" fill="#1F88E9" mask="url(#mask-2)"></path>
                <path d="M16.8890775,8.69841179 C16.8890775,7.02825345 15.7499384,5.94859449 14.221873,5.94859449 C12.6944658,5.94859449 11.5408489,7.02825345 11.5408489,8.69841179 C11.5408489,10.3692197 12.6944658,11.4638198 14.221873,11.4638198 C15.7499384,11.4638198 16.8890775,10.3692197 16.8890775,8.69841179 M10.0878049,8.69841179 C10.0878049,6.3623988 11.840276,4.70588235 14.221873,4.70588235 C16.6034701,4.70588235 18.3414634,6.3623988 18.3414634,8.69841179 C18.3414634,11.0350744 16.6034701,12.7058824 14.221873,12.7058824 C11.840276,12.7058824 10.0878049,11.0350744 10.0878049,8.69841179" id="Fill-3" fill="#1F88E9" mask="url(#mask-2)"></path>
                <path d="M24.7609756,12.615798 C24.3350262,12.9946848 23.6873763,13.1764706 23.0545925,13.1764706 C21.4807127,13.1764706 20.5829225,12.2821912 20.5829225,10.660103 L20.5829225,6.24930142 L19.2585366,6.24930142 L19.2585366,5.05271169 L20.5829225,5.05271169 L20.5829225,3.29411765 L21.9952131,3.29411765 L21.9952131,5.05271169 L24.2322554,5.05271169 L24.2322554,6.24930142 L21.9952131,6.24930142 L21.9952131,10.6001736 C21.9952131,11.4638224 22.436675,11.9485844 23.2161819,11.9485844 C23.6285578,11.9485844 24.0254211,11.8120786 24.3195136,11.5696976 L24.7609756,12.615798 Z" id="Fill-5" fill="#1F88E9" mask="url(#mask-2)"></path>
                <path d="M30.7219512,12.615798 C30.2960018,12.9946848 29.6483519,13.1764706 29.0155682,13.1764706 C27.4416883,13.1764706 26.5438981,12.2821912 26.5438981,10.660103 L26.5438981,6.24930142 L25.2195122,6.24930142 L25.2195122,5.05271169 L26.5438981,5.05271169 L26.5438981,3.29411765 L27.9561887,3.29411765 L27.9561887,5.05271169 L30.193231,5.05271169 L30.193231,6.24930142 L27.9561887,6.24930142 L27.9561887,10.6001736 C27.9561887,11.4638224 28.3976507,11.9485844 29.1771575,11.9485844 C29.588887,11.9485844 29.9863967,11.8120786 30.2804892,11.5696976 L30.7219512,12.615798 Z" id="Fill-7" fill="#1F88E9" mask="url(#mask-2)"></path>
                <path d="M37.0843102,10.2215556 L37.0843102,9.1268666 L34.8768328,9.1268666 C33.4591446,9.1268666 33.0560571,9.67453592 33.0560571,10.3404446 C33.0560571,11.1239431 33.7127948,11.611843 34.8021141,11.611843 C35.8757032,11.611843 36.7264472,11.1239431 37.0843102,10.2215556 M38.5170732,7.88470321 L38.5170732,12.6175276 L37.1590289,12.6175276 L37.1590289,11.582608 C36.6818781,12.2920444 35.80164,12.7058824 34.5628833,12.7058824 C32.7729127,12.7058824 31.6390244,11.7593175 31.6390244,10.3989147 C31.6390244,9.14245861 32.4596187,8.10688934 34.8165335,8.10688934 L37.0843102,8.10688934 L37.0843102,7.82558351 C37.0843102,6.62824714 36.383659,5.9331034 34.9666262,5.9331034 C34.0260888,5.9331034 33.0717874,6.25858659 32.4596187,6.77572156 L31.8631804,5.71156694 C32.6831193,5.06125023 33.8622321,4.70588235 35.1304829,4.70588235 C37.2933913,4.70588235 38.5170732,5.74145162 38.5170732,7.88470321" id="Fill-9" fill="#1F88E9" mask="url(#mask-2)"></path>
                <path d="M46.7508426,8.47567948 C46.7508426,6.95857389 45.6227056,5.94285714 44.0491828,5.94285714 C42.4613138,5.94285714 41.3331769,6.95857389 41.3331769,8.47567948 C41.3331769,9.97725818 42.4613138,11.0233817 44.0491828,11.0233817 C45.6227056,11.0233817 46.7508426,9.97725818 46.7508426,8.47567948 Z M48.1463415,4.77963503 L48.1463415,11.5241236 C48.1463415,14.278204 46.7364963,15.5294118 44.0641812,15.5294118 C42.6243394,15.5294118 41.1694992,15.1321824 40.3087242,14.3655427 L40.9914753,13.2767202 C41.7185693,13.8952076 42.8617046,14.292437 44.0198382,14.292437 C45.8750692,14.292437 46.7208459,13.4384586 46.7208459,11.670982 L46.7208459,11.0524946 C46.0380948,11.8624802 45.0142942,12.2603565 43.8861573,12.2603565 C41.614885,12.2603565 39.8926829,10.728371 39.8926829,8.47567948 C39.8926829,6.22298794 41.614885,4.70588235 43.8861573,4.70588235 C45.0586372,4.70588235 46.1274328,5.13287156 46.7951855,5.98684997 L46.7951855,4.77963503 L48.1463415,4.77963503 Z" id="Fill-11" fill="#1F88E9" mask="url(#mask-2)"></path>
                <path d="M50.4811812,8.15143656 L55.5004381,8.15143656 C55.3532135,6.835318 54.3635009,5.90377111 52.991134,5.90377111 C51.6323869,5.90377111 50.6290544,6.82037687 50.4811812,8.15143656 M56.8293511,9.17133099 L50.4811812,9.17133099 C50.6582399,10.5472141 51.7653431,11.4638198 53.3154173,11.4638198 C54.2311933,11.4638198 54.9990961,11.1526546 55.5750233,10.5173318 L56.3571946,11.4345872 C55.6483113,12.2621958 54.5703936,12.7058824 53.2713147,12.7058824 C50.7470935,12.7058824 49.0634146,11.0344248 49.0634146,8.69841179 C49.0634146,6.37733993 50.7321765,4.70588235 52.991134,4.70588235 C55.2500914,4.70588235 56.8585366,6.33251654 56.8585366,8.74323517 C56.8585366,8.86081536 56.8442681,9.03880968 56.8293511,9.17133099" id="Fill-13" fill="#1F88E9" mask="url(#mask-2)"></path>
                <path d="M57.7756098,7.29378558 C57.7756098,4.16501052 60.0501081,1.88235294 63.1165063,1.88235294 C64.6718431,1.88235294 66.02541,2.44089674 66.9463415,3.53009035 L66.0108623,4.48247061 C65.2328776,3.62041372 64.2828508,3.22724139 63.1740645,3.22724139 C60.8989337,3.22724139 59.2151977,4.95069103 59.2151977,7.29378558 C59.2151977,9.63688012 60.8989337,11.3603298 63.1740645,11.3603298 C64.2828508,11.3603298 65.2328776,10.9525463 66.0108623,10.0904894 L66.9463415,11.0435338 C66.02541,12.1313991 64.6718431,12.7058824 63.1025911,12.7058824 C60.0501081,12.7058824 57.7756098,10.4232248 57.7756098,7.29378558" id="Fill-15" fill="#1F88E9" mask="url(#mask-2)"></path>
                <polygon id="Fill-17" fill="#1F88E9" mask="url(#mask-2)" points="68.7804878 13.1764706 70.1560976 13.1764706 70.1560976 1.88235294 68.7804878 1.88235294"></polygon>
                <path d="M77.4360487,10.2215556 L77.4360487,9.1268666 L75.2283608,9.1268666 C73.8105376,9.1268666 73.4074117,9.67453592 73.4074117,10.3404446 C73.4074117,11.1239431 74.0635564,11.611843 75.1536351,11.611843 C76.2273265,11.611843 77.0781515,11.1239431 77.4360487,10.2215556 M78.8682927,7.88470321 L78.8682927,12.6175276 L77.5101189,12.6175276 L77.5101189,11.582608 C77.0329228,12.2920444 76.1526007,12.7058824 74.9143815,12.7058824 C73.1242403,12.7058824 71.9902439,11.7593175 71.9902439,10.3989147 C71.9902439,9.14245861 72.810261,8.10688934 75.1680558,8.10688934 L77.4360487,8.10688934 L77.4360487,7.82558351 C77.4360487,6.62824714 76.7353306,5.9331034 75.3175074,5.9331034 C74.3775358,5.9331034 73.4224879,6.25858659 72.810261,6.77572156 L72.2137657,5.71156694 C73.0344383,5.06125023 74.213008,4.70588235 75.4820352,4.70588235 C77.6451497,4.70588235 78.8682927,5.74145162 78.8682927,7.88470321" id="Fill-19" fill="#1F88E9" mask="url(#mask-2)"></path>
                <path d="M80.2439024,11.7892022 L80.8173654,10.6659278 C81.46259,11.1382358 82.4936903,11.4786613 83.482615,11.4786613 C84.7579564,11.4786613 85.2879847,11.0791161 85.2879847,10.413857 C85.2879847,8.65390899 80.4881435,10.1773782 80.4881435,7.05702739 C80.4881435,5.65244724 81.7055721,4.70588235 83.654465,4.70588235 C84.6433897,4.70588235 85.7613592,4.97159617 86.4204325,5.41531877 L85.8324913,6.53924276 C85.1444616,6.08122749 84.3852998,5.91816106 83.6406163,5.91816106 C82.4364069,5.91816106 81.8490952,6.37682599 81.8490952,6.99790769 C81.8490952,8.8468601 86.6634146,7.33768355 86.6634146,10.384622 C86.6634146,11.8034948 85.4025514,12.7058824 83.381897,12.7058824 C82.1210338,12.7058824 80.8746488,12.3069868 80.2439024,11.7892022" id="Fill-20" fill="#1F88E9" mask="url(#mask-2)"></path>
                <path d="M87.5804878,11.7892022 L88.1533775,10.6659278 C88.7986653,11.1382358 89.8298667,11.4786613 90.8188884,11.4786613 C92.0943549,11.4786613 92.6244352,11.0791161 92.6244352,10.413857 C92.6244352,8.65390899 87.8241233,10.1773782 87.8241233,7.05702739 C87.8241233,5.65244724 89.0423008,4.70588235 90.9913848,4.70588235 C91.9797769,4.70588235 93.0978561,4.97159617 93.756994,5.41531877 L93.1689952,6.53924276 C92.480898,6.08122749 91.7216618,5.91816106 90.9769052,5.91816106 C89.7725778,5.91816106 89.185838,6.37682599 89.185838,6.99790769 C89.185838,8.8468601 94,7.33768355 94,10.384622 C94,11.8034948 92.7390131,12.7058824 90.7181605,12.7058824 C89.4571737,12.7058824 88.2106665,12.3069868 87.5804878,11.7892022" id="Fill-21" fill="#1F88E9" mask="url(#mask-2)"></path>
            </g>
            <g id="illustrations/organic-circle/blue" fill="#1F88E9">
                <path d="M3.60924242,19.1868383 C-0.326687006,14.1312929 -0.954785026,7.43169172 3.31646988,3.06152974 C7.58772478,-1.30863223 15.27942,-0.458901878 19.7117991,4.07611536 C24.1441782,8.61113259 23.6408521,15.1162285 19.3695972,19.4863904 C15.0983423,23.8565524 7.54517185,24.2423837 3.60924242,19.1868383 Z" id="Oval-3"></path>
            </g>
            <g id="resources/brand/cclogo-house" transform="translate(5.000000, 4.000000)" fill="#FFFFFF">
                <path d="M8.44476856,6.30915235 C8.3886763,6.89145522 8.11555193,7.31595308 7.61853185,7.90437061 C7.12151177,8.49255295 7.0486155,8.58427271 7.0486155,8.58427271 C7.0486155,8.58427271 6.93998111,8.53888319 6.21930199,8.26137213 C5.4983862,7.98386106 5.0534349,7.74233237 4.7218515,7.25903979 C4.36021023,6.73200395 4.41464576,5.99072016 4.97864521,5.65958832 C5.65222575,5.26425264 6.29101489,5.65347367 6.44864126,6.26352765 C6.29101489,5.65347367 6.66235989,5.0064966 7.44410147,5.03048485 C8.09922127,5.05094541 8.50630438,5.67416941 8.44476856,6.30915235 Z M11.9913618,6.1616952 L12.7636364,4.86397821 L6.19776446,1.00539853 L6.19871116,1.00375228 L4.89273174,0.236363636 L4.89178503,0.238009888 L4.89036498,0.237069173 L4.11809045,1.53455098 L4.11974718,1.5354917 L0.236363636,8.05982384 L1.54234306,8.82744766 L2.14113392,7.82111729 L3.41847552,12.7636364 L12.2557292,10.5089766 L10.9786243,5.56645749 L11.9913618,6.1616952 Z" id="Fill-22"></path>
            </g>
        </g>
    </g>
</svg>