<?xml version="1.0" encoding="UTF-8"?>
<svg width="147px" height="83px" viewBox="0 0 147 83" version="1.1" xmlns="http://www.w3.org/2000/svg" xmlns:xlink="http://www.w3.org/1999/xlink">
    <!-- Generator: Sketch 51.2 (57519) - http://www.bohemiancoding.com/sketch -->
    <title>cc-logo-vert-inverse</title>
    <desc>Created with Sketch.</desc>
    <defs>
        <polygon id="path-1" points="0 82.2251 146.107 82.2251 146.107 0.0001 0 0.0001"></polygon>
    </defs>
    <g id="Sandbox" stroke="none" stroke-width="1" fill="none" fill-rule="evenodd">
        <g id="splash" transform="translate(-89.000000, -60.000000)">
            <g id="Resources/Brand/CcLogo-vert-inverse" transform="translate(89.000000, 60.000000)">
                <g id="Group-23">
                    <path d="M0,69.7056 C0,64.9946 3.596,61.5576 8.444,61.5576 C10.903,61.5576 13.043,62.3986 14.499,64.0386 L13.02,65.4726 C11.791,64.1746 10.288,63.5826 8.535,63.5826 C4.938,63.5826 2.276,66.1776 2.276,69.7056 C2.276,73.2336 4.938,75.8286 8.535,75.8286 C10.288,75.8286 11.791,75.2146 13.02,73.9166 L14.499,75.3516 C13.043,76.9896 10.903,77.8546 8.422,77.8546 C3.596,77.8546 0,74.4176 0,69.7056" id="Fill-1" fill="#FFFFFF"></path>
                    <path d="M26.1543,71.6402 C26.1543,69.0692 24.4233,67.4072 22.1013,67.4072 C19.7803,67.4072 18.0273,69.0692 18.0273,71.6402 C18.0273,74.2122 19.7803,75.8972 22.1013,75.8972 C24.4233,75.8972 26.1543,74.2122 26.1543,71.6402 M15.8193,71.6402 C15.8193,68.0442 18.4823,65.4942 22.1013,65.4942 C25.7203,65.4942 28.3613,68.0442 28.3613,71.6402 C28.3613,75.2372 25.7203,77.8092 22.1013,77.8092 C18.4823,77.8092 15.8193,75.2372 15.8193,71.6402" id="Fill-3" fill="#FFFFFF"></path>
                    <path d="M38.1709,76.9674 C37.5119,77.5364 36.5099,77.8094 35.5309,77.8094 C33.0959,77.8094 31.7069,76.4664 31.7069,74.0304 L31.7069,67.4064 L29.6579,67.4064 L29.6579,65.6094 L31.7069,65.6094 L31.7069,62.9684 L33.8919,62.9684 L33.8919,65.6094 L37.3529,65.6094 L37.3529,67.4064 L33.8919,67.4064 L33.8919,73.9404 C33.8919,75.2374 34.5749,75.9654 35.7809,75.9654 C36.4189,75.9654 37.0329,75.7604 37.4879,75.3964 L38.1709,76.9674 Z" id="Fill-5" fill="#FFFFFF"></path>
                    <path d="M47.7539,76.9674 C47.0949,77.5364 46.0929,77.8094 45.1139,77.8094 C42.6789,77.8094 41.2899,76.4664 41.2899,74.0304 L41.2899,67.4064 L39.2409,67.4064 L39.2409,65.6094 L41.2899,65.6094 L41.2899,62.9684 L43.4749,62.9684 L43.4749,65.6094 L46.9359,65.6094 L46.9359,67.4064 L43.4749,67.4064 L43.4749,73.9404 C43.4749,75.2374 44.1579,75.9654 45.3639,75.9654 C46.0009,75.9654 46.6159,75.7604 47.0709,75.3964 L47.7539,76.9674 Z" id="Fill-7" fill="#FFFFFF"></path>
                    <path d="M57.3134,73.9849 L57.3134,72.2999 L53.9454,72.2999 C51.7824,72.2999 51.1674,73.1429 51.1674,74.1679 C51.1674,75.3739 52.1694,76.1249 53.8314,76.1249 C55.4694,76.1249 56.7674,75.3739 57.3134,73.9849 M59.4994,70.3879 L59.4994,77.6729 L57.4274,77.6729 L57.4274,76.0799 C56.6994,77.1719 55.3564,77.8089 53.4664,77.8089 C50.7354,77.8089 49.0054,76.3519 49.0054,74.2579 C49.0054,72.3239 50.2574,70.7299 53.8534,70.7299 L57.3134,70.7299 L57.3134,70.2969 C57.3134,68.4539 56.2444,67.3839 54.0824,67.3839 C52.6474,67.3839 51.1914,67.8849 50.2574,68.6809 L49.3474,67.0429 C50.5984,66.0419 52.3974,65.4949 54.3324,65.4949 C57.6324,65.4949 59.4994,67.0889 59.4994,70.3879" id="Fill-9" fill="#FFFFFF"></path>
                    <path d="M72.1093,71.3219 C72.1093,68.9769 70.3793,67.4069 67.9663,67.4069 C65.5313,67.4069 63.8013,68.9769 63.8013,71.3219 C63.8013,73.6429 65.5313,75.2599 67.9663,75.2599 C70.3793,75.2599 72.1093,73.6429 72.1093,71.3219 Z M74.2493,65.6089 L74.2493,76.0339 C74.2493,80.2909 72.0873,82.2249 67.9893,82.2249 C65.7813,82.2249 63.5503,81.6109 62.2303,80.4259 L63.2773,78.7429 C64.3923,79.6989 66.1453,80.3129 67.9213,80.3129 C70.7663,80.3129 72.0633,78.9929 72.0633,76.2609 L72.0633,75.3049 C71.0163,76.5569 69.4463,77.1719 67.7163,77.1719 C64.2333,77.1719 61.5923,74.8039 61.5923,71.3219 C61.5923,67.8399 64.2333,65.4949 67.7163,65.4949 C69.5143,65.4949 71.1533,66.1549 72.1773,67.4749 L72.1773,65.6089 L74.2493,65.6089 Z" id="Fill-11" fill="#FFFFFF"></path>
                    <path d="M78.5732,70.7984 L86.3122,70.7984 C86.0852,68.7724 84.5592,67.3384 82.4432,67.3384 C80.3482,67.3384 78.8012,68.7494 78.5732,70.7984 M88.3612,72.3684 L78.5732,72.3684 C78.8462,74.4864 80.5532,75.8974 82.9432,75.8974 C84.3552,75.8974 85.5392,75.4184 86.4272,74.4404 L87.6332,75.8524 C86.5402,77.1264 84.8782,77.8094 82.8752,77.8094 C78.9832,77.8094 76.3872,75.2364 76.3872,71.6404 C76.3872,68.0674 78.9602,65.4944 82.4432,65.4944 C85.9262,65.4944 88.4062,67.9984 88.4062,71.7094 C88.4062,71.8904 88.3842,72.1644 88.3612,72.3684" id="Fill-13" fill="#FFFFFF"></path>
                    <path d="M90,69.7056 C90,64.9946 93.596,61.5576 98.444,61.5576 C100.903,61.5576 103.043,62.3986 104.499,64.0386 L103.02,65.4726 C101.79,64.1746 100.288,63.5826 98.535,63.5826 C94.938,63.5826 92.276,66.1776 92.276,69.7056 C92.276,73.2336 94.938,75.8286 98.535,75.8286 C100.288,75.8286 101.79,75.2146 103.02,73.9166 L104.499,75.3516 C103.043,76.9896 100.903,77.8546 98.422,77.8546 C93.596,77.8546 90,74.4176 90,69.7056" id="Fill-15" fill="#FFFFFF"></path>
                    <mask id="mask-2" fill="white">
                        <use xlink:href="#path-1"></use>
                    </mask>
                    <g id="Clip-18"></g>
                    <polygon id="Fill-17" fill="#FFFFFF" mask="url(#mask-2)" points="106.98 77.6731 109.165 77.6731 109.165 60.7831 106.98 60.7831"></polygon>
                    <path d="M120.25,73.9849 L120.25,72.2999 L116.882,72.2999 C114.719,72.2999 114.104,73.1429 114.104,74.1679 C114.104,75.3739 115.105,76.1249 116.768,76.1249 C118.406,76.1249 119.704,75.3739 120.25,73.9849 M122.435,70.3879 L122.435,77.6729 L120.363,77.6729 L120.363,76.0799 C119.635,77.1719 118.292,77.8089 116.403,77.8089 C113.672,77.8089 111.942,76.3519 111.942,74.2579 C111.942,72.3239 113.193,70.7299 116.79,70.7299 L120.25,70.7299 L120.25,70.2969 C120.25,68.4539 119.181,67.3839 117.018,67.3839 C115.584,67.3839 114.127,67.8849 113.193,68.6809 L112.283,67.0429 C113.535,66.0419 115.333,65.4949 117.269,65.4949 C120.569,65.4949 122.435,67.0889 122.435,70.3879" id="Fill-19" fill="#FFFFFF" mask="url(#mask-2)"></path>
                    <path d="M124.5058,76.398 L125.4168,74.669 C126.4418,75.396 128.0798,75.92 129.6508,75.92 C131.6768,75.92 132.5188,75.305 132.5188,74.281 C132.5188,71.572 124.8938,73.917 124.8938,69.114 C124.8938,66.952 126.8278,65.495 129.9238,65.495 C131.4948,65.495 133.2708,65.904 134.3178,66.587 L133.3838,68.317 C132.2908,67.612 131.0848,67.361 129.9018,67.361 C127.9888,67.361 127.0558,68.067 127.0558,69.023 C127.0558,71.869 134.7038,69.546 134.7038,74.236 C134.7038,76.42 132.7008,77.809 129.4908,77.809 C127.4878,77.809 125.5078,77.195 124.5058,76.398" id="Fill-20" fill="#FFFFFF" mask="url(#mask-2)"></path>
                    <path d="M135.9101,76.398 L136.8201,74.669 C137.8451,75.396 139.4831,75.92 141.0541,75.92 C143.0801,75.92 143.9221,75.305 143.9221,74.281 C143.9221,71.572 136.2971,73.917 136.2971,69.114 C136.2971,66.952 138.2321,65.495 141.3281,65.495 C142.8981,65.495 144.6741,65.904 145.7211,66.587 L144.7871,68.317 C143.6941,67.612 142.4881,67.361 141.3051,67.361 C139.3921,67.361 138.4601,68.067 138.4601,69.023 C138.4601,71.869 146.1071,69.546 146.1071,74.236 C146.1071,76.42 144.1041,77.809 140.8941,77.809 C138.8911,77.809 136.9111,77.195 135.9101,76.398" id="Fill-21" fill="#FFFFFF" mask="url(#mask-2)"></path>
                    <path d="M78.4238,25.8219 C78.1868,28.2979 77.0328,30.1029 74.9328,32.6049 C72.8328,35.1059 72.5248,35.4959 72.5248,35.4959 C72.5248,35.4959 72.0658,35.3029 69.0208,34.1229 C65.9748,32.9429 64.0948,31.9159 62.6938,29.8609 C61.1658,27.6199 61.3958,24.4679 63.7788,23.0599 C66.6248,21.3789 69.3238,23.0339 69.9898,25.6279 C69.3238,23.0339 70.8928,20.2829 74.1958,20.3849 C76.9638,20.4719 78.6838,23.1219 78.4238,25.8219 Z M93.4088,25.1949 L96.6718,19.6769 L68.9298,3.2699 L68.9338,3.2629 L63.4158,-0.0001 L63.4118,0.0069 L63.4058,0.0029 L60.1428,5.5199 L60.1498,5.5239 L43.7418,33.2659 L49.2598,36.5299 L51.7898,32.2509 L57.1868,53.2669 L94.5258,43.6799 L89.1298,22.6639 L93.4088,25.1949 Z" id="Fill-22" fill="#FFFFFF" mask="url(#mask-2)"></path>
                </g>
            </g>
        </g>
    </g>
</svg>