<?xml version="1.0" encoding="UTF-8"?>
<svg width="141px" height="126px" viewBox="0 0 141 126" version="1.1" xmlns="http://www.w3.org/2000/svg" xmlns:xlink="http://www.w3.org/1999/xlink">
    <!-- Generator: Sketch 51.3 (57544) - http://www.bohemiancoding.com/sketch -->
    <title>cc-splash-logo</title>
    <desc>Created with Sketch.</desc>
    <defs>
        <polygon id="path-1" points="0 23 141 23 141 0 0 0"></polygon>
    </defs>
    <g id="cc-splash-logo" stroke="none" stroke-width="1" fill="none" fill-rule="evenodd">
        <g id="Group-2">
            <g id="illustrations/organic-circle/purple" transform="translate(26.000000, 0.000000)" fill="#64426B">
                <path d="M45,89.7489562 C69.8840931,92.6712633 90,69.6163974 90,44.7816277 C90,19.9468579 73.5885879,0 48.7389677,0 C23.8893474,3.03471216e-15 0,19.9468579 0,44.7816277 C0,69.6163974 20.1159069,86.826649 45,89.7489562 Z" id="Oval-3"></path>
            </g>
            <g id="resources/brand/cclogo-house" transform="translate(48.000000, 23.000000)" fill="#FFFFFF">
                <path d="M29.2318912,21.8393735 C29.0377256,23.8550373 28.0922951,25.324453 26.371841,27.3612829 C24.6513869,29.3972987 24.3990536,29.7147902 24.3990536,29.7147902 C24.3990536,29.7147902 24.0230115,29.5576726 21.5283531,28.5970574 C19.0328753,27.6364421 17.4926593,26.8003813 16.3448706,25.1274454 C15.0930354,23.3030906 15.2814661,20.7371083 17.2337719,19.5908826 C19.5653968,18.222413 21.77659,19.5697165 22.3222197,21.6814419 C21.77659,19.5697165 23.062015,17.3301805 25.7680436,17.4132168 C28.0357659,17.4840418 29.4448998,19.6413556 29.2318912,21.8393735 Z M41.5085602,21.3289449 L44.1818182,16.8368476 L21.4538,3.48022569 L21.4570771,3.47452712 L16.9363791,0.818181818 L16.933102,0.823880383 L16.9281865,0.82062406 L14.2549285,5.31190725 L14.2606633,5.31516358 L0.818181818,27.8993902 L5.33887982,30.5565496 L7.4116174,27.0730983 L11.8331845,44.1818182 L42.4236779,36.3772266 L38.0029301,19.2685067 L41.5085602,21.3289449 Z" id="Fill-22"></path>
            </g>
            <g id="Group" transform="translate(0.000000, 103.000000)">
                <mask id="mask-2" fill="white">
                    <use xlink:href="#path-1"></use>
                </mask>
                <g id="Clip-18"></g>
                <path d="M0,10.4848168 C0,5.98720262 3.41174749,2.70588235 8.01134477,2.70588235 C10.3443501,2.70588235 12.3747004,3.50878906 13.7560976,5.07450487 L12.3528788,6.4435515 C11.1868506,5.20434472 9.76086156,4.6391595 8.09768209,4.6391595 C4.68498584,4.6391595 2.15938189,7.11661836 2.15938189,10.4848168 C2.15938189,13.8530152 4.68498584,16.330474 8.09768209,16.330474 C9.76086156,16.330474 11.1868506,15.7442853 12.3528788,14.5050785 L13.7560976,15.8750799 C12.3747004,17.4388863 10.3443501,18.2647059 7.99047201,18.2647059 C3.41174749,18.2647059 0,14.9833856 0,10.4848168" id="Fill-1" fill="#FFFFFF" mask="url(#mask-2)"></path>
                <path d="M25.3336162,12.5039669 C25.3336162,10.1031143 23.6249075,8.55110458 21.3328096,8.55110458 C19.0416987,8.55110458 17.3112733,10.1031143 17.3112733,12.5039669 C17.3112733,14.9057534 19.0416987,16.479241 21.3328096,16.479241 C23.6249075,16.479241 25.3336162,14.9057534 25.3336162,12.5039669 M15.1317073,12.5039669 C15.1317073,9.14594827 17.760414,6.76470588 21.3328096,6.76470588 C24.9052051,6.76470588 27.5121951,9.14594827 27.5121951,12.5039669 C27.5121951,15.8629194 24.9052051,18.2647059 21.3328096,18.2647059 C17.760414,18.2647059 15.1317073,15.8629194 15.1317073,12.5039669" id="Fill-3" fill="#FFFFFF" mask="url(#mask-2)"></path>
                <path d="M37.1414634,18.1352097 C36.5025393,18.6798595 35.5310644,18.9411765 34.5818888,18.9411765 C32.2210691,18.9411765 30.8743838,17.6556499 30.8743838,15.323898 L30.8743838,8.98337079 L28.8878049,8.98337079 L28.8878049,7.26327305 L30.8743838,7.26327305 L30.8743838,4.73529412 L32.9928196,4.73529412 L32.9928196,7.26327305 L36.3483831,7.26327305 L36.3483831,8.98337079 L32.9928196,8.98337079 L32.9928196,15.2377496 C32.9928196,16.4792447 33.6550126,17.1760901 34.8242728,17.1760901 C35.4428366,17.1760901 36.0381316,16.979863 36.4792704,16.6314403 L37.1414634,18.1352097 Z" id="Fill-5" fill="#FFFFFF" mask="url(#mask-2)"></path>
                <path d="M46.0829268,18.1352097 C45.4440027,18.6798595 44.4725278,18.9411765 43.5233522,18.9411765 C41.1625325,18.9411765 39.8158472,17.6556499 39.8158472,15.323898 L39.8158472,8.98337079 L37.8292683,8.98337079 L37.8292683,7.26327305 L39.8158472,7.26327305 L39.8158472,4.73529412 L41.934283,4.73529412 L41.934283,7.26327305 L45.2898465,7.26327305 L45.2898465,8.98337079 L41.934283,8.98337079 L41.934283,15.2377496 C41.934283,16.4792447 42.596476,17.1760901 43.7657362,17.1760901 C44.3833305,17.1760901 44.9795951,16.979863 45.4207339,16.6314403 L46.0829268,18.1352097 Z" id="Fill-7" fill="#FFFFFF" mask="url(#mask-2)"></path>
                <path d="M55.6264653,14.6934861 L55.6264653,13.1198707 L52.3152491,13.1198707 C50.1887169,13.1198707 49.5840857,13.9071454 49.5840857,14.8643892 C49.5840857,15.9906682 50.5691922,16.6920244 52.2031712,16.6920244 C53.8135548,16.6920244 55.0896708,15.9906682 55.6264653,14.6934861 M57.7756098,11.3342609 L57.7756098,18.137696 L55.7385433,18.137696 L55.7385433,16.649999 C55.0228172,17.6698139 53.7024599,18.2647059 51.844325,18.2647059 C49.1593691,18.2647059 47.4585366,16.9040189 47.4585366,14.9484398 C47.4585366,13.1422842 48.6894281,11.6536534 52.2248002,11.6536534 L55.6264653,11.6536534 L55.6264653,11.2492763 C55.6264653,9.52810527 54.5754884,8.52883614 52.4499393,8.52883614 C51.0391332,8.52883614 49.607681,8.99671823 48.6894281,9.74009974 L47.7947705,8.21037748 C49.0246789,7.2755472 50.7933481,6.76470588 52.6957244,6.76470588 C55.940087,6.76470588 57.7756098,8.25333671 57.7756098,11.3342609" id="Fill-9" fill="#FFFFFF" mask="url(#mask-2)"></path>
                <path d="M70.1262639,12.1837892 C70.1262639,10.00295 68.4340585,8.54285714 66.0737743,8.54285714 C63.6919707,8.54285714 61.9997653,10.00295 61.9997653,12.1837892 C61.9997653,14.3423086 63.6919707,15.8461112 66.0737743,15.8461112 C68.4340585,15.8461112 70.1262639,14.3423086 70.1262639,12.1837892 Z M72.2195122,6.87072536 L72.2195122,16.5659277 C72.2195122,20.5249183 70.1047445,22.3235294 66.0962718,22.3235294 C63.9365091,22.3235294 61.7542488,21.7525122 60.4630863,20.6504676 L61.4872129,19.0852853 C62.577854,19.974361 64.2925569,20.5453782 66.0297574,20.5453782 C68.8126038,20.5453782 70.0812688,19.3177842 70.0812688,16.7770367 L70.0812688,15.887961 C69.0571422,17.0523153 67.5214413,17.6242625 65.8292359,17.6242625 C62.4223276,17.6242625 59.8390244,15.4220333 59.8390244,12.1837892 C59.8390244,8.94554516 62.4223276,6.76470588 65.8292359,6.76470588 C67.5879558,6.76470588 69.1911492,7.37850287 70.1927783,8.60609683 L70.1927783,6.87072536 L72.2195122,6.87072536 Z" id="Fill-11" fill="#FFFFFF" mask="url(#mask-2)"></path>
                <path d="M75.7217718,11.71769 L83.2506572,11.71769 C83.0298203,9.82576963 81.5452513,8.48667097 79.4867009,8.48667097 C77.4485804,8.48667097 75.9435816,9.80429175 75.7217718,11.71769 M85.2440266,13.1837883 L75.7217718,13.1837883 C75.9873599,15.1616202 77.6480146,16.479241 79.9731259,16.479241 C81.3467899,16.479241 82.4986442,16.031941 83.3625349,15.1186645 L84.5357919,16.4372191 C83.472467,17.6269065 81.8555904,18.2647059 79.9069721,18.2647059 C76.1206403,18.2647059 73.595122,15.8619856 73.595122,12.5039669 C73.595122,9.16742614 76.0982647,6.76470588 79.4867009,6.76470588 C82.8751371,6.76470588 85.2878049,9.10299252 85.2878049,12.5684006 C85.2878049,12.7374221 85.2664022,12.9932889 85.2440266,13.1837883" id="Fill-13" fill="#FFFFFF" mask="url(#mask-2)"></path>
                <path d="M86.6634146,10.4848168 C86.6634146,5.98720262 90.0751621,2.70588235 94.6747594,2.70588235 C97.0077647,2.70588235 99.038115,3.50878906 100.419512,5.07450487 L99.0162935,6.4435515 C97.8493164,5.20434472 96.4242762,4.6391595 94.7610967,4.6391595 C91.3484005,4.6391595 88.8227965,7.11661836 88.8227965,10.4848168 C88.8227965,13.8530152 91.3484005,16.330474 94.7610967,16.330474 C96.4242762,16.330474 97.8493164,15.7442853 99.0162935,14.5050785 L100.419512,15.8750799 C99.038115,17.4388863 97.0077647,18.2647059 94.6538866,18.2647059 C90.0751621,18.2647059 86.6634146,14.9833856 86.6634146,10.4848168" id="Fill-15" fill="#FFFFFF" mask="url(#mask-2)"></path>
                <polygon id="Fill-17" fill="#FFFFFF" mask="url(#mask-2)" points="103.170732 18.9411765 105.234146 18.9411765 105.234146 2.70588235 103.170732 2.70588235"></polygon>
                <path d="M116.154073,14.6934861 L116.154073,13.1198707 L112.842541,13.1198707 C110.715806,13.1198707 110.111118,13.9071454 110.111118,14.8643892 C110.111118,15.9906682 111.095335,16.6920244 112.730453,16.6920244 C114.34099,16.6920244 115.617227,15.9906682 116.154073,14.6934861 M118.302439,11.3342609 L118.302439,18.137696 L116.265178,18.137696 L116.265178,16.649999 C115.549384,17.6698139 114.228901,18.2647059 112.371572,18.2647059 C109.68636,18.2647059 107.985366,16.9040189 107.985366,14.9484398 C107.985366,13.1422842 109.215391,11.6536534 112.752084,11.6536534 L116.154073,11.6536534 L116.154073,11.2492763 C116.154073,9.52810527 115.102996,8.52883614 112.976261,8.52883614 C111.566304,8.52883614 110.133732,8.99671823 109.215391,9.74009974 L108.320649,8.21037748 C109.551657,7.2755472 111.319512,6.76470588 113.223053,6.76470588 C116.467725,6.76470588 118.302439,8.25333671 118.302439,11.3342609" id="Fill-19" fill="#FFFFFF" mask="url(#mask-2)"></path>
                <path d="M120.365854,16.9469781 L121.226048,15.3322713 C122.193885,16.0112139 123.740535,16.5005756 125.223922,16.5005756 C127.136935,16.5005756 127.931977,15.9262294 127.931977,14.9699195 C127.931977,12.4399942 120.732215,14.6299812 120.732215,10.1444769 C120.732215,8.12539291 122.558358,6.76470588 125.481698,6.76470588 C126.965084,6.76470588 128.642039,7.1466695 129.630649,7.78452073 L128.748737,9.40016146 C127.716692,8.74176451 126.57795,8.50735652 125.460924,8.50735652 C123.65461,8.50735652 122.773643,9.16668737 122.773643,10.0594923 C122.773643,12.7173614 129.995122,10.5479201 129.995122,14.9278941 C129.995122,16.9675238 128.103827,18.2647059 125.072845,18.2647059 C123.181551,18.2647059 121.311973,17.6912935 120.365854,16.9469781" id="Fill-20" fill="#FFFFFF" mask="url(#mask-2)"></path>
                <path d="M131.370732,16.9469781 L132.230066,15.3322713 C133.197998,16.0112139 134.7448,16.5005756 136.228333,16.5005756 C138.141532,16.5005756 138.936653,15.9262294 138.936653,14.9699195 C138.936653,12.4399942 131.736185,14.6299812 131.736185,10.1444769 C131.736185,8.12539291 133.563451,6.76470588 136.487077,6.76470588 C137.969665,6.76470588 139.646784,7.1466695 140.635491,7.78452073 L139.753493,9.40016146 C138.721347,8.74176451 137.582493,8.50735652 136.465358,8.50735652 C134.658867,8.50735652 133.778757,9.16668737 133.778757,10.0594923 C133.778757,12.7173614 141,10.5479201 141,14.9278941 C141,16.9675238 139.10852,18.2647059 136.077241,18.2647059 C134.185761,18.2647059 132.316,17.6912935 131.370732,16.9469781" id="Fill-21" fill="#FFFFFF" mask="url(#mask-2)"></path>
            </g>
        </g>
    </g>
</svg>