<?xml version="1.0" encoding="UTF-8"?>
<svg width="24px" height="24px" viewBox="0 0 24 24" version="1.1" xmlns="http://www.w3.org/2000/svg" xmlns:xlink="http://www.w3.org/1999/xlink">
    <!-- Generator: Sketch 51.3 (57544) - http://www.bohemiancoding.com/sketch -->
    <title>resources/brand/cclogo-house blue</title>
    <desc>Created with Sketch.</desc>
    <defs></defs>
    <g id="resources/brand/cclogo-house-blue" stroke="none" stroke-width="1" fill="none" fill-rule="evenodd">
        <path d="M15.415341,11.7327414 C15.3168336,12.7618742 14.8371812,13.5121103 13.9643302,14.5520499 C13.0914793,15.5915738 12.9634612,15.7536747 12.9634612,15.7536747 C12.9634612,15.7536747 12.7726809,15.6734555 11.507047,15.1829964 C10.2409975,14.6925373 9.45958814,14.2656716 8.87727187,13.4115247 C8.2421689,12.480068 8.33776686,11.1699603 9.32824485,10.5847346 C10.5111657,9.88603816 11.632987,10.5739278 11.9098054,11.6521066 C11.632987,10.5739278 12.2851313,9.4304931 13.6580011,9.47288872 C14.8085018,9.50904969 15.5234083,10.6105044 15.415341,11.7327414 Z M21.6437559,11.472133 L23,9.17861326 L11.4692235,2.3591536 L11.4708861,2.3562441 L9.17736633,1 L9.17570376,1.0029095 L9.1732099,1.00124693 L7.8169658,3.29435103 L7.81987531,3.2960136 L1,14.8267901 L3.29351974,16.1834498 L4.3450973,14.4049121 L6.5883242,23.1400718 L22.1080295,19.1552995 L19.8652182,10.4201398 L21.6437559,11.472133 Z" id="Fill-22" fill="#1F88E9"></path>
    </g>
</svg>