<?xml version="1.0" encoding="UTF-8"?>
<svg width="32px" height="32px" viewBox="0 0 32 32" version="1.1" xmlns="http://www.w3.org/2000/svg" xmlns:xlink="http://www.w3.org/1999/xlink">
    <!-- Generator: Sketch 51.2 (57519) - http://www.bohemiancoding.com/sketch -->
    <title>icons/chat</title>
    <desc>Created with Sketch.</desc>
    <defs>
        <polygon id="path-1" points="0 0.000361907959 10.0236441 0.000361907959 10.0236441 19.3017578 0 19.3017578"></polygon>
    </defs>
    <g id="icons/chat" stroke="none" stroke-width="1" fill="none" fill-rule="evenodd">
        <g id="Page-1" transform="translate(11.071381, 5.562012)">
            <mask id="mask-2" fill="white">
                <use xlink:href="#path-1"></use>
            </mask>
            <g id="Clip-2"></g>
        </g>
        <g id="Group" transform="translate(2.500000, 4.000000)" fill="#1F88E9" fill-rule="nonzero">
            <path d="M13.7194286,23.1528571 C6.62714286,23.1528571 0.857142857,18.0217143 0.857142857,11.7142857 C0.857142857,5.40685714 6.62257143,0.275714286 13.7094286,0.275714286 C20.8014286,0.275714286 26.5714286,5.40685714 26.5714286,11.7142857 C26.5714286,14.0537143 25.7485714,16.3671429 24.2445714,18.2797143 C24.5048571,18.7108571 24.8368571,19.0597143 25.236,19.3205714 C25.8154286,19.7011429 26.0931429,20.3814286 25.9445714,21.0545714 C25.7942857,21.7257143 25.2585714,22.2202857 24.5788571,22.3168571 C24.1774286,22.3742857 23.7545714,22.4034286 23.3225714,22.4034286 C22.1148571,22.4034286 20.996,22.1671429 19.9902857,21.7008571 C18.0782857,22.652 15.9188571,23.1528571 13.7194286,23.1528571 Z M13.7094286,1.70428571 C7.41028571,1.70428571 2.28571429,6.19485714 2.28571429,11.7142857 C2.28571429,17.2337143 7.41485714,21.7242857 13.7194286,21.7242857 C15.8128571,21.7242857 17.8631429,21.2214286 19.6485714,20.2702857 L19.9834286,20.0917143 L20.3188571,20.2694286 C21.202,20.7377143 22.2125714,20.9748571 23.3225714,20.9748571 C23.6871429,20.9748571 24.042,20.9505714 24.3768571,20.9025714 C24.4662857,20.89 24.5305714,20.8308571 24.55,20.7442857 C24.5702857,20.652 24.536,20.57 24.4531429,20.5154286 C23.7137143,20.0322857 23.1377143,19.3505714 22.7428571,18.4902857 L22.552,18.0742857 L22.85,17.7271429 C24.3285714,16.0045714 25.1428571,13.8691429 25.1428571,11.7142857 C25.1428571,6.19485714 20.0137143,1.70428571 13.7094286,1.70428571 Z M8.31742857,10.3651429 C7.57228571,10.3651429 6.968,10.9691429 6.968,11.7142857 C6.968,12.4594286 7.572,13.0634286 8.31742857,13.0634286 C9.06257143,13.0634286 9.66657143,12.4594286 9.66657143,11.7142857 C9.66657143,10.9691429 9.06257143,10.3651429 8.31742857,10.3651429 Z M13.7142857,10.3651429 C12.9691429,10.3651429 12.3651429,10.9691429 12.3651429,11.7142857 C12.3651429,12.4594286 12.9691429,13.0634286 13.7142857,13.0634286 C14.4594286,13.0634286 15.0634286,12.4594286 15.0634286,11.7142857 C15.0634286,10.9691429 14.4594286,10.3651429 13.7142857,10.3651429 Z M19.1111429,10.3651429 C18.366,10.3651429 17.762,10.9691429 17.762,11.7142857 C17.762,12.4594286 18.366,13.0634286 19.1111429,13.0634286 C19.8562857,13.0634286 20.4605714,12.4594286 20.4605714,11.7142857 C20.4605714,10.9691429 19.8562857,10.3651429 19.1111429,10.3651429 Z" id="Shape" transform="translate(13.714286, 11.714286) scale(-1, 1) translate(-13.714286, -11.714286) "></path>
        </g>
    </g>
</svg>