<?xml version="1.0" encoding="UTF-8"?>
<svg width="26px" height="26px" viewBox="0 0 26 26" version="1.1" xmlns="http://www.w3.org/2000/svg" xmlns:xlink="http://www.w3.org/1999/xlink">
    <!-- Generator: Sketch 51.2 (57519) - http://www.bohemiancoding.com/sketch -->
    <title>icons/mvp/check-in</title>
    <desc>Created with Sketch.</desc>
    <defs>
        <polygon id="path-1" points="0 0.96625 9.1489 0.96625 9.1489 5.954 0 5.954"></polygon>
        <polygon id="path-3" points="0.4139 0.921 21.168 0.921 21.168 22 0.4139 22"></polygon>
    </defs>
    <g id="icons/mvp/check-in" stroke="none" stroke-width="1" fill="none" fill-rule="evenodd">
        <g id="Group-9" transform="translate(0.500000, 1.500000)">
            <g id="Group-3" transform="translate(0.000000, 8.079300)">
                <mask id="mask-2" fill="white">
                    <use xlink:href="#path-1"></use>
                </mask>
                <g id="Clip-2"></g>
                <path d="M5.8569,4.674 C5.5639,4.967 5.5639,5.442 5.8569,5.735 C6.0029,5.881 6.1949,5.954 6.3869,5.954 C6.5789,5.954 6.7709,5.881 6.9179,5.735 L9.1489,3.503 L6.8329,1.186 C6.5399,0.893 6.0649,0.893 5.7719,1.186 C5.4789,1.479 5.4789,1.954 5.7719,2.247 L6.2349,2.71 L0.7499,2.71 C0.3359,2.71 -0.0001,3.046 -0.0001,3.46 C-0.0001,3.874 0.3359,4.21 0.7499,4.21 L6.3209,4.21 L5.8569,4.674 Z" id="Fill-1" fill="#1F88E9" mask="url(#mask-2)"></path>
            </g>
            <g id="Group-6" transform="translate(3.000000, 0.079300)">
                <mask id="mask-4" fill="white">
                    <use xlink:href="#path-3"></use>
                </mask>
                <g id="Clip-5"></g>
                <path d="M10.6289,0.9206 C5.6909,0.9206 1.5579,4.3206 0.4139,8.9046 L1.9629,8.9046 C3.0679,5.1616 6.5319,2.4206 10.6289,2.4206 C15.6129,2.4206 19.6689,6.4756 19.6689,11.4606 C19.6689,16.4446 15.6129,20.5006 10.6289,20.5006 C6.5319,20.5006 3.0679,17.7586 1.9629,14.0156 L0.4139,14.0156 C1.5579,18.5996 5.6909,22.0006 10.6289,22.0006 C16.4499,22.0006 21.1689,17.2816 21.1689,11.4606 C21.1689,5.6396 16.4499,0.9206 10.6289,0.9206" id="Fill-4" fill="#1F88E9" mask="url(#mask-4)"></path>
            </g>
            <path d="M17.0229,10.3261 C17.3159,10.0331 17.3159,9.5581 17.0229,9.2651 C16.7299,8.9721 16.2549,8.9721 15.9619,9.2651 L13.0039,12.2231 L11.9449,11.1631 C11.6519,10.8701 11.1769,10.8701 10.8839,11.1631 C10.5909,11.4561 10.5909,11.9311 10.8839,12.2241 L13.0039,14.3441 L17.0229,10.3261 Z" id="Fill-7" fill="#1F88E9"></path>
        </g>
    </g>
</svg>