<?xml version="1.0" encoding="UTF-8"?>
<svg width="26px" height="26px" viewBox="0 0 26 26" version="1.1" xmlns="http://www.w3.org/2000/svg" xmlns:xlink="http://www.w3.org/1999/xlink">
    <!-- Generator: Sketch 51.2 (57519) - http://www.bohemiancoding.com/sketch -->
    <title>icons/mvp/check-out</title>
    <desc>Created with Sketch.</desc>
    <defs>
        <polygon id="path-1" points="0 0.921 20.7547 0.921 20.7547 22 0 22"></polygon>
        <polygon id="path-3" points="0.8576 0.96645 10.007 0.96645 10.007 5.9542 0.8576 5.9542"></polygon>
    </defs>
    <g id="icons/mvp/check-out" stroke="none" stroke-width="1" fill="none" fill-rule="evenodd">
        <g id="Group-9" transform="translate(0.000000, 1.500000)">
            <g id="Group-3" transform="translate(0.000000, 0.079300)">
                <mask id="mask-2" fill="white">
                    <use xlink:href="#path-1"></use>
                </mask>
                <g id="Clip-2"></g>
                <path d="M10.5397,20.5002 C5.5557,20.5002 1.4997,16.4452 1.4997,11.4602 C1.4997,6.4762 5.5557,2.4202 10.5397,2.4202 C14.6367,2.4202 18.0997,5.1622 19.2057,8.9052 L20.7547,8.9052 C19.6107,4.3212 15.4777,0.9202 10.5397,0.9202 C4.7187,0.9202 -0.0003,5.6392 -0.0003,11.4602 C-0.0003,17.2812 4.7187,22.0002 10.5397,22.0002 C15.4777,22.0002 19.6107,18.5992 20.7547,14.0162 L19.2057,14.0162 C18.0997,17.7582 14.6367,20.5002 10.5397,20.5002" id="Fill-1" fill="#1F88E9" mask="url(#mask-2)"></path>
            </g>
            <g id="Group-6" transform="translate(15.000000, 8.079300)">
                <mask id="mask-4" fill="white">
                    <use xlink:href="#path-3"></use>
                </mask>
                <g id="Clip-5"></g>
                <path d="M7.6906,1.1862 C7.3976,0.8932 6.9226,0.8932 6.6296,1.1862 C6.3366,1.4792 6.3366,1.9542 6.6296,2.2472 L7.0936,2.7102 L1.6076,2.7102 C1.1936,2.7102 0.8576,3.0462 0.8576,3.4602 C0.8576,3.8742 1.1936,4.2102 1.6076,4.2102 L7.1786,4.2102 L6.7146,4.6742 C6.4216,4.9672 6.4216,5.4412 6.7146,5.7342 C6.8616,5.8812 7.0536,5.9542 7.2456,5.9542 C7.4376,5.9542 7.6286,5.8812 7.7756,5.7342 L10.0076,3.5022 L7.6906,1.1862 Z" id="Fill-4" fill="#1F88E9" mask="url(#mask-4)"></path>
            </g>
            <path d="M12.5485,9.2655 L9.5905,12.2235 L8.5305,11.1635 C8.2375,10.8705 7.7635,10.8705 7.4705,11.1635 C7.1775,11.4565 7.1775,11.9315 7.4705,12.2235 L9.5905,14.3445 L13.6095,10.3265 C13.9025,10.0335 13.9025,9.5585 13.6095,9.2655 C13.3165,8.9725 12.8415,8.9725 12.5485,9.2655" id="Fill-7" fill="#1F88E9"></path>
        </g>
    </g>
</svg>