<?xml version="1.0" encoding="utf-8"?>
<!-- Generator: Adobe Illustrator 15.0.0, SVG Export Plug-In . SVG Version: 6.00 Build 0)  -->
<!DOCTYPE svg PUBLIC "-//W3C//DTD SVG 1.1//EN" "http://www.w3.org/Graphics/SVG/1.1/DTD/svg11.dtd">
<svg version="1.1" id="Layer_1" xmlns="http://www.w3.org/2000/svg" xmlns:xlink="http://www.w3.org/1999/xlink" x="0px" y="0px"
	 width="64px" height="64px" viewBox="0 0 64 64" enable-background="new 0 0 64 64" xml:space="preserve">
<circle fill="#302C3B" cx="32" cy="13" r="11"/>
<path fill-rule="evenodd" clip-rule="evenodd" fill="#4E5E67" d="M23.521,10.766c0.339,2.369,4.77-2.265,9.259-6.248
	C35.679,1.953,22.51,3.64,23.521,10.766z"/>
<path fill="#1A1626" d="M25.217,21.649c1.051,0.238,2.135,0.378,3.254,0.378c7.005,0,12.852-4.961,14.224-11.563
	C42.888,11.277,42.998,12.125,43,13c-0.002,6.074-4.925,10.995-11.003,11C29.437,23.995,27.088,23.113,25.217,21.649z"/>
<path fill="#302C3B" d="M44.644,50c5.258-11.266-6.468-13.459-6.468-26H25.825c0,12.549-11.73,14.729-6.467,26H44.644z"/>
<path fill="#4E5E67" d="M29.923,24h-2.051c0,12.549-11.727,14.729-6.464,26h4.099C20.246,38.729,29.923,36.549,29.923,24z"/>
<path fill="#1A1626" d="M44.644,50c5.258-11.266-6.468-13.459-6.468-26h-2.104c0,14.414,9.633,21.227-4.732,26H44.644z"/>
<path fill="#302C3B" d="M22,25c0,4,20,4,20,0S22,21,22,25z"/>
<path fill="#1A1626" d="M40.463,23.316c0.67,2.836-11.393,4.336-16.194,3.669C29.503,28.824,42,28.165,42,25.002
	C42,24.324,41.416,23.765,40.463,23.316z"/>
<path fill-rule="evenodd" clip-rule="evenodd" fill="#4E5E67" d="M22.964,25.039c-0.194,0.941,3.18-0.436,6.478-1.558
	C31.569,22.76,23.555,22.211,22.964,25.039z"/>
<path fill="#302C3B" d="M44.168,57H19.829c-5.106,0-5.106-8,0-8h24.339C49.276,49,49.276,57,44.168,57z"/>
<path fill="#4E5E67" d="M24.907,49h-3.641c-5.108,0-5.108,8,0,8h3.641C19.799,57,19.799,49,24.907,49z"/>
<path fill="#1A1626" d="M44.168,49c5.108,0,5.108,8,0,8H20.625C47.797,57,46.968,50.168,44.168,49z"/>
<path fill="#302C3B" d="M48.924,62H15.077c-4.103,0-4.103-6,0-6h33.847C53.025,56,53.025,62,48.924,62z"/>
<path fill="#4E5E67" d="M21.076,56h-3.999c-4.102,0-4.102,6,0,6h3.999C16.977,62,16.977,56,21.076,56z"/>
<path fill="#1A1626" d="M48.924,56c4.102,0,4.102,6,0,6h-23C54.639,62,48.924,56,48.924,56z"/>
</svg>
