<?xml version="1.0" encoding="UTF-8"?>
<svg width="32px" height="32px" viewBox="0 0 32 32" version="1.1" xmlns="http://www.w3.org/2000/svg" xmlns:xlink="http://www.w3.org/1999/xlink">
    <!-- Generator: Sketch 51.3 (57544) - http://www.bohemiancoding.com/sketch -->
    <title>mvp/icons/doctor-2</title>
    <desc>Created with Sketch.</desc>
    <defs>
        <polygon id="path-1" points="0.0001 0.0002 26 0.0002 26 26 0.0001 26"></polygon>
    </defs>
    <g id="mvp/icons/doctor-2" stroke="none" stroke-width="1" fill="none" fill-rule="evenodd">
        <g id="Group-6" transform="translate(3.000000, 3.000000)">
            <g id="Group-3">
                <mask id="mask-2" fill="white">
                    <use xlink:href="#path-1"></use>
                </mask>
                <g id="Clip-2"></g>
                <path d="M13.0001,24.5002 C6.6591,24.5002 1.5001,19.3412 1.5001,13.0002 C1.5001,6.6592 6.6591,1.5002 13.0001,1.5002 C19.3411,1.5002 24.5001,6.6592 24.5001,13.0002 C24.5001,19.3412 19.3411,24.5002 13.0001,24.5002 M13.0001,0.0002 C5.8201,0.0002 0.0001,5.8202 0.0001,13.0002 C0.0001,20.1802 5.8201,26.0002 13.0001,26.0002 C20.1801,26.0002 26.0001,20.1802 26.0001,13.0002 C26.0001,5.8202 20.1801,0.0002 13.0001,0.0002" id="Fill-1" fill="#E82D55" mask="url(#mask-2)"></path>
            </g>
            <path d="M18.7648,11.7282 L18.7648,14.2712 L14.2718,14.2712 L14.2718,18.7652 L11.7288,18.7652 L11.7288,14.2712 L7.2358,14.2712 L7.2358,11.7282 L11.7288,11.7282 L11.7288,7.2352 L14.2718,7.2352 L14.2718,11.7282 L18.7648,11.7282 Z M15.7718,5.7352 L10.2288,5.7352 L10.2288,10.2282 L5.7358,10.2282 L5.7358,15.7712 L10.2288,15.7712 L10.2288,20.2652 L15.7718,20.2652 L15.7718,15.7712 L20.2648,15.7712 L20.2648,10.2282 L15.7718,10.2282 L15.7718,5.7352 Z" id="Fill-4" fill="#E82D55"></path>
        </g>
    </g>
</svg>