<?xml version="1.0" encoding="UTF-8"?>
<svg width="32px" height="32px" viewBox="0 0 32 32" version="1.1" xmlns="http://www.w3.org/2000/svg" xmlns:xlink="http://www.w3.org/1999/xlink">
    <!-- Generator: Sketch 51.3 (57544) - http://www.bohemiancoding.com/sketch -->
    <title>mvp/icons/emergency-info</title>
    <desc>Created with Sketch.</desc>
    <defs>
        <polygon id="path-1" points="0 0 25.9997 0 25.9997 25.9998 0 25.9998"></polygon>
        <polygon id="path-3" points="0 26 26 26 26 0 0 0"></polygon>
    </defs>
    <g id="mvp/icons/emergency-info" stroke="none" stroke-width="1" fill="none" fill-rule="evenodd">
        <g id="Group-7" transform="translate(3.000000, 3.000000)">
            <g id="Group-3">
                <mask id="mask-2" fill="white">
                    <use xlink:href="#path-1"></use>
                </mask>
                <g id="Clip-2"></g>
                <path d="M12.9997,-0.0002 C5.8197,-0.0002 -0.0003,5.8198 -0.0003,12.9998 C-0.0003,20.1798 5.8197,25.9998 12.9997,25.9998 C20.1797,25.9998 25.9997,20.1798 25.9997,12.9998 C25.9997,5.8198 20.1797,-0.0002 12.9997,-0.0002 M12.9997,1.4998 C19.3417,1.4998 24.4997,6.6588 24.4997,12.9998 C24.4997,19.3408 19.3417,24.4998 12.9997,24.4998 C6.6587,24.4998 1.4997,19.3408 1.4997,12.9998 C1.4997,6.6588 6.6587,1.4998 12.9997,1.4998" id="Fill-1" fill="#231F20" mask="url(#mask-2)"></path>
            </g>
            <mask id="mask-4" fill="white">
                <use xlink:href="#path-3"></use>
            </mask>
            <g id="Clip-5"></g>
            <polygon id="Fill-4" fill="#231F20" mask="url(#mask-4)" points="12.258 17.952 13.743 17.952 13.743 9.577 12.258 9.577"></polygon>
            <polygon id="Fill-6" fill="#231F20" mask="url(#mask-4)" points="12.258 8.202 13.743 8.202 13.743 6.717 12.258 6.717"></polygon>
        </g>
    </g>
</svg>