<?xml version="1.0" encoding="UTF-8"?>
<svg width="24px" height="24px" viewBox="0 0 24 24" version="1.1" xmlns="http://www.w3.org/2000/svg" xmlns:xlink="http://www.w3.org/1999/xlink">
    <!-- Generator: Sketch 52.1 (67048) - http://www.bohemiancoding.com/sketch -->
    <title>mvp/icons/facebook-button-icon</title>
    <desc>Created with Sketch.</desc>
    <g id="mvp/icons/facebook-button-icon" stroke="none" stroke-width="1" fill="none" fill-rule="evenodd">
        <path d="M16.2018313,22 L16.2018313,14.245875 L19.0187551,14.245875 L19.439569,11.2230625 L16.2018313,11.2230625 L16.2018313,9.2935625 C16.2018313,8.419125 16.4639777,7.8230625 17.8229997,7.8230625 L19.5545455,7.822 L19.5545455,5.119 C19.2533071,5.0818125 18.2265671,5 17.0308117,5 C14.5346724,5 12.8238223,6.4078125 12.8238223,8.995 L12.8238223,11.2230625 L10,11.2230625 L10,14.245875 L12.8238223,14.245875 L12.8238223,22 L4,22 C2.8954305,22 2,21.1045695 2,20 L2,4 C2,2.8954305 2.8954305,2 4,2 L20,2 C21.1045695,2 22,2.8954305 22,4 L22,20 C22,21.1045695 21.1045695,22 20,22 L16.2018313,22 Z" id="Combined-Shape" fill="#FFFFFF"></path>
    </g>
</svg>