<?xml version="1.0" encoding="UTF-8"?>
<svg width="32px" height="32px" viewBox="0 0 32 32" version="1.1" xmlns="http://www.w3.org/2000/svg" xmlns:xlink="http://www.w3.org/1999/xlink">
    <!-- Generator: Sketch 52.3 (67297) - http://www.bohemiancoding.com/sketch -->
    <title>mvp/icons/free</title>
    <desc>Created with Sketch.</desc>
    <defs>
        <polygon id="path-1" points="0 0.310155609 29.6930233 0.310155609 29.6930233 30.2954193 0 30.2954193"></polygon>
    </defs>
    <g id="mvp/icons/free" stroke="none" stroke-width="1" fill="none" fill-rule="evenodd">
        <g id="Group-6" transform="translate(1.000000, 0.500000)">
            <path d="M10.3726047,16.7381682 L9.80888372,17.3081455 L11.1546977,18.6665091 L11.576093,18.2416682 C12.1174884,17.6949409 12.3274884,17.0876227 11.8691163,16.6247364 C11.4553953,16.2069409 10.8533023,16.2527364 10.3726047,16.7381682" id="Fill-1" fill="#AFF0FC"></path>
            <g id="Group-5" transform="translate(0.000000, 0.394334)">
                <mask id="mask-2" fill="white">
                    <use xlink:href="#path-1"></use>
                </mask>
                <g id="Clip-4"></g>
                <path d="M26.2726047,6.275175 C25.5826047,6.97197045 24.4635349,6.97197045 23.7742326,6.275175 C23.0842326,5.57908409 23.0842326,4.44899318 23.7742326,3.75219773 C24.4635349,3.05610682 25.5826047,3.05610682 26.2726047,3.75219773 C26.961907,4.44899318 26.961907,5.57908409 26.2726047,6.275175 Z M20.8063256,5.80735682 L18.506093,8.13024318 L19.6942326,9.32937955 L21.9944651,7.00719773 L22.9042326,7.925925 L20.604,10.2488114 L21.949814,11.6064705 L24.2493488,9.28428864 L25.1584186,10.2023114 L21.7837674,13.6109023 L16.521907,8.29651591 L19.8965581,4.88862955 L20.8063256,5.80735682 Z M16.6342326,10.0212432 L14.334,12.3441295 L15.5214419,13.5432659 L17.8216744,11.2210841 L18.7307442,12.1391068 L16.4312093,14.4619932 L17.7763256,15.8210614 L20.0765581,13.498175 L20.9863256,14.4169023 L17.6109767,17.8247886 L12.3491163,12.5111068 L15.7244651,9.10322045 L16.6342326,10.0212432 Z M15.7928372,19.6608341 L12.2521395,19.000675 L12.0644651,19.1909023 L14.1616744,21.3087659 L13.0872558,22.3937659 L7.82469767,17.0800841 L9.49283721,15.3948114 C10.3426047,14.5373795 11.8530698,13.8920159 12.9965581,15.0453568 C13.8156279,15.8731977 13.7109767,16.8898568 13.3202791,17.6796523 C14.4400465,17.8698795 16.2958605,18.1657886 17.1456279,18.2947205 L15.7928372,19.6608341 Z M7.81144186,18.930925 L5.96888372,20.790925 L7.29306977,22.1267432 L9.13493023,20.2667432 L10.044,21.1854705 L8.20283721,23.0454705 L10.3216744,25.1858795 L9.24725581,26.2715841 L3.98539535,20.9579023 L6.90097674,18.0121977 L7.81144186,18.930925 Z M26.571907,1.34969773 L19.1409767,0.332334091 C18.3853953,0.229470455 17.6256279,0.488038636 17.0863256,1.03265227 L0.714697674,17.5648114 C-0.238325581,18.5286295 -0.238325581,20.0891977 0.714697674,21.0530159 L9.15306977,29.5730841 C10.106093,30.5361977 11.6528372,30.5361977 12.6058605,29.5730841 L28.9774884,13.040925 C29.516093,12.4963114 29.7735349,11.7283568 29.6709767,10.9653341 L28.6635349,3.46262955 C28.5156279,2.36283409 27.6595814,1.49906136 26.571907,1.34969773 Z" id="Fill-3" fill="#AFF0FC" mask="url(#mask-2)"></path>
            </g>
        </g>
    </g>
</svg>