<?xml version="1.0" encoding="UTF-8"?>
<svg width="32px" height="32px" viewBox="0 0 32 32" version="1.1" xmlns="http://www.w3.org/2000/svg" xmlns:xlink="http://www.w3.org/1999/xlink">
    <!-- Generator: Sketch 52.3 (67297) - http://www.bohemiancoding.com/sketch -->
    <title>mvp/icons/fun2-32</title>
    <desc>Created with Sketch.</desc>
    <defs>
        <polygon id="path-1" points="0 0.0002 31.9998 0.0002 31.9998 32 0 32"></polygon>
    </defs>
    <g id="mvp/icons/fun2-32" stroke="none" stroke-width="1" fill="none" fill-rule="evenodd">
        <g id="Group-8">
            <g id="Group-3">
                <mask id="mask-2" fill="white">
                    <use xlink:href="#path-1"></use>
                </mask>
                <g id="Clip-2"></g>
                <path d="M31.9998,16.0002 C31.9998,24.8362 24.8368,32.0002 15.9998,32.0002 C7.1638,32.0002 -0.0002,24.8362 -0.0002,16.0002 C-0.0002,7.1632 7.1638,0.0002 15.9998,0.0002 C24.8368,0.0002 31.9998,7.1632 31.9998,16.0002" id="Fill-1" fill="#FD6F77" mask="url(#mask-2)"></path>
            </g>
            <g id="Group" transform="translate(6.502334, 5.696765)" fill="#F4F2BA">
                <path d="M18.2383676,7.70498136 C18.1823314,7.52737501 18.1196468,7.35356773 18.0474645,7.18355951 C17.760635,6.50447641 17.345587,5.8937765 16.8317633,5.38090255 C16.7035448,5.25173429 16.5686779,5.13016417 16.4290623,5.01429265 C16.1488811,4.78349937 15.8459056,4.57834979 15.5248845,4.40359274 C15.022458,4.13005996 14.4734929,3.93440805 13.8941353,3.82328536 C14.3842148,4.82149003 14.6672453,5.93841553 14.6672453,7.12372422 C14.6672453,9.06884617 13.9349752,11.3777287 12.7078768,13.3000563 C11.9651593,14.4635203 11.1094197,15.3733967 10.1938447,16.0087906 L10.1928949,16.0087906 C10.4198891,16.2025429 10.6506824,16.3829986 10.8938226,16.5311622 C11.0609816,16.6327872 11.2328893,16.7239648 11.4076464,16.8008959 C11.7581102,16.9566576 12.1209211,17.0592324 12.4922798,17.097223 L12.1304187,17.7231192 L12.6375941,17.7231192 C12.6394936,17.793402 12.6442424,17.8864791 12.6508908,17.9976018 C12.6556396,18.0811812 12.6613382,18.1761579 12.6679866,18.281582 C12.6803336,18.4895809 12.6983791,18.7365202 12.7221233,19.0119525 C12.7335205,19.1496686 12.747767,19.2940331 12.7610637,19.4440963 C12.7819586,19.644497 12.8038032,19.8553452 12.8303967,20.0728417 C12.8807343,20.5068851 12.9453185,20.9713209 13.0241491,21.4376563 C13.0640393,21.6703491 13.1077285,21.9049415 13.1552169,22.1366845 C13.232148,22.508993 13.3261749,22.8661052 13.4277999,23.21277 C13.5465207,23.180478 13.6671411,23.155784 13.7849121,23.1206427 C13.7155791,22.8746531 13.6500453,22.6210655 13.59021,22.3560806 C13.4562929,21.7453807 13.3480195,21.0966901 13.2625405,20.4660451 C13.2330977,20.2551969 13.207454,20.047198 13.1846596,19.8420485 C13.1580662,19.6207528 13.1371713,19.4042061 13.1162764,19.1952574 C13.089683,18.9141265 13.0687881,18.6472421 13.0507425,18.399353 C13.0336467,18.151464 13.02035,17.92352 13.0118021,17.7231192 L13.5094798,17.7231192 L13.1485685,17.097223 C13.5199272,17.0592324 13.8827381,16.9566576 14.2332019,16.8008959 C14.7574731,16.5691528 15.2532512,16.2177392 15.7081894,15.7827461 C16.1621779,15.347753 16.5762761,14.8291805 16.9381371,14.2621698 C17.1793779,13.8851125 17.3959246,13.4862105 17.5868277,13.0768611 C17.8736572,12.4633119 18.0997017,11.8250688 18.2554634,11.1991726 C18.3580382,10.7812753 18.4292707,10.3700264 18.4653618,9.97302395 C18.4843571,9.7754725 18.4938548,9.58077035 18.4938548,9.3917668 C18.4938548,8.80386129 18.4045767,8.23875018 18.2383676,7.70498136" id="Fill-4"></path>
                <path d="M13.3086042,9.96257652 C13.370339,9.7669246 13.4282748,9.57032292 13.4795622,9.37562077 C13.5802374,8.98621648 13.659068,8.59871171 13.712255,8.22165438 C13.7644921,7.84459705 13.7929851,7.47608762 13.7929851,7.12372422 C13.7929851,6.81220078 13.7711405,6.50542617 13.728401,6.2062497 C13.6030318,5.30777052 13.2943577,4.4672271 12.8479674,3.72071057 C12.670361,3.42248386 12.4747091,3.13755389 12.2543633,2.87256901 C11.034863,1.40992848 9.20086372,0.478207472 7.14746838,0.478207472 C3.47662056,0.478207472 0.501951636,3.45287639 0.501951636,7.12372422 C0.501951636,10.6635043 3.27337051,15.7903442 6.76376268,16.1484062 L6.34016679,16.8825758 L6.92332347,16.8825758 C6.85589004,18.4117 6.58615633,21.2534016 5.98400432,23.3191439 C6.12741908,23.3533355 6.266085,23.3989243 6.40949975,23.4293168 C6.9907569,21.4784963 7.22819854,19.001505 7.3174766,17.6613844 C7.34122076,17.3166191 7.35451749,17.0468854 7.36211563,16.8825758 L7.95476997,16.8825758 L7.53117408,16.1484062 C7.95192067,16.1056667 8.36221983,15.9897952 8.75922226,15.8188372 C9.0308555,15.7010662 9.29394085,15.5529026 9.55227736,15.3838441 C11.2571084,14.2688182 12.6219229,12.1166471 13.3086042,9.96257652" id="Fill-6"></path>
            </g>
        </g>
    </g>
</svg>