<?xml version="1.0" encoding="UTF-8"?>
<svg width="100px" height="100px" viewBox="0 0 100 100" version="1.1" xmlns="http://www.w3.org/2000/svg" xmlns:xlink="http://www.w3.org/1999/xlink">
    <!-- Generator: Sketch 52.5 (67469) - http://www.bohemiancoding.com/sketch -->
    <title>illustrations/get-care</title>
    <desc>Created with Sketch.</desc>
    <defs>
        <polygon id="path-1" points="0 0.12165 62.7955 0.12165 62.7955 41.5 0 41.5"></polygon>
    </defs>
    <g id="illustrations/get-care" stroke="none" stroke-width="1" fill="none" fill-rule="evenodd">
        <g id="illustrations/organic-circle/purple" transform="translate(47.000000, 48.000000)" fill="#AFF0FC">
            <path d="M7.63871436,41.4794969 C-1.65872854,30.4389924 -3.14242015,15.8081324 6.94712777,6.26439597 C17.0366757,-3.27934046 35.2059794,-1.42366495 45.6761345,8.48008905 C56.1462896,18.3838431 54.957334,32.5899345 44.8677861,42.1336709 C34.7782382,51.6774073 16.9361573,52.5200013 7.63871436,41.4794969 Z" id="Oval-3"></path>
        </g>
        <g id="illustrations/organic-circle/purple" transform="translate(0.000000, 8.000000)" fill="#F5F400">
            <path d="M21,40.8856356 C32.6125768,42.2169088 42,31.7141366 42,20.4005193 C42,9.08690193 34.341341,0 22.7448516,0 C11.1483621,1.38247998e-15 0,9.08690193 0,20.4005193 C0,31.7141366 9.38742322,39.5543623 21,40.8856356 Z" id="Oval-3"></path>
        </g>
        <g id="illustrations/organic-circle/purple" transform="translate(4.000000, 2.000000)" fill="#FD6F77">
            <path d="M45.5,89.7489562 C70.660583,92.6712633 91,69.6163974 91,44.7816277 C91,19.9468579 74.4062389,0 49.2805118,0 C24.1547846,3.03471216e-15 0,19.9468579 0,44.7816277 C0,69.6163974 20.339417,86.826649 45.5,89.7489562 Z" id="Oval-3" style="mix-blend-mode: multiply;"></path>
        </g>
        <g id="Group-12" transform="translate(19.000000, 26.000000)">
            <path d="M1.49985,17.7035 L3.00035,17.7035 L1.49985,17.7035 Z" id="Fill-1" fill="#CCCCCC"></path>
            <g id="Group-11" transform="translate(0.000000, 0.378400)">
                <g id="Group-4">
                    <mask id="mask-2" fill="white">
                        <use xlink:href="#path-1"></use>
                    </mask>
                    <g id="Clip-3"></g>
                    <path d="M1.5,17.32515 L3,17.32515 L1.5,17.32515 Z M24.4175,20.81065 C24.4175,11.05665 32.3525,3.12165 42.1065,3.12165 C51.8605,3.12165 59.7955,11.05665 59.7955,20.81065 C59.7955,30.56465 51.8605,38.50015 42.1065,38.50015 C32.3525,38.50015 24.4175,30.56465 24.4175,20.81065 Z M19.655,23.45265 C20.2665,23.45265 20.916,23.44265 21.5885,23.42315 C21.744,24.65365 22.0035,25.85265 22.366,27.00665 C21.503,27.03865 20.601,27.05665 19.655,27.05665 C8.8535,27.05665 3.481,24.82715 3,23.86915 L3,20.84515 C7.1215,22.83265 14.5985,23.45265 19.655,23.45265 Z M19.655,7.95615 C21.908,7.95615 23.9235,8.05365 25.709,8.21615 C24.3425,9.99165 23.2585,11.99415 22.522,14.15665 C21.6125,14.19165 20.657,14.21115 19.655,14.21115 C9.074,14.21115 3.7,12.07115 3.033,11.08415 C3.7,10.09615 9.074,7.95615 19.655,7.95615 Z M3,17.26565 L3,14.60415 C7.1215,16.59115 14.5985,17.21115 19.655,17.21115 C20.314,17.21115 21.015,17.20065 21.7435,17.17765 C21.5545,18.23715 21.4475,19.32315 21.427,20.43115 C20.8525,20.44465 20.2635,20.45265 19.655,20.45265 C8.854,20.45265 3.481,18.22315 3,17.26565 Z M3,30.48215 L3,27.44915 C7.1215,29.43665 14.5985,30.05665 19.655,30.05665 C20.8435,30.05665 22.167,30.02165 23.5485,29.94315 C24.1555,31.17115 24.8805,32.32915 25.709,33.40515 C23.923,33.56715 21.9085,33.66565 19.655,33.66565 C8.873,33.66565 3.4975,31.44265 3,30.48215 Z M42.1065,0.12165 C36.7615,0.12165 31.884,2.15915 28.2085,5.49815 C25.72,5.17115 23.1615,5.01265 20.932,4.96915 C20.863,4.96815 20.7955,4.96715 20.7265,4.96615 C20.5825,4.96365 20.4375,4.96065 20.2965,4.95965 C20.078,4.95765 19.864,4.95615 19.655,4.95615 C19.446,4.95615 19.2315,4.95765 19.013,4.95965 C18.8725,4.96065 18.7285,4.96365 18.585,4.96565 C18.515,4.96715 18.4475,4.96815 18.377,4.96915 C11.732,5.09915 2.142,6.25265 0.309,9.82015 C0.1165,10.07265 0,10.38615 0,10.72815 L0,30.53765 C0,35.37515 12.3545,36.66565 19.655,36.66565 C22.148,36.66565 25.23,36.51465 28.2085,36.12415 C31.884,39.46265 36.7615,41.50015 42.1065,41.50015 C53.514,41.50015 62.7955,32.21865 62.7955,20.81065 C62.7955,9.40265 53.514,0.12165 42.1065,0.12165 Z" id="Fill-2" fill="#FFFFFF" mask="url(#mask-2)"></path>
                </g>
                <path d="M28.51465,22.2802 C29.29415,22.2802 29.92515,21.6487 29.92515,20.8697 C29.92515,19.6632 30.10265,18.4857 30.43015,17.3627 C31.48265,13.5097 34.64215,11.0262 35.65865,10.3727 C36.31365,9.9512 36.50315,9.0782 36.08165,8.4232 C35.66015,7.7687 34.78715,7.5787 34.13215,8.0002 C29.73165,10.8322 27.10415,15.6432 27.10415,20.8697 C27.10415,21.6487 27.73515,22.2802 28.51465,22.2802" id="Fill-5" fill="#FFFFFF"></path>
                <path d="M38.4751,8.9604 C38.6066,8.9604 38.7406,8.9414 38.8731,8.9024 C40.0116,8.5684 41.1966,8.3984 42.3966,8.3984 C43.1756,8.3984 43.8071,7.7669 43.8071,6.9879 C43.8071,6.2089 43.1756,5.5774 42.3966,5.5774 C40.9276,5.5774 39.4746,5.7854 38.0781,6.1964 C37.3306,6.4159 36.9026,7.1999 37.1226,7.9469 C37.3031,8.5619 37.8656,8.9604 38.4751,8.9604" id="Fill-7" fill="#FFFFFF"></path>
                <path d="M38.4341,15.61615 L38.4341,19.11165 C39.0696,18.84315 39.9741,18.47665 40.6826,18.13415 L40.6826,29.94065 L44.5936,29.94065 L44.5936,13.70965 L42.0276,13.70965 C40.8296,14.39415 39.5091,15.07865 38.4341,15.61615" id="Fill-9" fill="#FFFFFF"></path>
            </g>
        </g>
    </g>
</svg>