<?xml version="1.0" encoding="UTF-8"?>
<svg width="100px" height="100px" viewBox="0 0 100 100" version="1.1" xmlns="http://www.w3.org/2000/svg" xmlns:xlink="http://www.w3.org/1999/xlink">
    <!-- Generator: Sketch 52.5 (67469) - http://www.bohemiancoding.com/sketch -->
    <title>illustrations/give-care</title>
    <desc>Created with Sketch.</desc>
    <defs>
        <polygon id="path-1" points="0 0.2046 46.8238 0.2046 46.8238 46 0 46"></polygon>
    </defs>
    <g id="illustrations/give-care" stroke="none" stroke-width="1" fill="none" fill-rule="evenodd">
        <g id="illustrations/organic-circle/purple" transform="translate(0.000000, 35.000000)" fill="#AFF0FC">
            <path d="M8.93585453,49.8680594 C-1.94039942,36.5947901 -3.67603867,19.0050735 8.12682871,7.53126952 C19.9296961,-3.94253444 41.1843532,-1.71157834 53.4324592,10.195051 C65.6805651,22.1016803 64.2897115,39.1807257 52.4868441,50.6545296 C40.6839767,62.1283336 19.8121085,63.1413287 8.93585453,49.8680594 Z" id="Oval-3"></path>
        </g>
        <g id="illustrations/organic-circle/purple" transform="translate(57.000000, 0.000000)" fill="#F5F400">
            <path d="M20.5,39.888425 C31.8360869,41.1872281 41,30.9406211 41,19.9029456 C41,8.86527018 33.5236901,0 22.2033075,0 C10.8829249,1.34876096e-15 0,8.86527018 0,19.9029456 C0,30.9406211 9.16391314,38.5896218 20.5,39.888425 Z" id="Oval-3"></path>
        </g>
        <g id="illustrations/organic-circle/purple" transform="translate(7.000000, 4.000000)" fill="#64426B">
            <path d="M44,85.7601137 C68.3311133,88.5525405 88,66.5223353 88,42.7913331 C88,19.0603309 71.953286,0 47.6558795,0 C23.3584731,2.89983606e-15 0,19.0603309 0,42.7913331 C0,66.5223353 19.6688867,82.9676868 44,85.7601137 Z" id="Oval-3" style="mix-blend-mode: multiply;"></path>
        </g>
        <g id="Group-6" transform="translate(27.000000, 27.000000)">
            <g id="Group-3" transform="translate(0.000000, 0.295400)">
                <mask id="mask-2" fill="white">
                    <use xlink:href="#path-1"></use>
                </mask>
                <g id="Clip-2"></g>
                <path d="M25.0043,35.0181 L25.0043,34.4196 L25.0043,4.4101 L38.1403,11.3956 L38.1403,42.0036 L25.0043,35.0181 Z M3.8953,10.6816 C4.4438,9.6036 5.4953,8.2036 7.3903,7.6536 C8.4283,7.3521 9.4018,7.2026 10.2838,7.2026 C11.5453,7.2026 12.6198,7.5086 13.4273,8.1146 C14.4608,8.8911 15.0073,10.1556 15.0073,11.7721 C15.0073,12.6006 15.6788,13.2721 16.5073,13.2721 C16.5173,13.2721 16.5278,13.2721 16.5383,13.2716 C17.3708,13.3081 18.0693,12.6106 18.0693,11.7721 C18.0693,10.1556 18.6158,8.8911 19.6493,8.1146 C20.2813,7.6401 21.0828,7.3591 22.0043,7.2551 L22.0043,26.2556 C21.7148,26.4681 21.4193,26.6831 21.1128,26.9026 C18.6633,28.6546 17.2923,29.6436 16.5378,30.1916 C15.7843,29.6436 14.4128,28.6546 11.9633,26.9026 C7.5418,23.7386 4.8848,21.3021 3.5078,17.4941 C2.7188,15.3126 2.8673,12.7016 3.8953,10.6816 Z M43.8238,34.4196 L41.1403,34.4196 L41.1403,10.4941 C41.1403,9.9396 40.8343,9.4301 40.3448,9.1701 L29.1268,3.2046 L43.8238,3.2046 L43.8238,34.4196 Z M45.3238,0.2046 L23.5043,0.2046 C22.6758,0.2046 22.0043,0.8761 22.0043,1.7046 L22.0043,1.9136 L22.0043,4.2401 C20.4103,4.3626 18.9938,4.8556 17.8478,5.7161 C17.3473,6.0921 16.9093,6.5311 16.5383,7.0246 C16.1673,6.5311 15.7293,6.0921 15.2283,5.7161 C13.0853,4.1066 10.0053,3.7716 6.5548,4.7726 C4.2708,5.4351 2.3768,7.0501 1.2218,9.3206 C-0.1912,12.0971 -0.3912,15.5341 0.6863,18.5146 C2.3298,23.0596 5.3043,25.8266 10.2183,29.3416 C14.8088,32.6266 15.5718,33.2006 15.6003,33.2226 C15.8713,33.4286 16.1923,33.5321 16.5123,33.5321 C16.5623,33.5321 16.6123,33.5296 16.6623,33.5246 C16.9498,33.5071 17.2328,33.4061 17.4743,33.2236 C17.5028,33.2021 18.1728,32.6981 22.0043,29.9536 L22.0043,35.9196 C22.0043,36.0101 22.0153,36.0986 22.0313,36.1861 C22.0358,36.2111 22.0408,36.2351 22.0463,36.2586 C22.0638,36.3331 22.0858,36.4051 22.1138,36.4751 C22.1183,36.4871 22.1208,36.4986 22.1258,36.5096 C22.1593,36.5871 22.2003,36.6601 22.2453,36.7306 C22.2593,36.7511 22.2733,36.7711 22.2878,36.7911 C22.3273,36.8461 22.3703,36.8986 22.4173,36.9481 C22.4308,36.9621 22.4423,36.9766 22.4558,36.9901 C22.5148,37.0481 22.5793,37.1011 22.6483,37.1491 C22.6683,37.1626 22.6888,37.1741 22.7093,37.1871 C22.7398,37.2061 22.7683,37.2266 22.8003,37.2436 L38.9363,45.8241 C39.1568,45.9421 39.3988,46.0001 39.6403,46.0001 C39.9083,46.0001 40.1758,45.9281 40.4128,45.7856 C40.8648,45.5146 41.1403,45.0266 41.1403,44.5001 L41.1403,37.4196 L45.3238,37.4196 C46.1523,37.4196 46.8238,36.7481 46.8238,35.9196 L46.8238,1.7046 C46.8238,0.8761 46.1523,0.2046 45.3238,0.2046 Z" id="Fill-1" fill="#FFFFFF" mask="url(#mask-2)"></path>
            </g>
            <path d="M35.4872,29.3091 C36.2397,29.1436 36.6367,28.2556 36.3737,27.3256 C36.1112,26.3961 35.2892,25.7771 34.5367,25.9431 C33.7842,26.1091 33.3872,26.9971 33.6497,27.9266 C33.9127,28.8561 34.7347,29.4751 35.4872,29.3091" id="Fill-4" fill="#FFFFFF"></path>
        </g>
    </g>
</svg>