<?xml version="1.0" encoding="UTF-8"?>
<svg width="570px" height="202px" viewBox="0 0 570 202" version="1.1" xmlns="http://www.w3.org/2000/svg" xmlns:xlink="http://www.w3.org/1999/xlink">
    <!-- Generator: Sketch 52.4 (67378) - http://www.bohemiancoding.com/sketch -->
    <title>illustrations/organic group/group 5</title>
    <desc>Created with Sketch.</desc>
    <g id="illustrations/organic-group/group-5" stroke="none" stroke-width="1" fill="none" fill-rule="evenodd">
        <g id="Group">
            <path d="M162.573813,138.591255 C179.59665,142.067261 197,122.726355 197,105.134121 C197,87.5418865 180.138041,70.7345753 162.491601,75.9725139 C144.845162,81.2104525 136.417368,86.6302473 133.387759,105.134121 C130.358149,123.637994 145.550976,135.115248 162.573813,138.591255 Z" id="Oval-6" fill="#64426B" style="mix-blend-mode: multiply;" transform="translate(165.000000, 107.000000) rotate(28.000000) translate(-165.000000, -107.000000) "></path>
            <path d="M539.945724,82.7381474 C550.850979,84.9649643 562,72.5746963 562,61.3046712 C562,50.034646 551.197808,39.2674623 539.893057,42.6230167 C528.588307,45.9785711 523.189251,49.4506272 521.248408,61.3046712 C519.307564,73.1587151 529.040469,80.5113306 539.945724,82.7381474 Z" id="Oval-6" fill="#64426B" style="mix-blend-mode: multiply;" transform="translate(541.500000, 62.500000) rotate(28.000000) translate(-541.500000, -62.500000) "></path>
            <path d="M207.718269,87.6998276 C220.219415,90.25252 233,76.0490421 233,63.129745 C233,50.2104479 220.616999,37.8675787 207.657895,41.7141899 C194.698791,45.560801 188.50963,49.5409629 186.28476,63.129745 C184.059891,76.7185271 195.217123,85.1471351 207.718269,87.6998276 Z" id="Oval-6" fill="#FD6F77" style="mix-blend-mode: multiply;" transform="translate(209.500000, 64.500000) rotate(28.000000) translate(-209.500000, -64.500000) "></path>
            <path d="M97.5123557,125.412428 C121.982684,130.409188 147,102.606636 147,77.3177987 C147,52.0289618 122.760934,27.868452 97.3941771,35.3979887 C72.02742,42.9275254 59.9124666,50.7184805 55.557403,77.3177987 C51.2023394,103.917117 73.0420273,120.415669 97.5123557,125.412428 Z" id="Oval-6" fill="#E82D55" style="mix-blend-mode: multiply;" transform="translate(101.000000, 80.000000) rotate(28.000000) translate(-101.000000, -80.000000) "></path>
            <path d="M222.63527,128.770081 C232.210616,130.725334 242,119.846075 242,109.950443 C242,100.054811 232.515148,90.6006986 222.589026,93.5470391 C212.662903,96.4933795 207.92227,99.5420141 206.218114,109.950443 C204.513959,120.358872 213.059924,126.814827 222.63527,128.770081 Z" id="Oval-6" fill="#FB7242" style="mix-blend-mode: multiply;" transform="translate(224.000000, 111.000000) rotate(28.000000) translate(-224.000000, -111.000000) "></path>
            <path d="M540.855544,106.891427 C545.377235,107.814741 550,102.677313 550,98.0043758 C550,93.3314386 545.521042,88.8669966 540.833707,90.258324 C536.146371,91.6496514 533.907738,93.0892844 533.102998,98.0043758 C532.298258,102.919467 536.333853,105.968113 540.855544,106.891427 Z" id="Oval-6" fill="#FB7242" style="mix-blend-mode: multiply;" transform="translate(541.500000, 98.500000) rotate(28.000000) translate(-541.500000, -98.500000) "></path>
            <path d="M176.938543,70.8211739 C184.386034,72.3419268 192,63.8802804 192,56.1836779 C192,48.4870753 184.622893,41.1338767 176.902576,43.4254748 C169.182258,45.717073 165.495099,48.0882332 164.169644,56.1836779 C162.84419,64.2791225 169.491052,69.3004209 176.938543,70.8211739 Z" id="Oval-6" fill="#F5F400" style="mix-blend-mode: multiply;" transform="translate(178.000000, 57.000000) rotate(28.000000) translate(-178.000000, -57.000000) "></path>
            <path d="M38.4692715,113.910587 C42.1930171,114.670963 46,110.44014 46,106.591839 C46,102.743538 42.3114465,99.0669383 38.4512878,100.212737 C34.5911291,101.358536 32.7475493,102.544117 32.0848222,106.591839 C31.4220951,110.639561 34.7455259,113.15021 38.4692715,113.910587 Z" id="Oval-6" fill="#F5F400" style="mix-blend-mode: multiply;" transform="translate(39.000000, 107.000000) rotate(28.000000) translate(-39.000000, -107.000000) "></path>
            <path d="M27.4078146,83.7317608 C38.5790514,86.0128902 50,73.3204206 50,61.7755168 C50,50.230613 38.9343395,39.200815 27.3538635,42.6382122 C15.7733874,46.0756094 10.2426478,49.6323498 8.25446659,61.7755168 C6.26628538,73.9186838 16.2365777,81.4506314 27.4078146,83.7317608 Z" id="Oval-6" fill="#1F88E9" style="mix-blend-mode: multiply;" transform="translate(29.000000, 63.000000) rotate(28.000000) translate(-29.000000, -63.000000) "></path>
            <path d="M302.646749,172.833098 C343.652435,181.216866 376,143.111015 376,100.680371 C376,58.2497284 335.381848,17.7122383 292.87399,30.3456025 C250.366131,42.9789667 230.064729,56.0509493 222.766814,100.680371 C215.4689,145.309794 261.641064,164.449331 302.646749,172.833098 Z" id="Oval-6" fill="#AFF0FC" style="mix-blend-mode: multiply;" transform="translate(299.000000, 101.000000) rotate(28.000000) translate(-299.000000, -101.000000) "></path>
            <path d="M413.602535,148.259149 C444.456428,154.559411 476,119.504019 476,87.618094 C476,55.7321693 445.4377,25.2689177 413.453528,34.7626814 C381.469356,44.2564451 366.19398,54.0798233 360.702812,87.618094 C355.211645,121.156365 382.748643,141.958887 413.602535,148.259149 Z" id="Oval-6" fill="#0CBA52" style="mix-blend-mode: multiply;" transform="translate(418.000000, 91.000000) rotate(28.000000) translate(-418.000000, -91.000000) "></path>
            <path d="M372.331996,172.718987 C384.035197,175.108742 396,161.811869 396,149.717208 C396,137.622547 384.407403,126.067521 372.275476,129.668603 C360.143549,133.269686 354.349441,136.995795 352.266584,149.717208 C350.183728,162.438621 360.628796,170.329233 372.331996,172.718987 Z" id="Oval-6" fill="#E82D55" style="mix-blend-mode: multiply;" transform="translate(374.000000, 151.000000) rotate(28.000000) translate(-374.000000, -151.000000) "></path>
            <path d="M477.818977,100.648504 C480.25906,99.1273781 526.348865,100.483272 528.435228,102.635432 C530.521591,104.787592 530.521591,144.572662 528.435228,146.373601 C526.348865,148.174541 477.560586,148.881133 475.802857,146.373601 C474.045127,143.866069 475.378894,102.169629 477.818977,100.648504 Z" id="Path-2" fill="#F5F200" style="mix-blend-mode: multiply;"></path>
            <path d="M472.306436,50.5269091 C474.302868,49.2909947 512.012708,50.3926586 513.719732,52.1412886 C515.426756,53.8899187 515.426756,86.2152876 513.719732,87.6785509 C512.012708,89.1418142 472.095025,89.7159207 470.656883,87.6785509 C469.218741,85.641181 470.310005,51.7628236 472.306436,50.5269091 Z" id="Path-2" fill="#FD6F77" style="mix-blend-mode: multiply;" transform="translate(492.500000, 69.500000) rotate(-45.000000) translate(-492.500000, -69.500000) "></path>
            <path d="M104.076337,112.256699 C105.008005,111.654587 122.60593,112.191295 123.402542,113.043192 C124.199153,113.895089 124.199153,129.643345 123.402542,130.356217 C122.60593,131.069089 103.977678,131.348782 103.306545,130.356217 C102.635412,129.363652 103.144669,112.858811 104.076337,112.256699 Z" id="Path-2" fill="#FD6F77" style="mix-blend-mode: multiply;" transform="translate(113.500000, 121.500000) rotate(-45.000000) translate(-113.500000, -121.500000) "></path>
            <path d="M394,122 C402.836556,122 410,113.44716 410,104.733967 C410,96.0207746 403.201342,88.8737299 394,90.1476515 C384.798658,91.4215731 378,96.0207746 378,104.733967 C378,113.44716 385.163444,122 394,122 Z" id="Oval-3" fill="#FFFFFF"></path>
            <path d="M77,103 C83.0751322,103 88,97.3871985 88,91.6691659 C88,85.9511333 83.3259228,81.2608853 77,82.0968963 C70.6740772,82.9329073 66,85.9511333 66,91.6691659 C66,97.3871985 70.9248678,103 77,103 Z" id="Oval-3" fill="#FFFFFF"></path>
            <path d="M492.5,121 C496.089851,121 499,117.792685 499,114.525238 C499,111.25779 496.238045,108.577649 492.5,109.055369 C488.761955,109.53309 486,111.25779 486,114.525238 C486,117.792685 488.910149,121 492.5,121 Z" id="Oval-3" fill="#FFFFFF"></path>
        </g>
    </g>
</svg>