<?xml version="1.0" encoding="UTF-8"?>
<svg width="100px" height="100px" viewBox="0 0 100 100" version="1.1" xmlns="http://www.w3.org/2000/svg" xmlns:xlink="http://www.w3.org/1999/xlink">
    <!-- Generator: Sketch 52.5 (67469) - http://www.bohemiancoding.com/sketch -->
    <title>illustrations/house-rules</title>
    <desc>Created with Sketch.</desc>
    <g id="illustrations/house-rules" stroke="none" stroke-width="1" fill="none" fill-rule="evenodd">
        <g id="illustrations/organic-circle/purple" transform="translate(37.000000, 38.000000)" fill="#AFF0FC">
            <path d="M9.07998122,49.8548218 C-1.97169619,36.5850759 -3.73532961,19.0000285 8.25790659,7.52927032 C20.2511428,-3.94148788 41.848617,-1.711124 54.294273,10.1923447 C66.7399291,22.0958133 65.3266423,39.1703251 53.3334061,50.6410833 C41.3401699,62.1118415 20.1316586,63.1245677 9.07998122,49.8548218 Z" id="Oval-3"></path>
        </g>
        <g id="illustrations/organic-circle/purple" transform="translate(0.000000, 8.000000)" fill="#F5F400">
            <path d="M21,40.8856356 C32.6125768,42.2169088 42,31.7141366 42,20.4005193 C42,9.08690193 34.341341,0 22.7448516,0 C11.1483621,1.38247998e-15 0,9.08690193 0,20.4005193 C0,31.7141366 9.38742322,39.5543623 21,40.8856356 Z" id="Oval-3"></path>
        </g>
        <g id="illustrations/organic-circle/purple" transform="translate(4.000000, 2.000000)" fill="#FD6F77">
            <path d="M45.5,89.7489562 C70.660583,92.6712633 91,69.6163974 91,44.7816277 C91,19.9468579 74.4062389,0 49.2805118,0 C24.1547846,3.03471216e-15 0,19.9468579 0,44.7816277 C0,69.6163974 20.339417,86.826649 45.5,89.7489562 Z" id="Oval-3" style="mix-blend-mode: multiply;"></path>
        </g>
        <g id="Group-4" transform="translate(24.000000, 23.000000)" fill="#FFFFFF">
            <polygon id="Fill-4" points="6.41025641 21.2485596 6.41025641 45 21.3417253 45 21.3417253 32.3629184 28.9177268 32.3629184 28.9177268 45 43.5897436 45 43.5897436 21.2485596 25 6.42857143"></polygon>
            <path d="M49.5266895,19.6145922 L25.001288,0 L0.473310475,19.6145922 C-0.0779379166,20.0555111 -0.160367583,20.8516847 0.29299558,21.393385 C0.746358743,21.9350854 1.55777577,22.013191 2.11160009,21.5697526 L25.001288,3.26783893 L47.8883999,21.5697526 C48.1279611,21.7662764 48.4190409,21.8569798 48.7075447,21.8569798 C49.0810541,21.8569798 49.4545636,21.698249 49.7070044,21.393385 C50.1603676,20.8516847 50.0779379,20.0555111 49.5266895,19.6145922" id="Fill-6"></path>
        </g>
    </g>
</svg>