<?xml version="1.0" encoding="UTF-8"?>
<svg width="207px" height="46px" viewBox="0 0 207 46" version="1.1" xmlns="http://www.w3.org/2000/svg" xmlns:xlink="http://www.w3.org/1999/xlink">
    <!-- Generator: Sketch 52.5 (67469) - http://www.bohemiancoding.com/sketch -->
    <title>resources/brand/kidsclub/kc-logo-landscape(reverse)</title>
    <desc>Created with Sketch.</desc>
    <defs>
        <polygon id="path-1" points="0 45 206.323 45 206.323 0.729 0 0.729"></polygon>
    </defs>
    <g id="resources/brand/kidsclub/kc-logo-landscape(reverse)" stroke="none" stroke-width="1" fill="none" fill-rule="evenodd">
        <g id="Group-17">
            <polygon id="Fill-1" fill="#FFFFFF" points="82.9847 12.2175 79.1327 12.2175 66.2967 25.4265 66.2967 12.2175 62.9177 12.2175 62.9177 35.8655 66.2967 35.8655 66.2967 29.7505 70.6207 25.3595 79.6737 35.8655 83.6267 35.8655 72.8827 22.8595"></polygon>
            <polygon id="Fill-2" fill="#FFFFFF" points="85.721 35.8658 88.964 35.8658 88.964 17.9608 85.721 17.9608"></polygon>
            <g id="Group-16" transform="translate(0.000000, 0.270800)">
                <path d="M87.3431,10.021 C86.0931,10.021 85.1471,10.967 85.1471,12.149 C85.1471,13.332 86.0931,14.244 87.3431,14.244 C88.6261,14.244 89.5381,13.298 89.5381,12.082 C89.5381,10.933 88.5921,10.021 87.3431,10.021" id="Fill-3" fill="#FFFFFF"></path>
                <path d="M102.139,32.9594 C98.693,32.9594 96.092,30.4594 96.092,26.6424 C96.092,22.8244 98.693,20.3584 102.139,20.3584 C105.551,20.3584 108.153,22.8244 108.153,26.6424 C108.153,30.4594 105.551,32.9594 102.139,32.9594 Z M108.118,20.3924 C106.632,18.4664 104.403,17.5214 101.868,17.5214 C96.632,17.5214 92.815,21.1694 92.815,26.6424 C92.815,32.1154 96.632,35.7974 101.868,35.7974 C104.503,35.7974 106.801,34.7844 108.253,32.7564 L108.253,35.5944 L111.362,35.5944 L111.362,10.5274 L108.118,10.5274 L108.118,20.3924 Z" id="Fill-5" fill="#FFFFFF"></path>
                <path d="M118.3548,22.7573 C118.3548,21.3383 119.7398,20.2913 122.5778,20.2913 C124.3338,20.2913 126.1248,20.6623 127.7468,21.7103 L129.1308,19.1423 C127.5778,18.1293 124.9428,17.5213 122.6118,17.5213 C118.0168,17.5213 115.1448,19.6833 115.1448,22.8923 C115.1448,30.0203 126.4618,26.5413 126.4618,30.5613 C126.4618,32.0813 125.2118,32.9933 122.2058,32.9933 C119.8748,32.9933 117.4428,32.2163 115.9218,31.1353 L114.5708,33.7033 C116.0568,34.8853 118.9968,35.7973 121.9688,35.7973 C126.7328,35.7973 129.7058,33.7363 129.7058,30.4933 C129.7058,23.5343 118.3548,26.9803 118.3548,22.7573" id="Fill-7" fill="#FFFFFF"></path>
                <path d="M144.2992,14.6831 C146.9012,14.6831 149.1302,15.5611 150.9542,17.4871 L153.1512,15.3591 C150.9882,12.9261 147.8132,11.6761 144.1642,11.6761 C136.9682,11.6761 131.6312,16.7781 131.6312,23.7701 C131.6312,30.7641 136.9682,35.8651 144.1302,35.8651 C147.8132,35.8651 150.9882,34.5811 153.1512,32.1491 L150.9542,30.0201 C149.1302,31.9461 146.9012,32.8581 144.2992,32.8581 C138.9612,32.8581 135.0092,29.0071 135.0092,23.7701 C135.0092,18.5341 138.9612,14.6831 144.2992,14.6831" id="Fill-9" fill="#FFFFFF"></path>
                <mask id="mask-2" fill="white">
                    <use xlink:href="#path-1"></use>
                </mask>
                <g id="Clip-12"></g>
                <polygon id="Fill-11" fill="#FFFFFF" mask="url(#mask-2)" points="156.832 35.595 160.075 35.595 160.075 10.528 156.832 10.528"></polygon>
                <path d="M179.0267,26.9463 C179.0267,30.7973 176.8647,32.8923 173.4867,32.8923 C170.4127,32.8923 168.6557,31.1353 168.6557,27.6223 L168.6557,17.6903 L165.4127,17.6903 L165.4127,27.9933 C165.4127,33.2633 168.4867,35.7973 173.1147,35.7973 C175.6487,35.7973 177.8787,34.7503 179.1957,32.8923 L179.1957,35.5943 L182.2697,35.5943 L182.2697,17.6903 L179.0267,17.6903 L179.0267,26.9463 Z" id="Fill-13" fill="#FFFFFF" mask="url(#mask-2)"></path>
                <path d="M196.9994,32.9594 C193.5874,32.9594 190.9854,30.4594 190.9854,26.6424 C190.9854,22.8244 193.5874,20.3584 196.9994,20.3584 C200.4454,20.3584 203.0464,22.8244 203.0464,26.6424 C203.0464,30.4594 200.4454,32.9594 196.9994,32.9594 M197.2704,17.5214 C194.7354,17.5214 192.5064,18.4664 191.0204,20.3924 L191.0204,10.5274 L187.7764,10.5274 L187.7764,35.5944 L190.8854,35.5944 L190.8854,32.7564 C192.3374,34.7844 194.6354,35.7974 197.2704,35.7974 C202.5064,35.7974 206.3234,32.1154 206.3234,26.6424 C206.3234,21.1694 202.5064,17.5214 197.2704,17.5214" id="Fill-14" fill="#FFFFFF" mask="url(#mask-2)"></path>
                <path d="M28.8246,22.1904 C28.6276,24.2474 27.6696,25.7484 25.9236,27.8274 C24.1786,29.9064 23.9216,30.2304 23.9216,30.2304 C23.9216,30.2304 23.5406,30.0694 21.0096,29.0894 C18.4776,28.1084 16.9156,27.2544 15.7516,25.5464 C14.4806,23.6844 14.6726,21.0654 16.6536,19.8944 C19.0186,18.4964 21.2626,19.8734 21.8156,22.0284 C21.2626,19.8734 22.5646,17.5864 25.3106,17.6714 C27.6106,17.7434 29.0406,19.9464 28.8246,22.1904 Z M43.9906,17.0834 L20.9336,3.4464 L20.9366,3.4414 L16.3516,0.7294 L16.3476,0.7344 L16.3436,0.7314 L13.6316,5.3174 L13.6366,5.3204 L0.0006,28.3774 L4.5866,31.0894 L6.6886,27.5324 L11.1736,45.0004 L42.2076,37.0324 L37.7216,19.5654 L41.2786,21.6684 L43.9906,17.0834 Z" id="Fill-15" fill="#FFFFFF" mask="url(#mask-2)"></path>
            </g>
        </g>
    </g>
</svg>