<?xml version="1.0" encoding="UTF-8"?>
<svg width="144px" height="27px" viewBox="0 0 144 27" version="1.1" xmlns="http://www.w3.org/2000/svg" xmlns:xlink="http://www.w3.org/1999/xlink">
    <!-- Generator: Sketch 52.5 (67469) - http://www.bohemiancoding.com/sketch -->
    <title>resources/brand/kidsclub/kc-logo-text</title>
    <desc>Created with Sketch.</desc>
    <defs>
        <polygon id="path-1" points="0.2298 0.156 4.6208 0.156 4.6208 4.3786 0.2298 4.3786"></polygon>
        <polygon id="path-3" points="0 26 143.406 26 143.406 0.156 0 0.156"></polygon>
    </defs>
    <g id="resources/brand/kidsclub/kc-logo-text" stroke="none" stroke-width="1" fill="none" fill-rule="evenodd">
        <g id="Group-17">
            <polygon id="Fill-1" fill="#000000" points="16.2162 2.9258 3.3782 16.1338 3.3782 2.9258 0.0002 2.9258 0.0002 26.5728 3.3782 26.5728 3.3782 20.4588 7.7032 16.0678 16.7572 26.5728 20.7092 26.5728 9.9652 13.5678 20.0672 2.9258"></polygon>
            <polygon id="Fill-2" fill="#000000" points="22.803 26.5732 26.047 26.5732 26.047 8.6682 22.803 8.6682"></polygon>
            <g id="Group-16" transform="translate(0.000000, 0.844200)">
                <g id="Group-5" transform="translate(22.000000, 0.000000)">
                    <mask id="mask-2" fill="white">
                        <use xlink:href="#path-1"></use>
                    </mask>
                    <g id="Clip-4"></g>
                    <path d="M2.4258,0.1556 C1.1758,0.1556 0.2298,1.1016 0.2298,2.2836 C0.2298,3.4666 1.1758,4.3786 2.4258,4.3786 C3.7088,4.3786 4.6208,3.4326 4.6208,2.2166 C4.6208,1.0676 3.6748,0.1556 2.4258,0.1556" id="Fill-3" fill="#000000" mask="url(#mask-2)"></path>
                </g>
                <path d="M39.2217,23.0941 C35.7757,23.0941 33.1747,20.5941 33.1747,16.7771 C33.1747,12.9591 35.7757,10.4931 39.2217,10.4931 C42.6337,10.4931 45.2357,12.9591 45.2357,16.7771 C45.2357,20.5941 42.6337,23.0941 39.2217,23.0941 Z M45.2007,10.5271 C43.7147,8.6011 41.4857,7.6561 38.9507,7.6561 C33.7147,7.6561 29.8977,11.3041 29.8977,16.7771 C29.8977,22.2501 33.7147,25.9321 38.9507,25.9321 C41.5857,25.9321 43.8837,24.9191 45.3357,22.8911 L45.3357,25.7291 L48.4447,25.7291 L48.4447,0.6621 L45.2007,0.6621 L45.2007,10.5271 Z" id="Fill-6" fill="#000000"></path>
                <path d="M55.4375,12.8919 C55.4375,11.4729 56.8225,10.4259 59.6605,10.4259 C61.4165,10.4259 63.2075,10.7969 64.8295,11.8449 L66.2135,9.2769 C64.6605,8.2639 62.0255,7.6559 59.6945,7.6559 C55.0995,7.6559 52.2275,9.8179 52.2275,13.0269 C52.2275,20.1549 63.5445,16.6759 63.5445,20.6959 C63.5445,22.2159 62.2945,23.1279 59.2885,23.1279 C56.9575,23.1279 54.5255,22.3509 53.0045,21.2699 L51.6535,23.8379 C53.1395,25.0199 56.0795,25.9319 59.0515,25.9319 C63.8155,25.9319 66.7885,23.8709 66.7885,20.6279 C66.7885,13.6689 55.4375,17.1149 55.4375,12.8919" id="Fill-8" fill="#000000"></path>
                <path d="M81.3818,4.8177 C83.9838,4.8177 86.2128,5.6957 88.0368,7.6217 L90.2338,5.4937 C88.0708,3.0607 84.8958,1.8107 81.2468,1.8107 C74.0508,1.8107 68.7138,6.9127 68.7138,13.9047 C68.7138,20.8987 74.0508,25.9997 81.2128,25.9997 C84.8958,25.9997 88.0708,24.7157 90.2338,22.2837 L88.0368,20.1547 C86.2128,22.0807 83.9838,22.9927 81.3818,22.9927 C76.0438,22.9927 72.0918,19.1417 72.0918,13.9047 C72.0918,8.6687 76.0438,4.8177 81.3818,4.8177" id="Fill-10" fill="#000000"></path>
                <mask id="mask-4" fill="white">
                    <use xlink:href="#path-3"></use>
                </mask>
                <g id="Clip-13"></g>
                <polygon id="Fill-12" fill="#000000" mask="url(#mask-4)" points="93.915 25.729 97.158 25.729 97.158 0.662 93.915 0.662"></polygon>
                <path d="M116.1094,17.0809 C116.1094,20.9319 113.9474,23.0269 110.5694,23.0269 C107.4954,23.0269 105.7384,21.2699 105.7384,17.7569 L105.7384,7.8249 L102.4954,7.8249 L102.4954,18.1279 C102.4954,23.3979 105.5694,25.9319 110.1974,25.9319 C112.7314,25.9319 114.9614,24.8849 116.2784,23.0269 L116.2784,25.7289 L119.3524,25.7289 L119.3524,7.8249 L116.1094,7.8249 L116.1094,17.0809 Z" id="Fill-14" fill="#000000" mask="url(#mask-4)"></path>
                <path d="M134.082,23.0941 C130.67,23.0941 128.068,20.5941 128.068,16.7771 C128.068,12.9591 130.67,10.4931 134.082,10.4931 C137.528,10.4931 140.129,12.9591 140.129,16.7771 C140.129,20.5941 137.528,23.0941 134.082,23.0941 M134.353,7.6561 C131.818,7.6561 129.589,8.6011 128.103,10.5271 L128.103,0.6621 L124.859,0.6621 L124.859,25.7291 L127.968,25.7291 L127.968,22.8911 C129.42,24.9191 131.718,25.9321 134.353,25.9321 C139.589,25.9321 143.406,22.2501 143.406,16.7771 C143.406,11.3041 139.589,7.6561 134.353,7.6561" id="Fill-15" fill="#000000" mask="url(#mask-4)"></path>
            </g>
        </g>
    </g>
</svg>