<?xml version="1.0" encoding="UTF-8"?>
<svg width="144px" height="164px" viewBox="0 0 144 164" version="1.1" xmlns="http://www.w3.org/2000/svg" xmlns:xlink="http://www.w3.org/1999/xlink">
    <!-- Generator: Sketch 52.5 (67469) - http://www.bohemiancoding.com/sketch -->
    <title>resources/brand/kidsclub/kc-logo-portrait(reverse)</title>
    <desc>Created with Sketch.</desc>
    <defs>
        <polygon id="path-1" points="0.0997 0.8363 139.406 0.8363 139.406 162 0.0997 162"></polygon>
    </defs>
    <g id="resources/brand/kidsclub/kc-logo-portrait(reverse)" stroke="none" stroke-width="1" fill="none" fill-rule="evenodd">
        <g id="Group-12">
            <polygon id="Fill-1" fill="#FFFFFF" points="16.2162 138.2456 3.3792 151.4536 3.3792 138.2456 0.0002 138.2456 0.0002 161.8926 3.3792 161.8926 3.3792 155.7786 7.7032 151.3876 16.7572 161.8926 20.7092 161.8926 9.9652 148.8876 20.0672 138.2456"></polygon>
            <g id="Group-11" transform="translate(4.000000, 0.164000)">
                <mask id="mask-2" fill="white">
                    <use xlink:href="#path-1"></use>
                </mask>
                <g id="Clip-3"></g>
                <path d="M18.804,161.73 L22.047,161.73 L22.047,143.825 L18.804,143.825 L18.804,161.73 Z M18.23,138.284 C18.23,137.101 19.176,136.156 20.426,136.156 C21.675,136.156 22.621,137.068 22.621,138.217 C22.621,139.432 21.709,140.379 20.426,140.379 C19.176,140.379 18.23,139.466 18.23,138.284 Z" id="Fill-2" fill="#FFFFFF" mask="url(#mask-2)"></path>
                <path d="M41.2356,152.7767 C41.2356,148.9597 38.6336,146.4927 35.2216,146.4927 C31.7756,146.4927 29.1746,148.9597 29.1746,152.7767 C29.1746,156.5947 31.7756,159.0937 35.2216,159.0937 C38.6336,159.0937 41.2356,156.5947 41.2356,152.7767 Z M44.4446,136.6627 L44.4446,161.7297 L41.3366,161.7297 L41.3366,158.8917 C39.8836,160.9187 37.5866,161.9317 34.9516,161.9317 C29.7146,161.9317 25.8976,158.2497 25.8976,152.7767 C25.8976,147.3037 29.7146,143.6557 34.9516,143.6557 C37.4856,143.6557 39.7146,144.6017 41.2016,146.5267 L41.2016,136.6627 L44.4446,136.6627 Z" id="Fill-4" fill="#FFFFFF" mask="url(#mask-2)"></path>
                <path d="M47.6535,159.8377 L49.0055,157.2697 C50.5255,158.3507 52.9575,159.1287 55.2885,159.1287 C58.2955,159.1287 59.5455,158.2157 59.5455,156.6957 C59.5455,152.6757 48.2275,156.1547 48.2275,149.0267 C48.2275,145.8177 51.0995,143.6557 55.6945,143.6557 C58.0255,143.6557 60.6605,144.2637 62.2145,145.2767 L60.8295,147.8447 C59.2075,146.7967 57.4175,146.4257 55.6605,146.4257 C52.8225,146.4257 51.4375,147.4727 51.4375,148.8917 C51.4375,153.1147 62.7885,149.6687 62.7885,156.6287 C62.7885,159.8717 59.8155,161.9317 55.0515,161.9317 C52.0795,161.9317 49.1395,161.0197 47.6535,159.8377" id="Fill-5" fill="#FFFFFF" mask="url(#mask-2)"></path>
                <path d="M64.7141,149.9051 C64.7141,142.9121 70.0511,137.8111 77.2471,137.8111 C80.8961,137.8111 84.0711,139.0611 86.2341,141.4931 L84.0371,143.6221 C82.2131,141.6961 79.9841,140.8181 77.3821,140.8181 C72.0441,140.8181 68.0921,144.6691 68.0921,149.9051 C68.0921,155.1411 72.0441,158.9931 77.3821,158.9931 C79.9841,158.9931 82.2131,158.0811 84.0371,156.1551 L86.2341,158.2831 C84.0711,160.7161 80.8961,162.0001 77.2131,162.0001 C70.0511,162.0001 64.7141,156.8981 64.7141,149.9051" id="Fill-6" fill="#FFFFFF" mask="url(#mask-2)"></path>
                <polygon id="Fill-7" fill="#FFFFFF" mask="url(#mask-2)" points="89.915 161.729 93.158 161.729 93.158 136.662 89.915 136.662"></polygon>
                <path d="M115.3528,143.8246 L115.3528,161.7296 L112.2788,161.7296 L112.2788,159.0266 C110.9608,160.8846 108.7318,161.9316 106.1978,161.9316 C101.5698,161.9316 98.4958,159.3986 98.4958,154.1286 L98.4958,143.8246 L101.7388,143.8246 L101.7388,153.7566 C101.7388,157.2696 103.4958,159.0266 106.5698,159.0266 C109.9478,159.0266 112.1098,156.9316 112.1098,153.0806 L112.1098,143.8246 L115.3528,143.8246 Z" id="Fill-8" fill="#FFFFFF" mask="url(#mask-2)"></path>
                <path d="M136.1291,152.7767 C136.1291,148.9597 133.5281,146.4927 130.0821,146.4927 C126.6701,146.4927 124.0681,148.9597 124.0681,152.7767 C124.0681,156.5947 126.6701,159.0937 130.0821,159.0937 C133.5281,159.0937 136.1291,156.5947 136.1291,152.7767 M139.4061,152.7767 C139.4061,158.2497 135.5891,161.9317 130.3531,161.9317 C127.7181,161.9317 125.4201,160.9187 123.9681,158.8917 L123.9681,161.7297 L120.8591,161.7297 L120.8591,136.6627 L124.1031,136.6627 L124.1031,146.5267 C125.5891,144.6017 127.8181,143.6557 130.3531,143.6557 C135.5891,143.6557 139.4061,147.3037 139.4061,152.7767" id="Fill-9" fill="#FFFFFF" mask="url(#mask-2)"></path>
                <path d="M79.2307,59.7513 C78.6877,65.3983 76.0567,69.5193 71.2647,75.2263 C66.4727,80.9333 65.7687,81.8223 65.7687,81.8223 C65.7687,81.8223 64.7227,81.3823 57.7747,78.6903 C50.8257,75.9973 46.5357,73.6533 43.3397,68.9653 C39.8537,63.8523 40.3787,56.6633 45.8177,53.4493 C52.3097,49.6113 58.4687,53.3893 59.9887,59.3073 C58.4687,53.3893 62.0457,47.1123 69.5847,47.3473 C75.8987,47.5443 79.8217,53.5903 79.2307,59.7513 Z M113.4187,58.3193 L120.8647,45.7303 L57.5687,8.2963 L57.5777,8.2813 L44.9887,0.8363 L44.9797,0.8513 L44.9647,0.8423 L37.5197,13.4313 L37.5347,13.4393 L0.0997,76.7353 L12.6897,84.1813 L18.4627,74.4183 L30.7737,122.3693 L115.9677,100.4963 L103.6567,52.5453 L113.4187,58.3193 Z" id="Fill-10" fill="#FFFFFF" mask="url(#mask-2)"></path>
            </g>
        </g>
    </g>
</svg>