<?xml version="1.0" encoding="UTF-8"?>
<svg width="144px" height="27px" viewBox="0 0 144 27" version="1.1" xmlns="http://www.w3.org/2000/svg" xmlns:xlink="http://www.w3.org/1999/xlink">
    <!-- Generator: Sketch 52.5 (67469) - http://www.bohemiancoding.com/sketch -->
    <title>resources/brand/kidsclub/kc-logo-text(reverse)</title>
    <desc>Created with Sketch.</desc>
    <defs>
        <polygon id="path-1" points="0.23 0.156 4.621 0.156 4.621 4.3789 0.23 4.3789"></polygon>
        <polygon id="path-3" points="0 26 143.406 26 143.406 0.156 0 0.156"></polygon>
    </defs>
    <g id="resources/brand/kidsclub/kc-logo-text(reverse)" stroke="none" stroke-width="1" fill="none" fill-rule="evenodd">
        <g id="Group-17">
            <polygon id="Fill-1" fill="#FFFFFF" points="16.2162 2.9258 3.3792 16.1348 3.3792 2.9258 0.0002 2.9258 0.0002 26.5738 3.3792 26.5738 3.3792 20.4588 7.7032 16.0678 16.7572 26.5738 20.7092 26.5738 9.9652 13.5678 20.0672 2.9258"></polygon>
            <polygon id="Fill-2" fill="#FFFFFF" points="22.804 26.5742 26.047 26.5742 26.047 8.6682 22.804 8.6682"></polygon>
            <g id="Group-16" transform="translate(0.000000, 0.844200)">
                <g id="Group-5" transform="translate(22.000000, 0.000000)">
                    <mask id="mask-2" fill="white">
                        <use xlink:href="#path-1"></use>
                    </mask>
                    <g id="Clip-4"></g>
                    <path d="M2.426,0.1559 C1.176,0.1559 0.23,1.1019 0.23,2.2839 C0.23,3.4669 1.176,4.3789 2.426,4.3789 C3.709,4.3789 4.621,3.4329 4.621,2.2169 C4.621,1.0679 3.675,0.1559 2.426,0.1559" id="Fill-3" fill="#FFFFFF" mask="url(#mask-2)"></path>
                </g>
                <path d="M39.2219,23.0944 C35.7759,23.0944 33.1749,20.5944 33.1749,16.7774 C33.1749,12.9594 35.7759,10.4934 39.2219,10.4934 C42.6339,10.4934 45.2359,12.9594 45.2359,16.7774 C45.2359,20.5944 42.6339,23.0944 39.2219,23.0944 Z M45.2009,10.5274 C43.7149,8.6014 41.4859,7.6564 38.9509,7.6564 C33.7149,7.6564 29.8979,11.3044 29.8979,16.7774 C29.8979,22.2504 33.7149,25.9324 38.9509,25.9324 C41.5859,25.9324 43.8839,24.9194 45.3359,22.8914 L45.3359,25.7294 L48.4449,25.7294 L48.4449,0.6624 L45.2009,0.6624 L45.2009,10.5274 Z" id="Fill-6" fill="#FFFFFF"></path>
                <path d="M55.4377,12.8922 C55.4377,11.4732 56.8227,10.4262 59.6607,10.4262 C61.4167,10.4262 63.2077,10.7972 64.8297,11.8452 L66.2137,9.2772 C64.6607,8.2642 62.0257,7.6562 59.6947,7.6562 C55.0997,7.6562 52.2277,9.8182 52.2277,13.0272 C52.2277,20.1552 63.5447,16.6762 63.5447,20.6962 C63.5447,22.2162 62.2947,23.1282 59.2887,23.1282 C56.9577,23.1282 54.5257,22.3512 53.0047,21.2702 L51.6537,23.8382 C53.1397,25.0202 56.0797,25.9322 59.0517,25.9322 C63.8157,25.9322 66.7887,23.8712 66.7887,20.6282 C66.7887,13.6692 55.4377,17.1152 55.4377,12.8922" id="Fill-8" fill="#FFFFFF"></path>
                <path d="M81.3821,4.818 C83.9841,4.818 86.2131,5.696 88.0371,7.622 L90.2341,5.494 C88.0711,3.061 84.8961,1.811 81.2471,1.811 C74.0511,1.811 68.7141,6.913 68.7141,13.905 C68.7141,20.899 74.0511,26 81.2131,26 C84.8961,26 88.0711,24.716 90.2341,22.284 L88.0371,20.155 C86.2131,22.081 83.9841,22.993 81.3821,22.993 C76.0441,22.993 72.0921,19.142 72.0921,13.905 C72.0921,8.669 76.0441,4.818 81.3821,4.818" id="Fill-10" fill="#FFFFFF"></path>
                <mask id="mask-4" fill="white">
                    <use xlink:href="#path-3"></use>
                </mask>
                <g id="Clip-13"></g>
                <polygon id="Fill-12" fill="#FFFFFF" mask="url(#mask-4)" points="93.915 25.73 97.158 25.73 97.158 0.663 93.915 0.663"></polygon>
                <path d="M116.1096,17.0812 C116.1096,20.9322 113.9476,23.0272 110.5696,23.0272 C107.4956,23.0272 105.7386,21.2702 105.7386,17.7572 L105.7386,7.8252 L102.4956,7.8252 L102.4956,18.1282 C102.4956,23.3982 105.5696,25.9322 110.1976,25.9322 C112.7316,25.9322 114.9616,24.8852 116.2786,23.0272 L116.2786,25.7292 L119.3526,25.7292 L119.3526,7.8252 L116.1096,7.8252 L116.1096,17.0812 Z" id="Fill-14" fill="#FFFFFF" mask="url(#mask-4)"></path>
                <path d="M134.0823,23.0944 C130.6703,23.0944 128.0683,20.5944 128.0683,16.7774 C128.0683,12.9594 130.6703,10.4934 134.0823,10.4934 C137.5283,10.4934 140.1293,12.9594 140.1293,16.7774 C140.1293,20.5944 137.5283,23.0944 134.0823,23.0944 M134.3533,7.6564 C131.8183,7.6564 129.5893,8.6014 128.1033,10.5274 L128.1033,0.6624 L124.8593,0.6624 L124.8593,25.7294 L127.9683,25.7294 L127.9683,22.8914 C129.4203,24.9194 131.7183,25.9324 134.3533,25.9324 C139.5893,25.9324 143.4063,22.2504 143.4063,16.7774 C143.4063,11.3044 139.5893,7.6564 134.3533,7.6564" id="Fill-15" fill="#FFFFFF" mask="url(#mask-4)"></path>
            </g>
        </g>
    </g>
</svg>