<?xml version="1.0" encoding="UTF-8"?>
<svg width="207px" height="46px" viewBox="0 0 207 46" version="1.1" xmlns="http://www.w3.org/2000/svg" xmlns:xlink="http://www.w3.org/1999/xlink">
    <!-- Generator: Sketch 52.5 (67469) - http://www.bohemiancoding.com/sketch -->
    <title>resources/brand/kidsclub/kc-logo-landscape</title>
    <desc>Created with Sketch.</desc>
    <defs>
        <polygon id="path-1" points="0 45 206.323 45 206.323 0.729 0 0.729"></polygon>
    </defs>
    <g id="resources/brand/kidsclub/kc-logo-landscape" stroke="none" stroke-width="1" fill="none" fill-rule="evenodd">
        <g id="Group-17">
            <polygon id="Fill-1" fill="#000000" points="82.9845 12.2177 79.1325 12.2177 66.2965 25.4267 66.2965 12.2177 62.9175 12.2177 62.9175 35.8657 66.2965 35.8657 66.2965 29.7507 70.6205 25.3597 79.6735 35.8657 83.6265 35.8657 72.8825 22.8597"></polygon>
            <polygon id="Fill-2" fill="#000000" points="85.721 35.8658 88.964 35.8658 88.964 17.9608 85.721 17.9608"></polygon>
            <g id="Group-16" transform="translate(0.000000, 0.270800)">
                <path d="M87.3429,10.0211 C86.0929,10.0211 85.1469,10.9671 85.1469,12.1491 C85.1469,13.3321 86.0929,14.2441 87.3429,14.2441 C88.6259,14.2441 89.5379,13.2981 89.5379,12.0821 C89.5379,10.9331 88.5919,10.0211 87.3429,10.0211" id="Fill-3" fill="#000000"></path>
                <path d="M102.1388,32.9596 C98.6928,32.9596 96.0918,30.4596 96.0918,26.6426 C96.0918,22.8246 98.6928,20.3586 102.1388,20.3586 C105.5508,20.3586 108.1528,22.8246 108.1528,26.6426 C108.1528,30.4596 105.5508,32.9596 102.1388,32.9596 Z M108.1178,20.3926 C106.6318,18.4666 104.4028,17.5216 101.8678,17.5216 C96.6318,17.5216 92.8148,21.1696 92.8148,26.6426 C92.8148,32.1156 96.6318,35.7976 101.8678,35.7976 C104.5028,35.7976 106.8008,34.7846 108.2528,32.7566 L108.2528,35.5946 L111.3618,35.5946 L111.3618,10.5276 L108.1178,10.5276 L108.1178,20.3926 Z" id="Fill-5" fill="#000000"></path>
                <path d="M118.3546,22.7574 C118.3546,21.3384 119.7396,20.2914 122.5776,20.2914 C124.3336,20.2914 126.1246,20.6624 127.7466,21.7104 L129.1306,19.1424 C127.5776,18.1294 124.9426,17.5214 122.6116,17.5214 C118.0166,17.5214 115.1446,19.6834 115.1446,22.8924 C115.1446,30.0204 126.4616,26.5414 126.4616,30.5614 C126.4616,32.0814 125.2116,32.9934 122.2056,32.9934 C119.8746,32.9934 117.4426,32.2164 115.9216,31.1354 L114.5706,33.7034 C116.0566,34.8854 118.9966,35.7974 121.9686,35.7974 C126.7326,35.7974 129.7056,33.7364 129.7056,30.4934 C129.7056,23.5344 118.3546,26.9804 118.3546,22.7574" id="Fill-7" fill="#000000"></path>
                <path d="M144.299,14.6832 C146.901,14.6832 149.13,15.5612 150.954,17.4872 L153.151,15.3592 C150.988,12.9262 147.813,11.6762 144.164,11.6762 C136.968,11.6762 131.631,16.7782 131.631,23.7702 C131.631,30.7642 136.968,35.8652 144.13,35.8652 C147.813,35.8652 150.988,34.5812 153.151,32.1492 L150.954,30.0202 C149.13,31.9462 146.901,32.8582 144.299,32.8582 C138.961,32.8582 135.009,29.0072 135.009,23.7702 C135.009,18.5342 138.961,14.6832 144.299,14.6832" id="Fill-9" fill="#000000"></path>
                <mask id="mask-2" fill="white">
                    <use xlink:href="#path-1"></use>
                </mask>
                <g id="Clip-12"></g>
                <polygon id="Fill-11" fill="#000000" mask="url(#mask-2)" points="156.832 35.595 160.075 35.595 160.075 10.528 156.832 10.528"></polygon>
                <path d="M179.0265,26.9464 C179.0265,30.7974 176.8645,32.8924 173.4865,32.8924 C170.4125,32.8924 168.6555,31.1354 168.6555,27.6224 L168.6555,17.6904 L165.4125,17.6904 L165.4125,27.9934 C165.4125,33.2634 168.4865,35.7974 173.1145,35.7974 C175.6485,35.7974 177.8785,34.7504 179.1955,32.8924 L179.1955,35.5944 L182.2695,35.5944 L182.2695,17.6904 L179.0265,17.6904 L179.0265,26.9464 Z" id="Fill-13" fill="#000000" mask="url(#mask-2)"></path>
                <path d="M196.9991,32.9596 C193.5871,32.9596 190.9851,30.4596 190.9851,26.6426 C190.9851,22.8246 193.5871,20.3586 196.9991,20.3586 C200.4451,20.3586 203.0461,22.8246 203.0461,26.6426 C203.0461,30.4596 200.4451,32.9596 196.9991,32.9596 M197.2701,17.5216 C194.7351,17.5216 192.5061,18.4666 191.0201,20.3926 L191.0201,10.5276 L187.7761,10.5276 L187.7761,35.5946 L190.8851,35.5946 L190.8851,32.7566 C192.3371,34.7846 194.6351,35.7976 197.2701,35.7976 C202.5061,35.7976 206.3231,32.1156 206.3231,26.6426 C206.3231,21.1696 202.5061,17.5216 197.2701,17.5216" id="Fill-14" fill="#000000" mask="url(#mask-2)"></path>
                <path d="M28.8243,22.1901 C28.6273,24.2481 27.6693,25.7491 25.9233,27.8271 C24.1783,29.9061 23.9213,30.2301 23.9213,30.2301 C23.9213,30.2301 23.5403,30.0701 21.0093,29.0891 C18.4773,28.1081 16.9153,27.2541 15.7513,25.5471 C14.4803,23.6841 14.6723,21.0651 16.6533,19.8951 C19.0183,18.4971 21.2623,19.8731 21.8153,22.0281 C21.2623,19.8731 22.5653,17.5861 25.3113,17.6721 C27.6113,17.7441 29.0403,19.9461 28.8243,22.1901 Z M43.9913,17.0831 L20.9333,3.4471 L20.9373,3.4411 L16.3513,0.7291 L16.3483,0.7341 L16.3433,0.7321 L13.6313,5.3171 L13.6363,5.3201 L0.0003,28.3771 L4.5863,31.0891 L6.6893,27.5331 L11.1743,45.0001 L42.2073,37.0321 L37.7223,19.5651 L41.2783,21.6691 L43.9913,17.0831 Z" id="Fill-15" fill="#000000" mask="url(#mask-2)"></path>
            </g>
        </g>
    </g>
</svg>