<?xml version="1.0" encoding="UTF-8"?>
<svg width="144px" height="164px" viewBox="0 0 144 164" version="1.1" xmlns="http://www.w3.org/2000/svg" xmlns:xlink="http://www.w3.org/1999/xlink">
    <!-- Generator: Sketch 52.5 (67469) - http://www.bohemiancoding.com/sketch -->
    <title>resources/brand/kidsclub/kc-logo-portrait</title>
    <desc>Created with Sketch.</desc>
    <defs>
        <polygon id="path-1" points="0.1005 0.8365 139.4059 0.8365 139.4059 162 0.1005 162"></polygon>
    </defs>
    <g id="resources/brand/kidsclub/kc-logo-portrait" stroke="none" stroke-width="1" fill="none" fill-rule="evenodd">
        <g id="Group-12">
            <polygon id="Fill-1" fill="#000000" points="16.2162 138.2456 3.3782 151.4546 3.3782 138.2456 0.0002 138.2456 0.0002 161.8926 3.3782 161.8926 3.3782 155.7786 7.7032 151.3876 16.7572 161.8926 20.7092 161.8926 9.9652 148.8876 20.0672 138.2456"></polygon>
            <g id="Group-11" transform="translate(4.000000, 0.164000)">
                <mask id="mask-2" fill="white">
                    <use xlink:href="#path-1"></use>
                </mask>
                <g id="Clip-3"></g>
                <path d="M18.804,161.73 L22.047,161.73 L22.047,143.825 L18.804,143.825 L18.804,161.73 Z M18.229,138.284 C18.229,137.102 19.176,136.156 20.426,136.156 C21.675,136.156 22.621,137.068 22.621,138.217 C22.621,139.433 21.709,140.379 20.426,140.379 C19.176,140.379 18.229,139.466 18.229,138.284 Z" id="Fill-2" fill="#000000" mask="url(#mask-2)"></path>
                <path d="M41.2354,152.7769 C41.2354,148.9599 38.6334,146.4929 35.2214,146.4929 C31.7754,146.4929 29.1744,148.9599 29.1744,152.7769 C29.1744,156.5949 31.7754,159.0939 35.2214,159.0939 C38.6334,159.0939 41.2354,156.5949 41.2354,152.7769 Z M44.4444,136.6629 L44.4444,161.7299 L41.3364,161.7299 L41.3364,158.8919 C39.8834,160.9189 37.5864,161.9319 34.9514,161.9319 C29.7144,161.9319 25.8974,158.2499 25.8974,152.7769 C25.8974,147.3039 29.7144,143.6559 34.9514,143.6559 C37.4854,143.6559 39.7144,144.6019 41.2014,146.5269 L41.2014,136.6629 L44.4444,136.6629 Z" id="Fill-4" fill="#000000" mask="url(#mask-2)"></path>
                <path d="M47.6533,159.8379 L49.0053,157.2699 C50.5253,158.3509 52.9573,159.1289 55.2883,159.1289 C58.2953,159.1289 59.5453,158.2159 59.5453,156.6959 C59.5453,152.6759 48.2273,156.1549 48.2273,149.0269 C48.2273,145.8179 51.0993,143.6559 55.6943,143.6559 C58.0253,143.6559 60.6603,144.2639 62.2143,145.2769 L60.8293,147.8449 C59.2073,146.7969 57.4173,146.4259 55.6603,146.4259 C52.8223,146.4259 51.4373,147.4729 51.4373,148.8919 C51.4373,153.1149 62.7883,149.6689 62.7883,156.6289 C62.7883,159.8719 59.8153,161.9319 55.0513,161.9319 C52.0793,161.9319 49.1393,161.0199 47.6533,159.8379" id="Fill-5" fill="#000000" mask="url(#mask-2)"></path>
                <path d="M64.7139,149.9053 C64.7139,142.9123 70.0509,137.8113 77.2469,137.8113 C80.8959,137.8113 84.0709,139.0613 86.2339,141.4933 L84.0369,143.6223 C82.2129,141.6963 79.9839,140.8183 77.3819,140.8183 C72.0439,140.8183 68.0919,144.6693 68.0919,149.9053 C68.0919,155.1413 72.0439,158.9933 77.3819,158.9933 C79.9839,158.9933 82.2129,158.0813 84.0369,156.1553 L86.2339,158.2833 C84.0709,160.7163 80.8959,162.0003 77.2129,162.0003 C70.0509,162.0003 64.7139,156.8983 64.7139,149.9053" id="Fill-6" fill="#000000" mask="url(#mask-2)"></path>
                <polygon id="Fill-7" fill="#000000" mask="url(#mask-2)" points="89.915 161.73 93.158 161.73 93.158 136.663 89.915 136.663"></polygon>
                <path d="M115.3525,143.8247 L115.3525,161.7297 L112.2785,161.7297 L112.2785,159.0267 C110.9605,160.8847 108.7315,161.9317 106.1975,161.9317 C101.5695,161.9317 98.4955,159.3987 98.4955,154.1287 L98.4955,143.8247 L101.7385,143.8247 L101.7385,153.7567 C101.7385,157.2697 103.4955,159.0267 106.5695,159.0267 C109.9475,159.0267 112.1095,156.9317 112.1095,153.0807 L112.1095,143.8247 L115.3525,143.8247 Z" id="Fill-8" fill="#000000" mask="url(#mask-2)"></path>
                <path d="M136.1289,152.7769 C136.1289,148.9599 133.5279,146.4929 130.0819,146.4929 C126.6699,146.4929 124.0679,148.9599 124.0679,152.7769 C124.0679,156.5949 126.6699,159.0939 130.0819,159.0939 C133.5279,159.0939 136.1289,156.5949 136.1289,152.7769 M139.4059,152.7769 C139.4059,158.2499 135.5889,161.9319 130.3529,161.9319 C127.7179,161.9319 125.4199,160.9189 123.9679,158.8919 L123.9679,161.7299 L120.8589,161.7299 L120.8589,136.6629 L124.1029,136.6629 L124.1029,146.5269 C125.5889,144.6019 127.8179,143.6559 130.3529,143.6559 C135.5889,143.6559 139.4059,147.3039 139.4059,152.7769" id="Fill-9" fill="#000000" mask="url(#mask-2)"></path>
                <path d="M79.2305,59.7515 C78.6885,65.3985 76.0565,69.5195 71.2645,75.2265 C66.4725,80.9335 65.7685,81.8215 65.7685,81.8215 C65.7685,81.8215 64.7235,81.3825 57.7745,78.6895 C50.8265,75.9975 46.5355,73.6535 43.3395,68.9655 C39.8535,63.8525 40.3785,56.6635 45.8175,53.4495 C52.3105,49.6115 58.4685,53.3895 59.9885,59.3075 C58.4685,53.3895 62.0465,47.1125 69.5845,47.3475 C75.8985,47.5445 79.8215,53.5905 79.2305,59.7515 Z M113.4185,58.3195 L120.8655,45.7305 L57.5685,8.2965 L57.5775,8.2815 L44.9885,0.8365 L44.9805,0.8515 L44.9645,0.8425 L37.5195,13.4315 L37.5345,13.4395 L0.1005,76.7355 L12.6895,84.1805 L18.4635,74.4185 L30.7745,122.3695 L115.9675,100.4965 L103.6565,52.5455 L113.4185,58.3195 Z" id="Fill-10" fill="#000000" mask="url(#mask-2)"></path>
            </g>
        </g>
    </g>
</svg>