<?xml version="1.0" encoding="UTF-8"?>
<svg width="100px" height="100px" viewBox="0 0 100 100" version="1.1" xmlns="http://www.w3.org/2000/svg" xmlns:xlink="http://www.w3.org/1999/xlink">
    <!-- Generator: Sketch 52.5 (67469) - http://www.bohemiancoding.com/sketch -->
    <title>resources/brand/kidsclub/kc-logo-abreviated</title>
    <desc>Created with Sketch.</desc>
    <defs>
        <polygon id="path-1" points="5.45454545e-05 0 65.8718182 0 65.8718182 65.7471443 5.45454545e-05 65.7471443"></polygon>
    </defs>
    <g id="resources/brand/kidsclub/kc-logo-abreviated" stroke="none" stroke-width="1" fill="none" fill-rule="evenodd">
        <g id="Group-3" transform="translate(16.000000, 17.000000)">
            <mask id="mask-2" fill="white">
                <use xlink:href="#path-1"></use>
            </mask>
            <g id="Clip-2"></g>
            <path d="M43.1618727,31.8723738 C42.8662364,34.9273082 41.4311455,37.1567016 38.8173273,40.2440951 C36.2029636,43.3314885 35.8195091,43.811882 35.8195091,43.811882 C35.8195091,43.811882 35.2489636,43.5743902 31.4586,42.1175213 C27.6687818,40.6611934 25.3287818,39.3931279 23.5849636,36.8569967 C21.6840545,34.0909475 21.9698727,30.2018164 24.9366,28.4630951 C28.4782364,26.3868 31.8371455,28.4306361 32.6662364,31.632177 C31.8371455,28.4306361 33.7887818,25.034882 37.9004182,25.1620131 C41.3444182,25.2685869 43.4842364,28.5393738 43.1618727,31.8723738 Z M61.8104182,31.0971443 L65.8718727,24.2872426 L31.3467818,4.03552131 L31.3516909,4.02794754 L24.4849636,-0.000216393443 L24.4800545,0.00843934426 L24.4718727,0.0035704918 L20.4104182,6.81347213 L20.4191455,6.81834098 L5.45454545e-05,41.0604393 L6.86678182,45.0886033 L10.0162364,39.8064393 L16.7313273,65.7471443 L63.2002364,53.9147508 L56.4851455,27.9740459 L61.8104182,31.0971443 Z" id="Fill-1" fill="#000000" mask="url(#mask-2)"></path>
        </g>
    </g>
</svg>