<?xml version="1.0" encoding="UTF-8"?>
<svg width="300px" height="300px" viewBox="0 0 300 300" version="1.1" xmlns="http://www.w3.org/2000/svg" xmlns:xlink="http://www.w3.org/1999/xlink">
    <!-- Generator: Sketch 51.3 (57544) - http://www.bohemiancoding.com/sketch -->
    <title>illustrations/heart 2</title>
    <desc>Created with Sketch.</desc>
    <defs></defs>
    <g id="illustrations/heart-2" stroke="none" stroke-width="1" fill="none" fill-rule="evenodd">
        <g id="illustrations/organic-circle/green" transform="translate(192.000000, 166.000000)" fill="#0CBA52">
            <path d="M28.8816327,56.1258584 C44.7216839,57.9377707 57.5265306,43.643108 57.5265306,28.2448551 C57.5265306,12.8466022 47.0797923,0.478991597 31.2616848,0.478991597 C15.4435774,0.478991597 0.236734694,12.8466022 0.236734694,28.2448551 C0.236734694,43.643108 13.0415814,54.3139461 28.8816327,56.1258584 Z" id="Oval-3"></path>
        </g>
        <g id="illustrations/organic-circle/purple" transform="translate(31.000000, 32.000000)" fill="#64426B">
            <path d="M52.5,101.715484 C81.531442,105.027432 105,78.8985838 105,50.7525114 C105,22.606439 85.8533526,0 56.862129,0 C27.8709053,3.43934045e-15 0,22.606439 0,50.7525114 C0,78.8985838 23.468558,98.4035356 52.5,101.715484 Z" id="Oval-3"></path>
        </g>
        <g id="illustrations/organic-circle/yellow" transform="translate(168.000000, 256.000000)" fill="#F5F400">
            <path d="M8.5,15.95537 C13.2003287,16.4748913 17,12.3762484 17,7.96117825 C17,3.54610807 13.9000666,0 9.20624945,0 C4.51243229,5.39504384e-16 0,3.54610807 0,7.96117825 C0,12.3762484 3.7996713,15.4358487 8.5,15.95537 Z" id="Oval-3"></path>
        </g>
        <g id="Group" transform="translate(55.000000, 61.000000)">
            <path d="M155.669047,2.7201362 C136.796031,-2.77539067 118.54696,0.116899126 104.291136,10.855913 C102.426332,12.2588762 100.66171,13.7799281 99.0007865,15.410256 C97.3381051,13.7799281 95.5734833,12.2588762 93.7104365,10.855913 C79.4510978,0.11513661 61.1985116,-2.77539067 42.3325259,2.7201362 C26.9289953,7.202216 14.4008841,17.6451271 7.05590981,32.1224387 C-1.27155804,48.5349936 -2.2751427,68.4003186 4.29649138,86.6247406 C14.0036684,113.543657 31.8467359,130.24879 59.3881925,150.008364 C83.936471,167.61943 88.2355394,170.855411 88.3779043,170.962924 L98.9849682,179 L109.597305,170.982312 C109.769549,170.853648 114.06686,167.615905 138.609865,150.008364 C166.151322,130.24879 183.994389,113.541895 193.705082,86.6247406 C200.276716,68.3967936 199.269616,48.5314686 190.94039,32.1189137 C183.597174,17.6433645 171.07082,7.202216 155.669047,2.7201362" id="Fill-4" fill="#AFF0FC"></path>
            <path d="M150.33537,20.0086536 C119.734161,11.1316369 98.5003811,33.0471567 98.5003811,58.8480203 C98.5003811,33.0471567 77.2666018,11.1316369 46.6653926,20.0086536 C21.0356261,27.443397 11.3355936,56.2923822 20.2261168,80.8673134 C28.3792827,103.396679 43.4731105,117.486986 69.0782398,135.796823 C94.6851289,154.1049 98.5003811,157 98.5003811,157 C98.5003811,157 102.317393,154.1049 127.922522,135.796823 C153.527652,117.486986 168.623239,103.396679 176.772886,80.8673134 C185.665169,56.2923822 175.965136,27.443397 150.33537,20.0086536" id="Fill-6" fill="#E82D55"></path>
            <path d="M32.3582605,144.375719 C26.5383986,142.71527 22.5000725,146.814576 22.5000725,151.640637 C22.5000725,146.814576 18.4617463,142.71527 12.6418845,144.375719 C7.76751171,145.766391 5.92272025,151.162604 7.61355596,155.759354 C9.16415807,159.973479 12.0347633,162.609077 16.9044505,166.033938 C21.7744724,169.458471 22.5000725,170 22.5000725,170 C22.5000725,170 23.2260073,169.458471 28.0956945,166.033938 C32.9653816,162.609077 35.8363216,159.973479 37.3862543,155.759354 C39.0774247,151.162604 37.2326333,145.766391 32.3582605,144.375719" id="Fill-6" fill="#AFF0FC"></path>
        </g>
    </g>
</svg>