<?xml version="1.0" encoding="UTF-8"?>
<svg width="32px" height="32px" viewBox="0 0 32 32" version="1.1" xmlns="http://www.w3.org/2000/svg" xmlns:xlink="http://www.w3.org/1999/xlink">
    <!-- Generator: Sketch 52.3 (67297) - http://www.bohemiancoding.com/sketch -->
    <title>mvp/icons/match-parents2-32</title>
    <desc>Created with Sketch.</desc>
    <defs>
        <polygon id="path-1" points="0 0.0002 31.9997 0.0002 31.9997 32 0 32"></polygon>
    </defs>
    <g id="mvp/icons/match-parents2-32" stroke="none" stroke-width="1" fill="none" fill-rule="evenodd">
        <g id="Group-10">
            <g id="Group-3">
                <mask id="mask-2" fill="white">
                    <use xlink:href="#path-1"></use>
                </mask>
                <g id="Clip-2"></g>
                <path d="M31.9997,16.0002 C31.9997,24.8362 24.8367,32.0002 15.9997,32.0002 C7.1637,32.0002 -0.0003,24.8362 -0.0003,16.0002 C-0.0003,7.1632 7.1637,0.0002 15.9997,0.0002 C24.8367,0.0002 31.9997,7.1632 31.9997,16.0002" id="Fill-1" fill="#64426B" mask="url(#mask-2)"></path>
            </g>
            <path d="M24.2907,12.5022 C24.4027,12.1812 24.4817,11.8452 24.4817,11.4852 C24.4817,11.2692 24.4607,11.0572 24.4187,10.8532 C24.3347,10.4432 24.1717,10.0642 23.9457,9.7292 C23.3807,8.8932 22.4247,8.3442 21.3407,8.3442 C20.9647,8.3442 20.6097,8.4202 20.2757,8.5412 C20.5777,9.1662 20.7617,9.8572 20.7617,10.5962 C20.7617,11.7602 20.3407,12.8562 19.5957,13.7102 C20.0317,14.2342 20.2827,14.9042 20.2827,15.6222 L20.2827,23.1652 C20.2827,23.3322 20.2597,23.4932 20.2327,23.6522 C20.2457,23.6532 20.2567,23.6562 20.2687,23.6562 L22.4117,23.6562 C22.8727,23.6562 23.2907,23.4702 23.5937,23.1672 C23.7447,23.0162 23.8667,22.8362 23.9507,22.6362 C24.0357,22.4372 24.0827,22.2162 24.0827,21.9852 L24.0827,15.6852 C24.0827,15.5082 24.0557,15.3372 24.0037,15.1782 C23.9657,15.0582 23.9147,14.9442 23.8517,14.8382 C23.6627,14.5202 23.3707,14.2702 23.0207,14.1322 C23.6147,13.7542 24.0567,13.1762 24.2907,12.5022" id="Fill-4" fill="#AFF0FC"></path>
            <path d="M17.1394,11.133 C16.9504,11.133 16.7964,10.98 16.7964,10.79 C16.7964,10.601 16.9504,10.447 17.1394,10.447 C17.3284,10.447 17.4824,10.601 17.4824,10.79 C17.4824,10.98 17.3284,11.133 17.1394,11.133 M15.9994,12.662 C15.6654,12.662 15.3724,12.489 15.2024,12.229 L16.7964,12.229 C16.6264,12.489 16.3334,12.662 15.9994,12.662 M14.8604,11.133 C14.6714,11.133 14.5184,10.98 14.5184,10.79 C14.5184,10.601 14.6714,10.447 14.8604,10.447 C15.0494,10.447 15.2024,10.601 15.2024,10.79 C15.2024,10.98 15.0494,11.133 14.8604,11.133 M18.0124,13.764 C18.2754,13.597 18.5154,13.4 18.7284,13.175 C19.3674,12.503 19.7614,11.598 19.7614,10.596 C19.7614,10.033 19.6294,9.505 19.4084,9.026 C19.2664,8.719 19.0794,8.441 18.8654,8.185 C18.1744,7.366 17.1554,6.835 15.9994,6.835 C15.3624,6.835 14.7704,7.009 14.2434,7.289 C13.9134,7.465 13.6034,7.674 13.3404,7.937 C12.6604,8.617 12.2394,9.558 12.2394,10.596 C12.2394,11.931 12.9394,13.097 13.9884,13.764 C13.8014,13.837 13.6294,13.937 13.4754,14.059 C13.0144,14.424 12.7174,14.987 12.7174,15.622 L12.7174,23.165 C12.7174,24.27 13.6134,25.165 14.7174,25.165 L17.2834,25.165 C17.8344,25.165 18.3344,24.942 18.6974,24.579 C18.7854,24.49 18.8674,24.392 18.9374,24.287 C19.0334,24.148 19.1094,23.994 19.1634,23.831 C19.2194,23.668 19.2534,23.495 19.2674,23.317 C19.2714,23.27 19.2804,23.225 19.2824,23.178 C19.2824,23.173 19.2834,23.169 19.2834,23.165 L19.2834,15.622 C19.2834,15.256 19.1684,14.922 18.9964,14.627 C18.7714,14.241 18.4334,13.93 18.0124,13.764" id="Fill-6" fill="#AFF0FC"></path>
            <path d="M12.405,13.7102 C11.66,12.8562 11.239,11.7602 11.239,10.5962 C11.239,9.8572 11.423,9.1662 11.724,8.5412 C11.39,8.4202 11.035,8.3442 10.66,8.3442 C9.358,8.3442 8.242,9.1352 7.764,10.2632 C7.685,10.4502 7.624,10.6472 7.582,10.8532 C7.54,11.0572 7.517,11.2692 7.517,11.4852 C7.517,12.0432 7.664,12.5652 7.92,13.0182 C8.176,13.4712 8.541,13.8542 8.978,14.1322 C8.824,14.1932 8.679,14.2762 8.551,14.3782 C8.166,14.6832 7.918,15.1532 7.918,15.6852 L7.918,21.9852 C7.918,22.2162 7.965,22.4372 8.049,22.6362 C8.134,22.8362 8.256,23.0162 8.407,23.1672 C8.709,23.4702 9.127,23.6562 9.589,23.6562 L11.731,23.6562 C11.744,23.6562 11.755,23.6532 11.766,23.6522 C11.74,23.4932 11.718,23.3322 11.718,23.1652 L11.718,15.6222 C11.718,14.9042 11.968,14.2342 12.405,13.7102" id="Fill-8" fill="#AFF0FC"></path>
        </g>
    </g>
</svg>