<?xml version="1.0" encoding="UTF-8"?>
<svg width="300px" height="300px" viewBox="0 0 300 300" version="1.1" xmlns="http://www.w3.org/2000/svg" xmlns:xlink="http://www.w3.org/1999/xlink">
    <!-- Generator: Sketch 52.5 (67469) - http://www.bohemiancoding.com/sketch -->
    <title>illustrations/pay-nothing</title>
    <desc>Created with Sketch.</desc>
    <g id="illustrations/pay-nothing" stroke="none" stroke-width="1" fill="none" fill-rule="evenodd">
        <g id="illustrations/organic-circle/blue-light" transform="translate(48.000000, 40.000000)" fill="#AFF0FC">
            <path d="M31.8519976,175.738247 C-6.91658504,128.962393 -13.1032991,66.9751006 28.968212,26.5406779 C71.0397232,-13.8937448 146.802291,-6.03171209 190.460863,35.928015 C234.119434,77.887742 229.161714,138.075396 187.090202,178.509819 C145.018691,218.944241 70.6205803,222.514101 31.8519976,175.738247 Z" id="Oval-3"></path>
        </g>
        <g id="illustrations/organic-circle/purple" transform="translate(48.000000, 56.000000)" fill="#64426B">
            <path d="M16,30.9135293 C24.8476775,31.9201018 32,23.9789813 32,15.4247829 C32,6.87058439 26.1648313,0 17.3294107,0 C8.4939902,1.04528974e-15 0,6.87058439 0,15.4247829 C0,23.9789813 7.15232245,29.9069569 16,30.9135293 Z" id="Oval-3"></path>
        </g>
        <g id="illustrations/organic-circle/yellow" transform="translate(226.000000, 40.000000)" fill="#F5F400">
            <path d="M8.5,15.95537 C13.2003287,16.4748913 17,12.3762484 17,7.96117825 C17,3.54610807 13.9000666,0 9.20624945,0 C4.51243229,5.39504384e-16 0,3.54610807 0,7.96117825 C0,12.3762484 3.7996713,15.4358487 8.5,15.95537 Z" id="Oval-3"></path>
        </g>
        <g id="illustrations/organic-circle/hot-pink" transform="translate(48.000000, 197.000000)" fill="#E82D55">
            <path d="M37.5,73.7935862 C58.2367443,76.1963721 75,57.240149 75,36.8204494 C75,16.4007498 61.3238233,0 40.6158064,0 C19.9077895,2.49520778e-15 0,16.4007498 0,36.8204494 C0,57.240149 16.7632557,71.3908003 37.5,73.7935862 Z" id="Oval-3"></path>
        </g>
        <g id="Group" transform="translate(71.000000, 73.000000)">
            <path d="M91.8926089,57.9886413 C90.5563399,57.5133246 89.2200709,57.0540041 87.8975307,56.599254 C75.8619573,52.458514 68.4873085,49.5403434 68.4873085,42.0518197 C68.4873085,30.7676177 82.7629629,30.4431226 84.3921128,30.4431226 C92.1809135,30.4431226 98.8920041,32.7282992 103.289793,36.8781799 L105.893688,39.3324596 L117.52655,25.9458951 L114.407826,23.7635514 C107.307753,18.802433 99.8690364,15.7425816 92.2518456,14.6502672 L92.2518456,0 L77.417887,0 L77.417887,14.3097759 C62.178929,16.3892866 51.4361501,27.6323554 51.4361501,42.0518197 C51.4361501,62.1568034 68.0983261,68.0068555 81.463304,72.7006083 L81.7012697,72.7851598 C94.6063332,77.3989313 102.514117,80.7010115 102.514117,90.1136539 C102.514117,105.408341 85.055671,105.84938 83.0649963,105.84938 C73.9879774,105.84938 65.9886685,102.245656 59.2890185,95.1341869 L56.8613107,92.5610781 L44.3475177,105.063279 L46.8942084,107.485566 C56.1428373,116.285781 65.9657872,121.045804 76.827549,121.975871 L76.827549,136 L91.6615076,136 L91.6615076,121.329166 C108.895716,117.933394 119.858156,105.371778 119.858156,88.639715 C119.858156,67.9405854 101.66522,61.4666801 91.8926089,57.9886413" id="Fill-8" fill="#1F88E9"></path>
            <polygon id="Rectangle" fill="#3CC640" transform="translate(84.787798, 64.678369) rotate(-27.000000) translate(-84.787798, -64.678369) " points="-3.37269935 60.7193096 172.967692 60.5133494 172.948295 68.6374283 -3.39209605 68.8433885"></polygon>
            <path d="M-2.77802867,62.4122058 L-2.78607645,67.2373543 L172.353624,66.944532 L172.361672,62.1193836 L-2.77802867,62.4122058 Z M-6.37203945,58.8182096 L175.967692,58.5133494 L175.947635,70.5385283 L-6.39209605,70.8433885 L-6.37203945,58.8182096 Z" id="Rectangle" fill="#AFF0FC" fill-rule="nonzero" transform="translate(84.787798, 64.678369) rotate(-27.000000) translate(-84.787798, -64.678369) "></path>
        </g>
    </g>
</svg>