<?xml version="1.0" encoding="UTF-8"?>
<svg width="100px" height="100px" viewBox="0 0 100 100" version="1.1" xmlns="http://www.w3.org/2000/svg" xmlns:xlink="http://www.w3.org/1999/xlink">
    <!-- Generator: Sketch 52.5 (67469) - http://www.bohemiancoding.com/sketch -->
    <title>illustrations/pets</title>
    <desc>Created with Sketch.</desc>
    <g id="illustrations/pets" stroke="none" stroke-width="1" fill="none" fill-rule="evenodd">
        <g id="illustrations/organic-circle/purple" transform="translate(47.000000, 11.000000)" fill="#AFF0FC">
            <path d="M7.63871436,42.3765985 C-1.65872854,31.0973146 -3.14242015,16.1500242 6.94712777,6.39987978 C17.0366757,-3.3502647 35.2059794,-1.4544554 45.6761345,8.66349297 C56.1462896,18.7814413 54.957334,33.2947763 44.8677861,43.0449208 C34.7782382,52.7950652 16.9361573,53.6558825 7.63871436,42.3765985 Z" id="Oval-3"></path>
        </g>
        <g id="illustrations/organic-circle/purple" transform="translate(0.000000, 46.000000)" fill="#F5F400">
            <path d="M18,34.9023718 C27.9536372,36.0388246 36,27.0730434 36,17.4150774 C36,7.75711141 29.4354352,0 19.4955871,0 C9.55573898,1.18016584e-15 0,7.75711141 0,17.4150774 C0,27.0730434 8.04636276,33.7659191 18,34.9023718 Z" id="Oval-3"></path>
        </g>
        <g id="illustrations/organic-circle/purple" transform="translate(6.000000, 6.000000)" fill="#0CBA52">
            <path d="M45,87.7545349 C69.8840931,90.6119019 90,68.0693664 90,43.7864804 C90,19.5035944 73.5885879,0 48.7389677,0 C23.8893474,2.96727411e-15 0,19.5035944 0,43.7864804 C0,68.0693664 20.1159069,84.8971679 45,87.7545349 Z" id="Oval-3" style="mix-blend-mode: multiply;"></path>
        </g>
        <g id="Group" transform="translate(50.506924, 48.725432) rotate(-27.000000) translate(-50.506924, -48.725432) translate(26.506924, 24.225432)" fill="#FFFFFF">
            <path d="M24.7058824,45.768623 C11.4552029,54.6446104 -0.940593938,33.088641 13.5924093,26.325984 C11.8826442,10.2646734 37.9565618,10.2646734 35.8193554,26.325984 C50.3523586,33.088641 37.9565618,54.6446104 24.7058824,45.768623 Z" id="Path"></path>
            <path d="M15.5294118,0.280001068 C18.5701357,0.280001068 21.1764706,3.39111218 21.1764706,7.28000107 C21.1764706,11.16889 18.5701357,14.2800011 15.5294118,14.2800011 C12.4886878,14.2800011 9.88235294,11.16889 9.88235294,7.28000107 C9.88235294,3.39111218 12.4886878,0.280001068 15.5294118,0.280001068 Z" id="Path"></path>
            <path d="M32.4705882,0.280001068 C35.5113122,0.280001068 38.1176471,3.39111218 38.1176471,7.28000107 C38.1176471,11.16889 35.5113122,14.2800011 32.4705882,14.2800011 C29.4298643,14.2800011 26.8235294,11.16889 26.8235294,7.28000107 C26.8235294,3.39111218 29.4298643,0.280001068 32.4705882,0.280001068 Z" id="Path"></path>
            <path d="M43.0588235,12.8800011 C45.7540107,12.8800011 48,15.4646165 48,18.4800011 C48,21.4953857 45.7540107,24.0800011 43.0588235,24.0800011 C40.3636364,24.0800011 38.1176471,21.4953857 38.1176471,18.4800011 C38.1176471,15.4646165 40.3636364,12.8800011 43.0588235,12.8800011 Z" id="Path"></path>
            <path d="M4.94117647,12.8800011 C7.63636364,12.8800011 9.88235294,15.4646165 9.88235294,18.4800011 C9.88235294,21.4953857 7.63636364,24.0800011 4.94117647,24.0800011 C2.2459893,24.0800011 0,21.4953857 0,18.4800011 C0,15.4646165 2.2459893,12.8800011 4.94117647,12.8800011 Z" id="Path"></path>
        </g>
    </g>
</svg>