<?xml version="1.0" encoding="UTF-8"?>
<svg width="24px" height="24px" viewBox="0 0 24 24" version="1.1" xmlns="http://www.w3.org/2000/svg" xmlns:xlink="http://www.w3.org/1999/xlink">
    <!-- Generator: Sketch 51.3 (57544) - http://www.bohemiancoding.com/sketch -->
    <title>mvp/icons/remove</title>
    <desc>Created with Sketch.</desc>
    <defs></defs>
    <g id="mvp/icons/remove" stroke="none" stroke-width="1" fill="none" fill-rule="evenodd">
        <path d="M12,22 C6.4771525,22 2,17.5228475 2,12 C2,6.4771525 6.4771525,2 12,2 C17.5228475,2 22,6.4771525 22,12 C22,17.5228475 17.5228475,22 12,22 Z M12,20 C16.418278,20 20,16.418278 20,12 C20,7.581722 16.418278,4 12,4 C7.581722,4 4,7.581722 4,12 C4,16.418278 7.581722,20 12,20 Z" id="Oval-9" fill="#FFFFFF" fill-rule="nonzero"></path>
        <polygon id="Line-6" fill="#FFFFFF" fill-rule="nonzero" transform="translate(12.000000, 12.000000) rotate(-315.000000) translate(-12.000000, -12.000000) " points="11 8 13 8 13 16 11 16"></polygon>
        <polygon id="Line-6" fill="#FFFFFF" fill-rule="nonzero" transform="translate(12.000000, 12.000000) rotate(-315.000000) translate(-12.000000, -12.000000) " points="16 11 16 13 8 13 8 11"></polygon>
    </g>
</svg>