<?xml version="1.0" encoding="UTF-8"?>
<svg width="24px" height="24px" viewBox="0 0 24 24" version="1.1" xmlns="http://www.w3.org/2000/svg" xmlns:xlink="http://www.w3.org/1999/xlink">
    <!-- Generator: Sketch 52.4 (67378) - http://www.bohemiancoding.com/sketch -->
    <title>mvp/icons/request care blue</title>
    <desc>Created with Sketch.</desc>
    <g id="mvp/icons/request-care-blue" stroke="none" stroke-width="1" fill="none" fill-rule="evenodd">
        <path d="M17.248,11.645 C16.701,13.157 15.689,14.102 13.973,15.33 C12.256,16.558 12,16.752 12,16.752 C12,16.752 11.744,16.558 10.027,15.33 C8.31,14.102 7.299,13.157 6.752,11.645 C6.156,9.997 6.807,8.062 8.524,7.562 C10.576,6.967 12,8.437 12,10.168 C12,8.437 13.424,6.967 15.476,7.562 C17.193,8.062 17.844,9.997 17.248,11.645 M12.005,2 C5.936,2 1,6.307 1,11.601 C1,13.668 1.783,15.716 3.207,17.369 L3.494,17.701 L3.31,18.101 C2.93,18.926 2.375,19.58 1.664,20.043 C1.584,20.095 1.551,20.174 1.57,20.262 C1.589,20.346 1.651,20.402 1.737,20.414 C2.06,20.46 2.4,20.483 2.752,20.483 C3.82,20.483 4.793,20.256 5.643,19.807 L5.966,19.636 L6.288,19.808 C8.007,20.72 9.98,21.202 11.995,21.202 C18.063,21.202 23,16.895 23,11.601 C23,6.307 18.067,2 12.005,2" id="Fill-1" fill="#1F88E9"></path>
    </g>
</svg>