<?xml version="1.0" encoding="UTF-8"?>
<svg width="32px" height="32px" viewBox="0 0 32 32" version="1.1" xmlns="http://www.w3.org/2000/svg" xmlns:xlink="http://www.w3.org/1999/xlink">
    <!-- Generator: Sketch 52.3 (67297) - http://www.bohemiancoding.com/sketch -->
    <title>mvp/icons/save-money2-32</title>
    <desc>Created with Sketch.</desc>
    <defs>
        <polygon id="path-1" points="0 0.0002 31.9997 0.0002 31.9997 32 0 32"></polygon>
    </defs>
    <g id="mvp/icons/save-money2-32" stroke="none" stroke-width="1" fill="none" fill-rule="evenodd">
        <g id="Group-6">
            <g id="Group-3">
                <mask id="mask-2" fill="white">
                    <use xlink:href="#path-1"></use>
                </mask>
                <g id="Clip-2"></g>
                <path d="M31.9997,16.0002 C31.9997,24.8362 24.8367,32.0002 15.9997,32.0002 C7.1637,32.0002 -0.0003,24.8362 -0.0003,16.0002 C-0.0003,7.1632 7.1637,0.0002 15.9997,0.0002 C24.8367,0.0002 31.9997,7.1632 31.9997,16.0002" id="Fill-1" fill="#0CBA52" mask="url(#mask-2)"></path>
            </g>
            <path d="M12.5759,11.5959 L12.0549,10.9589 C12.0829,10.9379 12.7269,10.4169 13.8499,10.0639 C14.8759,9.7419 16.5209,9.4979 18.5379,10.1729 L18.2769,10.9519 C14.8309,9.7989 12.5979,11.5779 12.5759,11.5959 M20.5589,13.4069 C20.5589,13.0089 20.8819,12.6879 21.2779,12.6879 C21.6759,12.6879 21.9969,13.0089 21.9969,13.4069 C21.9969,13.8029 21.6759,14.1249 21.2779,14.1249 C20.8819,14.1249 20.5589,13.8029 20.5589,13.4069 M6.3779,11.3219 C6.6279,10.2569 7.5729,10.8289 7.5299,11.4469 C7.5139,11.6699 7.0899,11.9489 6.6129,12.1909 C6.3799,11.8289 6.3409,11.4819 6.3779,11.3219 M24.9079,13.9699 L24.2639,13.9699 L24.2629,13.9699 C23.8329,12.6599 22.9989,11.5009 21.8859,10.6019 C21.8849,10.5599 21.8779,10.5169 21.8659,10.4729 C21.6329,9.6529 21.9209,8.9029 22.2579,8.3659 C22.4939,7.9889 22.1879,7.5079 21.7469,7.5639 C20.2589,7.7479 19.4639,8.4819 19.0529,9.0929 C18.1619,8.8109 17.2009,8.6569 16.1999,8.6569 C12.6819,8.6569 9.6709,10.5519 8.4259,13.2389 C7.6419,13.0969 7.1399,12.7919 6.8279,12.4629 C7.3439,12.2379 7.7979,11.9229 7.9439,11.6229 C8.2499,10.9989 7.8129,10.5989 7.8129,10.5989 C7.8129,10.5989 6.5549,9.3689 6.0029,11.2059 C5.8699,11.6489 5.9369,12.0589 6.1169,12.4259 C5.6719,12.6229 5.2939,12.7609 5.2939,12.7609 C5.5519,12.8099 5.8969,12.7679 6.2549,12.6679 C6.7299,13.4009 7.6149,13.9319 8.0739,14.1729 C7.9039,14.7559 7.8129,15.3669 7.8129,15.9949 C7.8129,16.5179 7.8769,17.0289 7.9949,17.5199 C7.9949,17.5199 7.9969,17.5279 8.0009,17.5419 C8.1259,18.0529 8.3109,18.5429 8.5509,19.0079 C8.8669,19.6909 9.3279,20.4899 9.9579,21.1379 C10.8719,22.0779 11.0269,23.2449 11.0499,23.7479 L11.0499,23.9639 C11.0499,23.9739 11.0509,23.9839 11.0509,23.9919 L11.0509,23.9969 L11.0519,23.9959 C11.0679,24.2439 11.2739,24.4409 11.5259,24.4409 L14.4319,24.4409 C14.6959,24.4409 14.9089,24.2279 14.9089,23.9639 L14.9089,23.2459 C15.3299,23.3039 15.7609,23.3329 16.1999,23.3329 C16.5419,23.3329 16.8799,23.3149 17.2119,23.2799 L17.2119,23.9639 C17.2119,24.2279 17.4259,24.4409 17.6879,24.4409 L20.5949,24.4409 C20.8579,24.4409 21.0709,24.2279 21.0709,23.9639 L21.0709,23.2459 C21.0769,23.0069 21.1589,22.0589 22.0539,21.2479 C22.0919,21.2159 22.1299,21.1829 22.1669,21.1499 C22.1719,21.1459 22.1769,21.1419 22.1809,21.1369 L22.1799,21.1379 C23.1779,20.2499 23.9189,19.1399 24.2999,17.9009 L24.9079,17.9009 C25.3939,17.9009 25.7879,17.5069 25.7879,17.0209 L25.7879,14.8499 C25.7889,14.3639 25.3939,13.9699 24.9079,13.9699" id="Fill-4" fill="#AFF0FC"></path>
        </g>
    </g>
</svg>