<?xml version="1.0" encoding="UTF-8"?>
<svg width="100px" height="100px" viewBox="0 0 100 100" version="1.1" xmlns="http://www.w3.org/2000/svg" xmlns:xlink="http://www.w3.org/1999/xlink">
    <!-- Generator: Sketch 52.5 (67469) - http://www.bohemiancoding.com/sketch -->
    <title>illustrations/socially</title>
    <desc>Created with Sketch.</desc>
    <defs>
        <polygon id="path-1" points="5.10416667e-05 0.000102173913 48.9709063 0.000102173913 48.9709063 46.9668957 5.10416667e-05 46.9668957"></polygon>
    </defs>
    <g id="illustrations/socially" stroke="none" stroke-width="1" fill="none" fill-rule="evenodd">
        <g id="illustrations/organic-circle/purple" transform="translate(46.000000, 7.000000)" fill="#AFF0FC">
            <path d="M7.63871436,42.3765985 C-1.65872854,31.0973146 -3.14242015,16.1500242 6.94712777,6.39987978 C17.0366757,-3.3502647 35.2059794,-1.4544554 45.6761345,8.66349297 C56.1462896,18.7814413 54.957334,33.2947763 44.8677861,43.0449208 C34.7782382,52.7950652 16.9361573,53.6558825 7.63871436,42.3765985 Z" id="Oval-3"></path>
        </g>
        <g id="illustrations/organic-circle/purple" transform="translate(0.000000, 54.000000)" fill="#F5F400">
            <path d="M18,34.9023718 C27.9536372,36.0388246 36,27.0730434 36,17.4150774 C36,7.75711141 29.4354352,0 19.4955871,0 C9.55573898,1.18016584e-15 0,7.75711141 0,17.4150774 C0,27.0730434 8.04636276,33.7659191 18,34.9023718 Z" id="Oval-3"></path>
        </g>
        <g id="illustrations/organic-circle/purple" transform="translate(6.000000, 6.000000)" fill="#0CBA52">
            <path d="M45,87.7545349 C69.8840931,90.6119019 90,68.0693664 90,43.7864804 C90,19.5035944 73.5885879,0 48.7389677,0 C23.8893474,2.96727411e-15 0,19.5035944 0,43.7864804 C0,68.0693664 20.1159069,84.8971679 45,87.7545349 Z" id="Oval-3" style="mix-blend-mode: multiply;"></path>
        </g>
        <g id="Group-3" transform="translate(27.000000, 26.000000)">
            <mask id="mask-2" fill="white">
                <use xlink:href="#path-1"></use>
            </mask>
            <g id="Clip-2"></g>
            <path d="M29.942624,28.9434174 C25.3718427,28.9434174 21.6534573,25.2217326 21.6534573,20.6468957 C21.6534573,16.0720587 25.3718427,12.349863 29.942624,12.349863 C34.5134052,12.349863 38.232301,16.0720587 38.232301,20.6468957 C38.232301,25.2217326 34.5134052,28.9434174 29.942624,28.9434174 Z M12.6124469,37.0146457 C12.3873531,36.8951022 12.1408219,36.8353304 11.8942906,36.8353304 C11.6482698,36.8353304 11.4027594,36.8945913 11.1786865,37.013113 L10.5049365,37.3691891 C9.15794687,38.0813413 7.63231146,38.4885043 5.95967604,38.5835261 C6.66660312,37.7722652 7.26276979,36.8424826 7.74307188,35.8008196 L8.12639479,34.9670804 C8.37700938,34.4224935 8.28615521,33.7808413 7.89517604,33.3261674 L7.29696771,32.6308739 C4.56623854,29.4583739 3.06255104,25.5354065 3.06255104,21.5858739 C3.06255104,11.3730804 12.6772698,3.06531957 24.4954573,3.06531957 C36.302926,3.06531957 45.9084573,11.3730804 45.9084573,21.5858739 C45.9084573,26.0207326 44.0934156,30.0959391 41.0737906,33.2878522 C39.6390094,31.9703196 37.9714781,30.9056674 36.1406135,30.1587761 C39.2408844,28.1280696 41.294801,24.6240152 41.294801,20.6468957 C41.294801,14.3815913 36.202374,9.28464565 29.942624,9.28464565 C23.682874,9.28464565 18.5909573,14.3815913 18.5909573,20.6468957 C18.5909573,24.6240152 20.6443635,28.1280696 23.7446344,30.1587761 C19.9757177,31.6964935 16.8979052,34.5895478 15.1236969,38.2330696 C14.497926,37.9694609 13.8813427,37.6889935 13.285176,37.3722543 L12.6124469,37.0146457 Z M16.6156448,43.9016783 C17.3782073,37.2179717 23.0637385,32.0086348 29.942624,32.0086348 C36.8215094,32.0086348 42.5070406,37.2179717 43.2696031,43.9016783 L16.6156448,43.9016783 Z M48.9709573,21.5858739 C48.9709573,9.68312391 37.9913844,0.000102173913 24.4954573,0.000102173913 C10.988301,0.000102173913 5.10416667e-05,9.68312391 5.10416667e-05,21.5858739 C5.10416667e-05,26.2480696 1.75129063,30.8602 4.93271771,34.5803522 C4.26203021,36.0087435 3.30346771,37.1362326 2.07693646,37.9357435 C1.38481146,38.3893957 1.05099896,39.2011674 1.22760312,40.0103848 C1.40624896,40.8068304 2.04529063,41.3953522 2.85328021,41.509787 C3.59746771,41.6165587 4.38299896,41.6702 5.18741563,41.6702 C7.65068646,41.6702 9.90621771,41.1429826 11.892249,40.1023413 C12.5910094,40.4717 13.3137594,40.7981457 14.0467177,41.1026239 C13.671051,42.4840152 13.466374,43.9353957 13.466374,45.434287 C13.466374,46.2813087 14.1518635,46.9668957 14.997624,46.9668957 L44.887624,46.9668957 C45.7338948,46.9668957 46.418874,46.2813087 46.418874,45.434287 C46.418874,41.7320152 45.1933635,38.3107217 43.1271969,35.5556022 C46.7674885,31.7874283 48.9709573,26.9106674 48.9709573,21.5858739 Z" id="Fill-1" fill="#FFFFFF" mask="url(#mask-2)"></path>
        </g>
    </g>
</svg>