<?xml version="1.0" encoding="UTF-8"?>
<svg width="1000px" height="501px" viewBox="0 0 1000 501" version="1.1" xmlns="http://www.w3.org/2000/svg" xmlns:xlink="http://www.w3.org/1999/xlink">
    <!-- Generator: Sketch 51.3 (57544) - http://www.bohemiancoding.com/sketch -->
    <title>splash-bg</title>
    <desc>Created with Sketch.</desc>
    <defs></defs>
    <g id="splash-bg" stroke="none" stroke-width="1" fill="none" fill-rule="evenodd">
        <rect id="Rectangle-4" fill="#FD6F77" x="0" y="-2" width="1000" height="503"></rect>
        <g id="illustrations/organic-circle/blue" opacity="0.145368304" transform="translate(-8.000000, 49.000000)" fill="#1F88E9">
            <path d="M4.86463109,25.8967404 C-0.440317269,19.0732011 -1.28688417,10.0306569 4.47002462,4.13218894 C10.2269334,-1.76627898 20.5940008,-0.619386197 26.568077,5.50158914 C32.5421532,11.6225645 31.8637572,20.4025821 26.1068485,26.3010501 C20.3499397,32.199518 10.1695794,32.7202798 4.86463109,25.8967404 Z" id="Oval-3"></path>
        </g>
        <g id="illustrations/organic-circle/blue" opacity="0.145368304" transform="translate(491.000000, 20.000000)" fill="#1F88E9">
            <path d="M4.86463109,25.8967404 C-0.440317269,19.0732011 -1.28688417,10.0306569 4.47002462,4.13218894 C10.2269334,-1.76627898 20.5940008,-0.619386197 26.568077,5.50158914 C32.5421532,11.6225645 31.8637572,20.4025821 26.1068485,26.3010501 C20.3499397,32.199518 10.1695794,32.7202798 4.86463109,25.8967404 Z" id="Oval-3"></path>
        </g>
        <g id="illustrations/organic-circle/blue" opacity="0.145368304" transform="translate(881.000000, -25.000000)" fill="#1F88E9">
            <path d="M4.86463109,25.8967404 C-0.440317269,19.0732011 -1.28688417,10.0306569 4.47002462,4.13218894 C10.2269334,-1.76627898 20.5940008,-0.619386197 26.568077,5.50158914 C32.5421532,11.6225645 31.8637572,20.4025821 26.1068485,26.3010501 C20.3499397,32.199518 10.1695794,32.7202798 4.86463109,25.8967404 Z" id="Oval-3"></path>
        </g>
        <g id="illustrations/organic-circle/blue" opacity="0.145368304" transform="translate(0.000000, 437.000000)" fill="#1F88E9">
            <path d="M4.86463109,25.8967404 C-0.440317269,19.0732011 -1.28688417,10.0306569 4.47002462,4.13218894 C10.2269334,-1.76627898 20.5940008,-0.619386197 26.568077,5.50158914 C32.5421532,11.6225645 31.8637572,20.4025821 26.1068485,26.3010501 C20.3499397,32.199518 10.1695794,32.7202798 4.86463109,25.8967404 Z" id="Oval-3"></path>
        </g>
        <g id="illustrations/organic-circle/blue" opacity="0.145368304" transform="translate(695.000000, 429.000000)" fill="#1F88E9">
            <path d="M4.86463109,25.8967404 C-0.440317269,19.0732011 -1.28688417,10.0306569 4.47002462,4.13218894 C10.2269334,-1.76627898 20.5940008,-0.619386197 26.568077,5.50158914 C32.5421532,11.6225645 31.8637572,20.4025821 26.1068485,26.3010501 C20.3499397,32.199518 10.1695794,32.7202798 4.86463109,25.8967404 Z" id="Oval-3"></path>
        </g>
        <g id="illustrations/organic-circle/blue" opacity="0.145368304" transform="translate(106.000000, 18.000000)" fill="#1F88E9">
            <path d="M4.86463109,25.8967404 C-0.440317269,19.0732011 -1.28688417,10.0306569 4.47002462,4.13218894 C10.2269334,-1.76627898 20.5940008,-0.619386197 26.568077,5.50158914 C32.5421532,11.6225645 31.8637572,20.4025821 26.1068485,26.3010501 C20.3499397,32.199518 10.1695794,32.7202798 4.86463109,25.8967404 Z" id="Oval-3"></path>
        </g>
        <g id="illustrations/organic-circle/blue" opacity="0.145368304" transform="translate(605.000000, -11.000000)" fill="#1F88E9">
            <path d="M4.86463109,25.8967404 C-0.440317269,19.0732011 -1.28688417,10.0306569 4.47002462,4.13218894 C10.2269334,-1.76627898 20.5940008,-0.619386197 26.568077,5.50158914 C32.5421532,11.6225645 31.8637572,20.4025821 26.1068485,26.3010501 C20.3499397,32.199518 10.1695794,32.7202798 4.86463109,25.8967404 Z" id="Oval-3"></path>
        </g>
        <g id="illustrations/organic-circle/blue" opacity="0.145368304" transform="translate(114.000000, 406.000000)" fill="#1F88E9">
            <path d="M4.86463109,25.8967404 C-0.440317269,19.0732011 -1.28688417,10.0306569 4.47002462,4.13218894 C10.2269334,-1.76627898 20.5940008,-0.619386197 26.568077,5.50158914 C32.5421532,11.6225645 31.8637572,20.4025821 26.1068485,26.3010501 C20.3499397,32.199518 10.1695794,32.7202798 4.86463109,25.8967404 Z" id="Oval-3"></path>
        </g>
        <g id="illustrations/organic-circle/blue" opacity="0.145368304" transform="translate(809.000000, 398.000000)" fill="#1F88E9">
            <path d="M4.86463109,25.8967404 C-0.440317269,19.0732011 -1.28688417,10.0306569 4.47002462,4.13218894 C10.2269334,-1.76627898 20.5940008,-0.619386197 26.568077,5.50158914 C32.5421532,11.6225645 31.8637572,20.4025821 26.1068485,26.3010501 C20.3499397,32.199518 10.1695794,32.7202798 4.86463109,25.8967404 Z" id="Oval-3"></path>
        </g>
        <g id="illustrations/organic-circle/blue" opacity="0.145368304" transform="translate(-8.000000, 177.000000)" fill="#1F88E9">
            <path d="M4.86463109,25.8967404 C-0.440317269,19.0732011 -1.28688417,10.0306569 4.47002462,4.13218894 C10.2269334,-1.76627898 20.5940008,-0.619386197 26.568077,5.50158914 C32.5421532,11.6225645 31.8637572,20.4025821 26.1068485,26.3010501 C20.3499397,32.199518 10.1695794,32.7202798 4.86463109,25.8967404 Z" id="Oval-3"></path>
        </g>
        <g id="illustrations/organic-circle/blue" opacity="0.145368304" transform="translate(367.000000, 38.000000)" fill="#1F88E9">
            <path d="M4.86463109,25.8967404 C-0.440317269,19.0732011 -1.28688417,10.0306569 4.47002462,4.13218894 C10.2269334,-1.76627898 20.5940008,-0.619386197 26.568077,5.50158914 C32.5421532,11.6225645 31.8637572,20.4025821 26.1068485,26.3010501 C20.3499397,32.199518 10.1695794,32.7202798 4.86463109,25.8967404 Z" id="Oval-3"></path>
        </g>
        <g id="illustrations/organic-circle/blue" opacity="0.145368304" transform="translate(487.000000, 201.000000)" fill="#1F88E9">
            <path d="M4.86463109,25.8967404 C-0.440317269,19.0732011 -1.28688417,10.0306569 4.47002462,4.13218894 C10.2269334,-1.76627898 20.5940008,-0.619386197 26.568077,5.50158914 C32.5421532,11.6225645 31.8637572,20.4025821 26.1068485,26.3010501 C20.3499397,32.199518 10.1695794,32.7202798 4.86463109,25.8967404 Z" id="Oval-3"></path>
        </g>
        <g id="illustrations/organic-circle/blue" opacity="0.145368304" transform="translate(500.000000, 340.000000)" fill="#1F88E9">
            <path d="M4.86463109,25.8967404 C-0.440317269,19.0732011 -1.28688417,10.0306569 4.47002462,4.13218894 C10.2269334,-1.76627898 20.5940008,-0.619386197 26.568077,5.50158914 C32.5421532,11.6225645 31.8637572,20.4025821 26.1068485,26.3010501 C20.3499397,32.199518 10.1695794,32.7202798 4.86463109,25.8967404 Z" id="Oval-3"></path>
        </g>
        <g id="illustrations/organic-circle/blue" opacity="0.145368304" transform="translate(516.000000, 486.000000)" fill="#1F88E9">
            <path d="M4.86463109,25.8967404 C-0.440317269,19.0732011 -1.28688417,10.0306569 4.47002462,4.13218894 C10.2269334,-1.76627898 20.5940008,-0.619386197 26.568077,5.50158914 C32.5421532,11.6225645 31.8637572,20.4025821 26.1068485,26.3010501 C20.3499397,32.199518 10.1695794,32.7202798 4.86463109,25.8967404 Z" id="Oval-3"></path>
        </g>
        <g id="illustrations/organic-circle/blue" opacity="0.145368304" transform="translate(877.000000, 156.000000)" fill="#1F88E9">
            <path d="M4.86463109,25.8967404 C-0.440317269,19.0732011 -1.28688417,10.0306569 4.47002462,4.13218894 C10.2269334,-1.76627898 20.5940008,-0.619386197 26.568077,5.50158914 C32.5421532,11.6225645 31.8637572,20.4025821 26.1068485,26.3010501 C20.3499397,32.199518 10.1695794,32.7202798 4.86463109,25.8967404 Z" id="Oval-3"></path>
        </g>
        <g id="illustrations/organic-circle/blue" opacity="0.145368304" transform="translate(302.000000, 333.000000)" fill="#1F88E9">
            <path d="M4.86463109,25.8967404 C-0.440317269,19.0732011 -1.28688417,10.0306569 4.47002462,4.13218894 C10.2269334,-1.76627898 20.5940008,-0.619386197 26.568077,5.50158914 C32.5421532,11.6225645 31.8637572,20.4025821 26.1068485,26.3010501 C20.3499397,32.199518 10.1695794,32.7202798 4.86463109,25.8967404 Z" id="Oval-3"></path>
        </g>
        <g id="illustrations/organic-circle/blue" opacity="0.145368304" transform="translate(261.000000, 419.000000)" fill="#1F88E9">
            <path d="M4.86463109,25.8967404 C-0.440317269,19.0732011 -1.28688417,10.0306569 4.47002462,4.13218894 C10.2269334,-1.76627898 20.5940008,-0.619386197 26.568077,5.50158914 C32.5421532,11.6225645 31.8637572,20.4025821 26.1068485,26.3010501 C20.3499397,32.199518 10.1695794,32.7202798 4.86463109,25.8967404 Z" id="Oval-3"></path>
        </g>
        <g id="illustrations/organic-circle/blue" opacity="0.145368304" transform="translate(75.000000, 237.000000)" fill="#1F88E9">
            <path d="M4.86463109,25.8967404 C-0.440317269,19.0732011 -1.28688417,10.0306569 4.47002462,4.13218894 C10.2269334,-1.76627898 20.5940008,-0.619386197 26.568077,5.50158914 C32.5421532,11.6225645 31.8637572,20.4025821 26.1068485,26.3010501 C20.3499397,32.199518 10.1695794,32.7202798 4.86463109,25.8967404 Z" id="Oval-3"></path>
        </g>
        <g id="illustrations/organic-circle/blue" opacity="0.145368304" transform="translate(450.000000, 98.000000)" fill="#1F88E9">
            <path d="M4.86463109,25.8967404 C-0.440317269,19.0732011 -1.28688417,10.0306569 4.47002462,4.13218894 C10.2269334,-1.76627898 20.5940008,-0.619386197 26.568077,5.50158914 C32.5421532,11.6225645 31.8637572,20.4025821 26.1068485,26.3010501 C20.3499397,32.199518 10.1695794,32.7202798 4.86463109,25.8967404 Z" id="Oval-3"></path>
        </g>
        <g id="illustrations/organic-circle/blue" opacity="0.145368304" transform="translate(570.000000, 261.000000)" fill="#1F88E9">
            <path d="M4.86463109,25.8967404 C-0.440317269,19.0732011 -1.28688417,10.0306569 4.47002462,4.13218894 C10.2269334,-1.76627898 20.5940008,-0.619386197 26.568077,5.50158914 C32.5421532,11.6225645 31.8637572,20.4025821 26.1068485,26.3010501 C20.3499397,32.199518 10.1695794,32.7202798 4.86463109,25.8967404 Z" id="Oval-3"></path>
        </g>
        <g id="illustrations/organic-circle/blue" opacity="0.145368304" transform="translate(960.000000, 216.000000)" fill="#1F88E9">
            <path d="M4.86463109,25.8967404 C-0.440317269,19.0732011 -1.28688417,10.0306569 4.47002462,4.13218894 C10.2269334,-1.76627898 20.5940008,-0.619386197 26.568077,5.50158914 C32.5421532,11.6225645 31.8637572,20.4025821 26.1068485,26.3010501 C20.3499397,32.199518 10.1695794,32.7202798 4.86463109,25.8967404 Z" id="Oval-3"></path>
        </g>
        <g id="illustrations/organic-circle/blue" opacity="0.145368304" transform="translate(385.000000, 393.000000)" fill="#1F88E9">
            <path d="M4.86463109,25.8967404 C-0.440317269,19.0732011 -1.28688417,10.0306569 4.47002462,4.13218894 C10.2269334,-1.76627898 20.5940008,-0.619386197 26.568077,5.50158914 C32.5421532,11.6225645 31.8637572,20.4025821 26.1068485,26.3010501 C20.3499397,32.199518 10.1695794,32.7202798 4.86463109,25.8967404 Z" id="Oval-3"></path>
        </g>
        <g id="illustrations/organic-circle/blue" opacity="0.145368304" transform="translate(276.000000, 206.000000)" fill="#1F88E9">
            <path d="M4.86463109,25.8967404 C-0.440317269,19.0732011 -1.28688417,10.0306569 4.47002462,4.13218894 C10.2269334,-1.76627898 20.5940008,-0.619386197 26.568077,5.50158914 C32.5421532,11.6225645 31.8637572,20.4025821 26.1068485,26.3010501 C20.3499397,32.199518 10.1695794,32.7202798 4.86463109,25.8967404 Z" id="Oval-3"></path>
        </g>
        <g id="illustrations/organic-circle/blue" opacity="0.145368304" transform="translate(651.000000, 67.000000)" fill="#1F88E9">
            <path d="M4.86463109,25.8967404 C-0.440317269,19.0732011 -1.28688417,10.0306569 4.47002462,4.13218894 C10.2269334,-1.76627898 20.5940008,-0.619386197 26.568077,5.50158914 C32.5421532,11.6225645 31.8637572,20.4025821 26.1068485,26.3010501 C20.3499397,32.199518 10.1695794,32.7202798 4.86463109,25.8967404 Z" id="Oval-3"></path>
        </g>
        <g id="illustrations/organic-circle/blue" opacity="0.145368304" transform="translate(731.000000, -15.000000)" fill="#1F88E9">
            <path d="M4.86463109,25.8967404 C-0.440317269,19.0732011 -1.28688417,10.0306569 4.47002462,4.13218894 C10.2269334,-1.76627898 20.5940008,-0.619386197 26.568077,5.50158914 C32.5421532,11.6225645 31.8637572,20.4025821 26.1068485,26.3010501 C20.3499397,32.199518 10.1695794,32.7202798 4.86463109,25.8967404 Z" id="Oval-3"></path>
        </g>
        <g id="illustrations/organic-circle/blue" opacity="0.145368304" transform="translate(830.000000, 120.000000)" fill="#1F88E9">
            <path d="M4.86463109,25.8967404 C-0.440317269,19.0732011 -1.28688417,10.0306569 4.47002462,4.13218894 C10.2269334,-1.76627898 20.5940008,-0.619386197 26.568077,5.50158914 C32.5421532,11.6225645 31.8637572,20.4025821 26.1068485,26.3010501 C20.3499397,32.199518 10.1695794,32.7202798 4.86463109,25.8967404 Z" id="Oval-3"></path>
        </g>
        <g id="illustrations/organic-circle/blue" opacity="0.145368304" transform="translate(160.000000, 484.000000)" fill="#1F88E9">
            <path d="M4.86463109,25.8967404 C-0.440317269,19.0732011 -1.28688417,10.0306569 4.47002462,4.13218894 C10.2269334,-1.76627898 20.5940008,-0.619386197 26.568077,5.50158914 C32.5421532,11.6225645 31.8637572,20.4025821 26.1068485,26.3010501 C20.3499397,32.199518 10.1695794,32.7202798 4.86463109,25.8967404 Z" id="Oval-3"></path>
        </g>
        <g id="illustrations/organic-circle/blue" opacity="0.145368304" transform="translate(651.000000, 199.000000)" fill="#1F88E9">
            <path d="M4.86463109,25.8967404 C-0.440317269,19.0732011 -1.28688417,10.0306569 4.47002462,4.13218894 C10.2269334,-1.76627898 20.5940008,-0.619386197 26.568077,5.50158914 C32.5421532,11.6225645 31.8637572,20.4025821 26.1068485,26.3010501 C20.3499397,32.199518 10.1695794,32.7202798 4.86463109,25.8967404 Z" id="Oval-3"></path>
        </g>
        <g id="illustrations/organic-circle/blue" opacity="0.145368304" transform="translate(799.000000, 306.000000)" fill="#1F88E9">
            <path d="M4.86463109,25.8967404 C-0.440317269,19.0732011 -1.28688417,10.0306569 4.47002462,4.13218894 C10.2269334,-1.76627898 20.5940008,-0.619386197 26.568077,5.50158914 C32.5421532,11.6225645 31.8637572,20.4025821 26.1068485,26.3010501 C20.3499397,32.199518 10.1695794,32.7202798 4.86463109,25.8967404 Z" id="Oval-3"></path>
        </g>
        <g id="illustrations/organic-circle/blue" opacity="0.145368304" transform="translate(367.000000, 244.000000)" fill="#1F88E9">
            <path d="M4.86463109,25.8967404 C-0.440317269,19.0732011 -1.28688417,10.0306569 4.47002462,4.13218894 C10.2269334,-1.76627898 20.5940008,-0.619386197 26.568077,5.50158914 C32.5421532,11.6225645 31.8637572,20.4025821 26.1068485,26.3010501 C20.3499397,32.199518 10.1695794,32.7202798 4.86463109,25.8967404 Z" id="Oval-3"></path>
        </g>
        <g id="illustrations/organic-circle/blue" opacity="0.145368304" transform="translate(137.000000, 156.000000)" fill="#1F88E9">
            <path d="M4.86463109,25.8967404 C-0.440317269,19.0732011 -1.28688417,10.0306569 4.47002462,4.13218894 C10.2269334,-1.76627898 20.5940008,-0.619386197 26.568077,5.50158914 C32.5421532,11.6225645 31.8637572,20.4025821 26.1068485,26.3010501 C20.3499397,32.199518 10.1695794,32.7202798 4.86463109,25.8967404 Z" id="Oval-3"></path>
        </g>
        <g id="illustrations/organic-circle/blue" opacity="0.145368304" transform="translate(771.000000, 230.000000)" fill="#1F88E9">
            <path d="M4.86463109,25.8967404 C-0.440317269,19.0732011 -1.28688417,10.0306569 4.47002462,4.13218894 C10.2269334,-1.76627898 20.5940008,-0.619386197 26.568077,5.50158914 C32.5421532,11.6225645 31.8637572,20.4025821 26.1068485,26.3010501 C20.3499397,32.199518 10.1695794,32.7202798 4.86463109,25.8967404 Z" id="Oval-3"></path>
        </g>
        <g id="illustrations/organic-circle/blue" opacity="0.145368304" transform="translate(586.000000, 362.000000)" fill="#1F88E9">
            <path d="M4.86463109,25.8967404 C-0.440317269,19.0732011 -1.28688417,10.0306569 4.47002462,4.13218894 C10.2269334,-1.76627898 20.5940008,-0.619386197 26.568077,5.50158914 C32.5421532,11.6225645 31.8637572,20.4025821 26.1068485,26.3010501 C20.3499397,32.199518 10.1695794,32.7202798 4.86463109,25.8967404 Z" id="Oval-3"></path>
        </g>
        <g id="illustrations/organic-circle/blue" opacity="0.145368304" transform="translate(976.000000, 317.000000)" fill="#1F88E9">
            <path d="M4.86463109,25.8967404 C-0.440317269,19.0732011 -1.28688417,10.0306569 4.47002462,4.13218894 C10.2269334,-1.76627898 20.5940008,-0.619386197 26.568077,5.50158914 C32.5421532,11.6225645 31.8637572,20.4025821 26.1068485,26.3010501 C20.3499397,32.199518 10.1695794,32.7202798 4.86463109,25.8967404 Z" id="Oval-3"></path>
        </g>
        <g id="illustrations/organic-circle/blue" opacity="0.145368304" transform="translate(242.000000, 91.000000)" fill="#1F88E9">
            <path d="M7.21848484,38.4274213 C-0.653374012,28.3021693 -1.90957005,14.8842005 6.63293975,6.1316352 C15.1754496,-2.6209301 30.55884,-0.919089196 39.4235982,8.1636484 C48.2883564,17.246386 47.2817043,30.2747993 38.7391945,39.0273646 C30.1966847,47.7799299 15.0903437,48.5526733 7.21848484,38.4274213 Z" id="Oval-3"></path>
        </g>
        <g id="illustrations/organic-circle/blue" opacity="0.145368304" transform="translate(668.000000, 349.000000)" fill="#1F88E9">
            <path d="M7.21848484,38.4274213 C-0.653374012,28.3021693 -1.90957005,14.8842005 6.63293975,6.1316352 C15.1754496,-2.6209301 30.55884,-0.919089196 39.4235982,8.1636484 C48.2883564,17.246386 47.2817043,30.2747993 38.7391945,39.0273646 C30.1966847,47.7799299 15.0903437,48.5526733 7.21848484,38.4274213 Z" id="Oval-3"></path>
        </g>
        <g id="illustrations/organic-circle/blue" opacity="0.145368304" transform="translate(107.000000, 294.000000)" fill="#1F88E9">
            <path d="M7.21848484,38.4274213 C-0.653374012,28.3021693 -1.90957005,14.8842005 6.63293975,6.1316352 C15.1754496,-2.6209301 30.55884,-0.919089196 39.4235982,8.1636484 C48.2883564,17.246386 47.2817043,30.2747993 38.7391945,39.0273646 C30.1966847,47.7799299 15.0903437,48.5526733 7.21848484,38.4274213 Z" id="Oval-3"></path>
        </g>
        <g id="illustrations/organic-circle/blue" opacity="0.145368304" transform="translate(741.000000, 62.000000)" fill="#1F88E9">
            <path d="M7.21848484,38.4274213 C-0.653374012,28.3021693 -1.90957005,14.8842005 6.63293975,6.1316352 C15.1754496,-2.6209301 30.55884,-0.919089196 39.4235982,8.1636484 C48.2883564,17.246386 47.2817043,30.2747993 38.7391945,39.0273646 C30.1966847,47.7799299 15.0903437,48.5526733 7.21848484,38.4274213 Z" id="Oval-3"></path>
        </g>
        <g id="illustrations/organic-circle/blue" opacity="0.145368304" transform="translate(945.000000, 471.000000)" fill="#1F88E9">
            <path d="M7.21848484,38.4274213 C-0.653374012,28.3021693 -1.90957005,14.8842005 6.63293975,6.1316352 C15.1754496,-2.6209301 30.55884,-0.919089196 39.4235982,8.1636484 C48.2883564,17.246386 47.2817043,30.2747993 38.7391945,39.0273646 C30.1966847,47.7799299 15.0903437,48.5526733 7.21848484,38.4274213 Z" id="Oval-3"></path>
        </g>
        <g id="illustrations/organic-circle/yellow" opacity="0.145368304" transform="translate(307.000000, 80.000000)" fill="#F5F400">
            <path d="M13.5,25.9274762 C20.9652279,26.7716983 27,20.1114037 27,12.9369147 C27,5.76242562 22.0765764,0 14.6216903,0 C7.16680423,8.76694624e-16 0,5.76242562 0,12.9369147 C0,20.1114037 6.03477207,25.0832542 13.5,25.9274762 Z" id="Oval-3"></path>
        </g>
        <g id="illustrations/organic-circle/yellow" opacity="0.145368304" transform="translate(210.000000, 39.000000)" fill="#F5F400">
            <path d="M13.5,25.9274762 C20.9652279,26.7716983 27,20.1114037 27,12.9369147 C27,5.76242562 22.0765764,0 14.6216903,0 C7.16680423,8.76694624e-16 0,5.76242562 0,12.9369147 C0,20.1114037 6.03477207,25.0832542 13.5,25.9274762 Z" id="Oval-3"></path>
        </g>
        <g id="illustrations/organic-circle/yellow" opacity="0.145368304" transform="translate(803.000000, 20.000000)" fill="#F5F400">
            <path d="M13.5,25.9274762 C20.9652279,26.7716983 27,20.1114037 27,12.9369147 C27,5.76242562 22.0765764,0 14.6216903,0 C7.16680423,8.76694624e-16 0,5.76242562 0,12.9369147 C0,20.1114037 6.03477207,25.0832542 13.5,25.9274762 Z" id="Oval-3"></path>
        </g>
        <g id="illustrations/organic-circle/yellow" opacity="0.145368304" transform="translate(224.000000, 378.000000)" fill="#F5F400">
            <path d="M13.5,25.9274762 C20.9652279,26.7716983 27,20.1114037 27,12.9369147 C27,5.76242562 22.0765764,0 14.6216903,0 C7.16680423,8.76694624e-16 0,5.76242562 0,12.9369147 C0,20.1114037 6.03477207,25.0832542 13.5,25.9274762 Z" id="Oval-3"></path>
        </g>
        <g id="illustrations/organic-circle/yellow" opacity="0.145368304" transform="translate(28.000000, 344.000000)" fill="#F5F400">
            <path d="M22.5,42.8800568 C34.9420466,44.2762702 45,33.2611677 45,21.3956666 C45,9.53016544 36.794294,0 24.3694838,0 C11.9446737,1.44991803e-15 0,9.53016544 0,21.3956666 C0,33.2611677 10.0579534,41.4838434 22.5,42.8800568 Z" id="Oval-3"></path>
        </g>
        <g id="illustrations/organic-circle/yellow" opacity="0.145368304" transform="translate(913.000000, 419.000000)" fill="#F5F400">
            <path d="M13.5,25.9274762 C20.9652279,26.7716983 27,20.1114037 27,12.9369147 C27,5.76242562 22.0765764,0 14.6216903,0 C7.16680423,8.76694624e-16 0,5.76242562 0,12.9369147 C0,20.1114037 6.03477207,25.0832542 13.5,25.9274762 Z" id="Oval-3"></path>
        </g>
        <g id="illustrations/organic-circle/yellow" opacity="0.145368304" transform="translate(59.000000, 67.000000)" fill="#F5F400">
            <path d="M18.5,35.8995825 C28.7301272,37.0685053 37,27.846559 37,17.9126511 C37,7.97874316 30.2530862,0 20.0371312,0 C9.82117617,1.21388486e-15 0,7.97874316 0,17.9126511 C0,27.846559 8.26987284,34.7306596 18.5,35.8995825 Z" id="Oval-3"></path>
        </g>
        <g id="illustrations/organic-circle/yellow" opacity="0.145368304" transform="translate(558.000000, 38.000000)" fill="#F5F400">
            <path d="M18.5,35.8995825 C28.7301272,37.0685053 37,27.846559 37,17.9126511 C37,7.97874316 30.2530862,0 20.0371312,0 C9.82117617,1.21388486e-15 0,7.97874316 0,17.9126511 C0,27.846559 8.26987284,34.7306596 18.5,35.8995825 Z" id="Oval-3"></path>
        </g>
        <g id="illustrations/organic-circle/yellow" opacity="0.145368304" transform="translate(948.000000, -7.000000)" fill="#F5F400">
            <path d="M18.5,35.8995825 C28.7301272,37.0685053 37,27.846559 37,17.9126511 C37,7.97874316 30.2530862,0 20.0371312,0 C9.82117617,1.21388486e-15 0,7.97874316 0,17.9126511 C0,27.846559 8.26987284,34.7306596 18.5,35.8995825 Z" id="Oval-3"></path>
        </g>
        <g id="illustrations/organic-circle/yellow" opacity="0.145368304" transform="translate(67.000000, 455.000000)" fill="#F5F400">
            <path d="M18.5,35.8995825 C28.7301272,37.0685053 37,27.846559 37,17.9126511 C37,7.97874316 30.2530862,0 20.0371312,0 C9.82117617,1.21388486e-15 0,7.97874316 0,17.9126511 C0,27.846559 8.26987284,34.7306596 18.5,35.8995825 Z" id="Oval-3"></path>
        </g>
        <g id="illustrations/organic-circle/yellow" opacity="0.145368304" transform="translate(762.000000, 447.000000)" fill="#F5F400">
            <path d="M18.5,35.8995825 C28.7301272,37.0685053 37,27.846559 37,17.9126511 C37,7.97874316 30.2530862,0 20.0371312,0 C9.82117617,1.21388486e-15 0,7.97874316 0,17.9126511 C0,27.846559 8.26987284,34.7306596 18.5,35.8995825 Z" id="Oval-3"></path>
        </g>
        <g id="illustrations/organic-circle/yellow" opacity="0.145368304" transform="translate(32.000000, 155.000000)" fill="#F5F400">
            <path d="M13.5,25.9274762 C20.9652279,26.7716983 27,20.1114037 27,12.9369147 C27,5.76242562 22.0765764,0 14.6216903,0 C7.16680423,8.76694624e-16 0,5.76242562 0,12.9369147 C0,20.1114037 6.03477207,25.0832542 13.5,25.9274762 Z" id="Oval-3"></path>
        </g>
        <g id="illustrations/organic-circle/yellow" opacity="0.145368304" transform="translate(407.000000, 16.000000)" fill="#F5F400">
            <path d="M13.5,25.9274762 C20.9652279,26.7716983 27,20.1114037 27,12.9369147 C27,5.76242562 22.0765764,0 14.6216903,0 C7.16680423,8.76694624e-16 0,5.76242562 0,12.9369147 C0,20.1114037 6.03477207,25.0832542 13.5,25.9274762 Z" id="Oval-3"></path>
        </g>
        <g id="illustrations/organic-circle/yellow" opacity="0.145368304" transform="translate(527.000000, 179.000000)" fill="#F5F400">
            <path d="M13.5,25.9274762 C20.9652279,26.7716983 27,20.1114037 27,12.9369147 C27,5.76242562 22.0765764,0 14.6216903,0 C7.16680423,8.76694624e-16 0,5.76242562 0,12.9369147 C0,20.1114037 6.03477207,25.0832542 13.5,25.9274762 Z" id="Oval-3"></path>
        </g>
        <g id="illustrations/organic-circle/yellow" opacity="0.145368304" transform="translate(917.000000, 134.000000)" fill="#F5F400">
            <path d="M13.5,25.9274762 C20.9652279,26.7716983 27,20.1114037 27,12.9369147 C27,5.76242562 22.0765764,0 14.6216903,0 C7.16680423,8.76694624e-16 0,5.76242562 0,12.9369147 C0,20.1114037 6.03477207,25.0832542 13.5,25.9274762 Z" id="Oval-3"></path>
        </g>
        <g id="illustrations/organic-circle/yellow" opacity="0.145368304" transform="translate(342.000000, 311.000000)" fill="#F5F400">
            <path d="M13.5,25.9274762 C20.9652279,26.7716983 27,20.1114037 27,12.9369147 C27,5.76242562 22.0765764,0 14.6216903,0 C7.16680423,8.76694624e-16 0,5.76242562 0,12.9369147 C0,20.1114037 6.03477207,25.0832542 13.5,25.9274762 Z" id="Oval-3"></path>
        </g>
        <g id="illustrations/organic-circle/yellow" opacity="0.145368304" transform="translate(10.000000, 255.000000)" fill="#F5F400">
            <path d="M13.5,25.9274762 C20.9652279,26.7716983 27,20.1114037 27,12.9369147 C27,5.76242562 22.0765764,0 14.6216903,0 C7.16680423,8.76694624e-16 0,5.76242562 0,12.9369147 C0,20.1114037 6.03477207,25.0832542 13.5,25.9274762 Z" id="Oval-3"></path>
        </g>
        <g id="illustrations/organic-circle/yellow" opacity="0.145368304" transform="translate(211.000000, 167.000000)" fill="#F5F400">
            <path d="M19,36.8967931 C29.5066171,38.098186 38,28.6200745 38,18.4102247 C38,8.20037492 31.0707371,0 20.5786752,0 C10.0866134,1.24760389e-15 0,8.20037492 0,18.4102247 C0,28.6200745 8.49338291,35.6954002 19,36.8967931 Z" id="Oval-3"></path>
        </g>
        <g id="illustrations/organic-circle/yellow" opacity="0.145368304" transform="translate(428.000000, 296.000000)" fill="#F5F400">
            <path d="M19,36.8967931 C29.5066171,38.098186 38,28.6200745 38,18.4102247 C38,8.20037492 31.0707371,0 20.5786752,0 C10.0866134,1.24760389e-15 0,8.20037492 0,18.4102247 C0,28.6200745 8.49338291,35.6954002 19,36.8967931 Z" id="Oval-3"></path>
        </g>
        <g id="illustrations/organic-circle/yellow" opacity="0.145368304" transform="translate(605.000000, 411.000000)" fill="#F5F400">
            <path d="M27,52.8521631 C41.9304559,54.5730773 54,40.9963229 54,26.371403 C54,11.746483 44.1531528,0 29.2433806,0 C14.3336085,1.78710827e-15 0,11.746483 0,26.371403 C0,40.9963229 12.0695441,51.1312489 27,52.8521631 Z" id="Oval-3"></path>
        </g>
        <g id="illustrations/organic-circle/yellow" opacity="0.145368304" transform="translate(385.000000, 475.000000)" fill="#F5F400">
            <path d="M27,52.8521631 C41.9304559,54.5730773 54,40.9963229 54,26.371403 C54,11.746483 44.1531528,0 29.2433806,0 C14.3336085,1.78710827e-15 0,11.746483 0,26.371403 C0,40.9963229 12.0695441,51.1312489 27,52.8521631 Z" id="Oval-3"></path>
        </g>
        <g id="illustrations/organic-circle/yellow" opacity="0.145368304" transform="translate(385.000000, 116.000000)" fill="#F5F400">
            <path d="M13.5,25.9274762 C20.9652279,26.7716983 27,20.1114037 27,12.9369147 C27,5.76242562 22.0765764,0 14.6216903,0 C7.16680423,8.76694624e-16 0,5.76242562 0,12.9369147 C0,20.1114037 6.03477207,25.0832542 13.5,25.9274762 Z" id="Oval-3"></path>
        </g>
        <g id="illustrations/organic-circle/yellow" opacity="0.145368304" transform="translate(505.000000, 279.000000)" fill="#F5F400">
            <path d="M13.5,25.9274762 C20.9652279,26.7716983 27,20.1114037 27,12.9369147 C27,5.76242562 22.0765764,0 14.6216903,0 C7.16680423,8.76694624e-16 0,5.76242562 0,12.9369147 C0,20.1114037 6.03477207,25.0832542 13.5,25.9274762 Z" id="Oval-3"></path>
        </g>
        <g id="illustrations/organic-circle/yellow" opacity="0.145368304" transform="translate(895.000000, 234.000000)" fill="#F5F400">
            <path d="M13.5,25.9274762 C20.9652279,26.7716983 27,20.1114037 27,12.9369147 C27,5.76242562 22.0765764,0 14.6216903,0 C7.16680423,8.76694624e-16 0,5.76242562 0,12.9369147 C0,20.1114037 6.03477207,25.0832542 13.5,25.9274762 Z" id="Oval-3"></path>
        </g>
        <g id="illustrations/organic-circle/yellow" opacity="0.145368304" transform="translate(320.000000, 411.000000)" fill="#F5F400">
            <path d="M13.5,25.9274762 C20.9652279,26.7716983 27,20.1114037 27,12.9369147 C27,5.76242562 22.0765764,0 14.6216903,0 C7.16680423,8.76694624e-16 0,5.76242562 0,12.9369147 C0,20.1114037 6.03477207,25.0832542 13.5,25.9274762 Z" id="Oval-3"></path>
        </g>
        <g id="illustrations/organic-circle/yellow" opacity="0.145368304" transform="translate(266.000000, 488.000000)" fill="#F5F400">
            <path d="M13.5,25.9274762 C20.9652279,26.7716983 27,20.1114037 27,12.9369147 C27,5.76242562 22.0765764,0 14.6216903,0 C7.16680423,8.76694624e-16 0,5.76242562 0,12.9369147 C0,20.1114037 6.03477207,25.0832542 13.5,25.9274762 Z" id="Oval-3"></path>
        </g>
        <g id="illustrations/organic-circle/yellow" opacity="0.145368304" transform="translate(230.000000, 281.000000)" fill="#F5F400">
            <path d="M13.5,25.9274762 C20.9652279,26.7716983 27,20.1114037 27,12.9369147 C27,5.76242562 22.0765764,0 14.6216903,0 C7.16680423,8.76694624e-16 0,5.76242562 0,12.9369147 C0,20.1114037 6.03477207,25.0832542 13.5,25.9274762 Z" id="Oval-3"></path>
        </g>
        <g id="illustrations/organic-circle/yellow" opacity="0.145368304" transform="translate(605.000000, 142.000000)" fill="#F5F400">
            <path d="M13.5,25.9274762 C20.9652279,26.7716983 27,20.1114037 27,12.9369147 C27,5.76242562 22.0765764,0 14.6216903,0 C7.16680423,8.76694624e-16 0,5.76242562 0,12.9369147 C0,20.1114037 6.03477207,25.0832542 13.5,25.9274762 Z" id="Oval-3"></path>
        </g>
        <g id="illustrations/organic-circle/yellow" opacity="0.145368304" transform="translate(725.000000, 305.000000)" fill="#F5F400">
            <path d="M13.5,25.9274762 C20.9652279,26.7716983 27,20.1114037 27,12.9369147 C27,5.76242562 22.0765764,0 14.6216903,0 C7.16680423,8.76694624e-16 0,5.76242562 0,12.9369147 C0,20.1114037 6.03477207,25.0832542 13.5,25.9274762 Z" id="Oval-3"></path>
        </g>
        <g id="illustrations/organic-circle/yellow" opacity="0.145368304" transform="translate(540.000000, 437.000000)" fill="#F5F400">
            <path d="M13.5,25.9274762 C20.9652279,26.7716983 27,20.1114037 27,12.9369147 C27,5.76242562 22.0765764,0 14.6216903,0 C7.16680423,8.76694624e-16 0,5.76242562 0,12.9369147 C0,20.1114037 6.03477207,25.0832542 13.5,25.9274762 Z" id="Oval-3"></path>
        </g>
        <g id="illustrations/organic-circle/yellow" opacity="0.145368304" transform="translate(174.000000, 242.000000)" fill="#F5F400">
            <path d="M13.5,25.9274762 C20.9652279,26.7716983 27,20.1114037 27,12.9369147 C27,5.76242562 22.0765764,0 14.6216903,0 C7.16680423,8.76694624e-16 0,5.76242562 0,12.9369147 C0,20.1114037 6.03477207,25.0832542 13.5,25.9274762 Z" id="Oval-3"></path>
        </g>
        <g id="illustrations/organic-circle/yellow" opacity="0.145368304" transform="translate(549.000000, 103.000000)" fill="#F5F400">
            <path d="M13.5,25.9274762 C20.9652279,26.7716983 27,20.1114037 27,12.9369147 C27,5.76242562 22.0765764,0 14.6216903,0 C7.16680423,8.76694624e-16 0,5.76242562 0,12.9369147 C0,20.1114037 6.03477207,25.0832542 13.5,25.9274762 Z" id="Oval-3"></path>
        </g>
        <g id="illustrations/organic-circle/yellow" opacity="0.145368304" transform="translate(939.000000, 58.000000)" fill="#F5F400">
            <path d="M13.5,25.9274762 C20.9652279,26.7716983 27,20.1114037 27,12.9369147 C27,5.76242562 22.0765764,0 14.6216903,0 C7.16680423,8.76694624e-16 0,5.76242562 0,12.9369147 C0,20.1114037 6.03477207,25.0832542 13.5,25.9274762 Z" id="Oval-3"></path>
        </g>
        <g id="illustrations/organic-circle/yellow" opacity="0.145368304" transform="translate(669.000000, 266.000000)" fill="#F5F400">
            <path d="M13.5,25.9274762 C20.9652279,26.7716983 27,20.1114037 27,12.9369147 C27,5.76242562 22.0765764,0 14.6216903,0 C7.16680423,8.76694624e-16 0,5.76242562 0,12.9369147 C0,20.1114037 6.03477207,25.0832542 13.5,25.9274762 Z" id="Oval-3"></path>
        </g>
        <g id="illustrations/organic-circle/yellow" opacity="0.145368304" transform="translate(484.000000, 398.000000)" fill="#F5F400">
            <path d="M13.5,25.9274762 C20.9652279,26.7716983 27,20.1114037 27,12.9369147 C27,5.76242562 22.0765764,0 14.6216903,0 C7.16680423,8.76694624e-16 0,5.76242562 0,12.9369147 C0,20.1114037 6.03477207,25.0832542 13.5,25.9274762 Z" id="Oval-3"></path>
        </g>
        <g id="illustrations/organic-circle/yellow" opacity="0.145368304" transform="translate(874.000000, 353.000000)" fill="#F5F400">
            <path d="M13.5,25.9274762 C20.9652279,26.7716983 27,20.1114037 27,12.9369147 C27,5.76242562 22.0765764,0 14.6216903,0 C7.16680423,8.76694624e-16 0,5.76242562 0,12.9369147 C0,20.1114037 6.03477207,25.0832542 13.5,25.9274762 Z" id="Oval-3"></path>
        </g>
        <g id="illustrations/organic-circle/yellow" opacity="0.145368304" transform="translate(293.000000, 151.000000)" fill="#F5F400">
            <path d="M13.5,25.9274762 C20.9652279,26.7716983 27,20.1114037 27,12.9369147 C27,5.76242562 22.0765764,0 14.6216903,0 C7.16680423,8.76694624e-16 0,5.76242562 0,12.9369147 C0,20.1114037 6.03477207,25.0832542 13.5,25.9274762 Z" id="Oval-3"></path>
        </g>
        <g id="illustrations/organic-circle/yellow" opacity="0.145368304" transform="translate(668.000000, 12.000000)" fill="#F5F400">
            <path d="M13.5,25.9274762 C20.9652279,26.7716983 27,20.1114037 27,12.9369147 C27,5.76242562 22.0765764,0 14.6216903,0 C7.16680423,8.76694624e-16 0,5.76242562 0,12.9369147 C0,20.1114037 6.03477207,25.0832542 13.5,25.9274762 Z" id="Oval-3"></path>
        </g>
        <g id="illustrations/organic-circle/yellow" opacity="0.145368304" transform="translate(847.000000, 65.000000)" fill="#F5F400">
            <path d="M13.5,25.9274762 C20.9652279,26.7716983 27,20.1114037 27,12.9369147 C27,5.76242562 22.0765764,0 14.6216903,0 C7.16680423,8.76694624e-16 0,5.76242562 0,12.9369147 C0,20.1114037 6.03477207,25.0832542 13.5,25.9274762 Z" id="Oval-3"></path>
        </g>
        <g id="illustrations/organic-circle/yellow" opacity="0.145368304" transform="translate(177.000000, 429.000000)" fill="#F5F400">
            <path d="M13.5,25.9274762 C20.9652279,26.7716983 27,20.1114037 27,12.9369147 C27,5.76242562 22.0765764,0 14.6216903,0 C7.16680423,8.76694624e-16 0,5.76242562 0,12.9369147 C0,20.1114037 6.03477207,25.0832542 13.5,25.9274762 Z" id="Oval-3"></path>
        </g>
        <g id="illustrations/organic-circle/yellow" opacity="0.145368304" transform="translate(725.000000, 141.000000)" fill="#F5F400">
            <path d="M13.5,25.9274762 C20.9652279,26.7716983 27,20.1114037 27,12.9369147 C27,5.76242562 22.0765764,0 14.6216903,0 C7.16680423,8.76694624e-16 0,5.76242562 0,12.9369147 C0,20.1114037 6.03477207,25.0832542 13.5,25.9274762 Z" id="Oval-3"></path>
        </g>
        <g id="illustrations/organic-circle/yellow" opacity="0.145368304" transform="translate(840.000000, 237.000000)" fill="#F5F400">
            <path d="M13.5,25.9274762 C20.9652279,26.7716983 27,20.1114037 27,12.9369147 C27,5.76242562 22.0765764,0 14.6216903,0 C7.16680423,8.76694624e-16 0,5.76242562 0,12.9369147 C0,20.1114037 6.03477207,25.0832542 13.5,25.9274762 Z" id="Oval-3"></path>
        </g>
        <g id="illustrations/organic-circle/yellow" opacity="0.145368304" transform="translate(416.000000, 186.000000)" fill="#F5F400">
            <path d="M13.5,25.9274762 C20.9652279,26.7716983 27,20.1114037 27,12.9369147 C27,5.76242562 22.0765764,0 14.6216903,0 C7.16680423,8.76694624e-16 0,5.76242562 0,12.9369147 C0,20.1114037 6.03477207,25.0832542 13.5,25.9274762 Z" id="Oval-3"></path>
        </g>
        <g id="illustrations/organic-circle/yellow" opacity="0.145368304" transform="translate(154.000000, 101.000000)" fill="#F5F400">
            <path d="M13.5,25.9274762 C20.9652279,26.7716983 27,20.1114037 27,12.9369147 C27,5.76242562 22.0765764,0 14.6216903,0 C7.16680423,8.76694624e-16 0,5.76242562 0,12.9369147 C0,20.1114037 6.03477207,25.0832542 13.5,25.9274762 Z" id="Oval-3"></path>
        </g>
        <g id="illustrations/organic-circle/yellow" opacity="0.145368304" transform="translate(788.000000, 175.000000)" fill="#F5F400">
            <path d="M13.5,25.9274762 C20.9652279,26.7716983 27,20.1114037 27,12.9369147 C27,5.76242562 22.0765764,0 14.6216903,0 C7.16680423,8.76694624e-16 0,5.76242562 0,12.9369147 C0,20.1114037 6.03477207,25.0832542 13.5,25.9274762 Z" id="Oval-3"></path>
        </g>
        <g id="illustrations/organic-circle/yellow" opacity="0.145368304" transform="translate(603.000000, 307.000000)" fill="#F5F400">
            <path d="M13.5,25.9274762 C20.9652279,26.7716983 27,20.1114037 27,12.9369147 C27,5.76242562 22.0765764,0 14.6216903,0 C7.16680423,8.76694624e-16 0,5.76242562 0,12.9369147 C0,20.1114037 6.03477207,25.0832542 13.5,25.9274762 Z" id="Oval-3"></path>
        </g>
        <g id="illustrations/organic-circle/yellow" opacity="0.145368304" transform="translate(266.000000, -8.000000)" fill="#F5F400">
            <path d="M13.5,25.9274762 C20.9652279,26.7716983 27,20.1114037 27,12.9369147 C27,5.76242562 22.0765764,0 14.6216903,0 C7.16680423,8.76694624e-16 0,5.76242562 0,12.9369147 C0,20.1114037 6.03477207,25.0832542 13.5,25.9274762 Z" id="Oval-3"></path>
        </g>
    </g>
</svg>