<?xml version="1.0" encoding="UTF-8"?>
<svg width="14px" height="14px" viewBox="0 0 14 14" version="1.1" xmlns="http://www.w3.org/2000/svg" xmlns:xlink="http://www.w3.org/1999/xlink">
    <!-- Generator: Sketch 51.2 (57519) - http://www.bohemiancoding.com/sketch -->
    <title>tag</title>
    <desc>Created with Sketch.</desc>
    <defs></defs>
    <g id="tag" stroke="none" stroke-width="1" fill="none" fill-rule="evenodd">
        <g id="Group" transform="translate(0.000000, 1.000000)" fill="#9D9D9D" fill-rule="nonzero">
            <path d="M7.16517321,0.867512179 C7.34480044,0.867512179 7.52442767,0.867512179 7.70405489,0.867512179 C8.13284248,0.867512179 8.56163006,0.867512179 8.99041764,0.867512179 C9.51191604,0.867512179 10.0319658,0.867512179 10.5534643,0.867512179 C11.0025323,0.867512179 11.4501518,0.867512179 11.8992199,0.867512179 C12.1179595,0.867512179 12.3381477,0.874725418 12.5568873,0.867512179 C12.5597845,0.867512179 12.5626817,0.867512179 12.5655789,0.867512179 C12.4207183,0.723247404 12.2758576,0.57898263 12.1309969,0.434717855 C12.1309969,0.617934119 12.1309969,0.802593031 12.1309969,0.985809295 C12.1309969,1.42725951 12.1309969,1.86870972 12.1309969,2.31015993 C12.1309969,2.8410543 12.1309969,3.37339132 12.1309969,3.90428569 C12.1309969,4.36593297 12.1309969,4.82758025 12.1309969,5.28922753 C12.1309969,5.51428058 12.1237539,5.73933362 12.1309969,5.96294403 C12.1309969,5.96582932 12.1309969,5.96871462 12.1309969,5.97304256 C12.1730065,5.87061457 12.2164647,5.76962923 12.2584743,5.66720124 C12.0339403,5.88648369 11.8108549,6.10576615 11.5863208,6.32649126 C11.0503364,6.85161504 10.5143519,7.37673882 9.9783674,7.9018626 C9.3293916,8.53807026 8.6789672,9.17572056 8.0299914,9.81192822 C7.47082922,10.3601344 6.91021843,10.9083405 6.35105625,11.4565466 C6.08016679,11.7219938 5.80203431,11.9816704 5.53838789,12.2543309 C5.53549068,12.2586588 5.53114486,12.2615441 5.52679904,12.2644294 C5.73105258,12.2644294 5.93675473,12.2644294 6.14100828,12.2644294 C5.96138105,12.0869837 5.78175382,11.9080954 5.60212659,11.7306497 C5.1718904,11.3050686 4.74310282,10.8794876 4.31286663,10.4539065 C3.79136822,9.93743857 3.26986981,9.42097068 2.74982001,8.90450278 C2.30075194,8.46016728 1.85168386,8.01438912 1.40261579,7.57005362 C1.18532479,7.35365645 0.970930996,7.1314887 0.747845566,6.92086213 C0.744948352,6.91797683 0.742051139,6.91509154 0.739153926,6.91220624 C0.739153926,7.11561958 0.739153926,7.32047556 0.739153926,7.52388889 C0.963687963,7.29883584 1.18677339,7.07234014 1.41130743,6.84728709 C1.94874051,6.30629419 2.48617359,5.76385864 3.02360668,5.22286573 C3.66968526,4.5722316 4.31576385,3.92015481 4.96184243,3.26952068 C5.52245322,2.70400276 6.08451261,2.13848485 6.6451234,1.57296693 C6.91601286,1.3003065 7.19269673,1.03053137 7.45924036,0.753543007 C7.46358618,0.749215064 7.4664834,0.746329768 7.47082922,0.742001825 C7.63017595,0.580425277 7.64466202,0.289010432 7.47082922,0.13031918 C7.29844502,-0.0269294246 7.02755557,-0.0413559021 6.85661998,0.13031918 C6.63208594,0.355372229 6.40900051,0.581867925 6.18446648,0.806920974 C5.64703339,1.34791388 5.10960031,1.89034943 4.57216723,2.43134234 C3.92608865,3.08197647 3.28001006,3.73405325 2.63393148,4.38468739 C2.07332069,4.95020531 1.51126129,5.51572322 0.950650503,6.08124114 C0.679761051,6.35390157 0.403077173,6.62367669 0.136533542,6.90066506 C0.132187722,6.904993 0.129290509,6.9078783 0.124944689,6.91220624 C-0.0401964739,7.07811073 -0.0430936873,7.3579844 0.124944689,7.52388889 C0.304571919,7.70133456 0.484199148,7.88022288 0.663826378,8.05766856 C1.09406256,8.48324964 1.52285015,8.90883073 1.95308633,9.33441181 C2.47458474,9.85087971 2.99608315,10.3673476 3.51613295,10.8838155 C3.96520103,11.328151 4.4142691,11.7739292 4.86333717,12.2182647 C5.08062818,12.4346618 5.29647057,12.6539443 5.5181074,12.8674561 C5.52100461,12.8703414 5.52390183,12.8732267 5.52679904,12.876112 C5.69483741,13.0420165 5.9729699,13.0405739 6.14100828,12.876112 C6.28586894,12.7332899 6.43217822,12.5904678 6.57703889,12.4476457 C6.9478822,12.0840984 7.31872552,11.7205512 7.68956883,11.357004 C8.1820951,10.873717 8.67462138,10.3918726 9.16714765,9.90858562 C9.68140303,9.40510155 10.1956584,8.90017484 10.7099138,8.39669078 C11.1459444,7.9682244 11.5834236,7.54120066 12.0194542,7.11273428 C12.274409,6.86315622 12.5293638,6.61213551 12.7843186,6.36255745 C12.9002071,6.25003093 12.9943665,6.15914412 12.9987123,5.96871462 C13.0016096,5.86628663 12.9987123,5.76241599 12.9987123,5.659988 C12.9987123,5.09302743 12.9987123,4.52606687 12.9987123,3.9591063 C12.9987123,3.24932361 12.9987123,2.54098357 12.9987123,1.83120087 C12.9987123,1.38686537 12.9987123,0.94397251 12.9987123,0.499637003 C12.9987123,0.477997287 12.9987123,0.456357571 12.9987123,0.434717855 C12.9987123,0.20100892 12.8002532,0.00192353033 12.5641303,0.00192353033 C12.3845031,0.00192353033 12.2048759,0.00192353033 12.0252487,0.00192353033 C11.5964611,0.00192353033 11.1676735,0.00192353033 10.7388859,0.00192353033 C10.2173875,0.00192353033 9.6973377,0.00192353033 9.17583929,0.00192353033 C8.72677122,0.00192353033 8.27915175,0.00192353033 7.83008368,0.00192353033 C7.61134407,0.00192353033 7.39115585,-0.00240441291 7.17241624,0.00192353033 C7.16951903,0.00192353033 7.16662181,0.00192353033 7.1637246,0.00192353033 C6.93629335,0.00192353033 6.71900235,0.20100892 6.72914259,0.434717855 C6.74073145,0.66842679 6.92180728,0.867512179 7.16517321,0.867512179 Z" id="Shape"></path>
            <path d="M10.0023307,1.00002512 C9.80725345,1.0024149 9.60379866,1.05618507 9.44462521,1.17089475 C9.26031911,1.30233293 9.13345906,1.468423 9.05447073,1.68111387 C8.91923313,2.0455561 9.04369959,2.49961527 9.34050423,2.74815292 C9.51643278,2.8963196 9.7151004,2.97518251 9.94368784,2.99669057 C10.1375683,3.01461396 10.3482038,2.95845401 10.514558,2.85927793 C10.6761251,2.76249163 10.820937,2.61432496 10.8999254,2.44226043 C10.9968656,2.23195934 11.0219982,2.01807357 10.9813073,1.79104399 C10.896335,1.32981546 10.457112,1.00599958 10.0023307,1.00002512 C9.81443421,0.997635333 9.63491528,1.16611518 9.64329283,1.35849288 C9.65167038,1.55445526 9.80126949,1.71457086 10.0023307,1.71696065 C10.0298569,1.71696065 10.0573832,1.71935043 10.0849094,1.72174022 C10.052596,1.71696065 10.0214794,1.71337597 9.98916597,1.7085964 C10.0478088,1.71696065 10.1040581,1.73249425 10.1591106,1.75519721 C10.1303875,1.74324829 10.1016645,1.73129936 10.0729415,1.71935043 C10.1064517,1.73488404 10.1387651,1.75161253 10.1698817,1.77192571 C10.2428861,1.81972141 10.1172228,1.72293511 10.1603074,1.76236657 C10.1734721,1.77431549 10.1878336,1.78626442 10.2009983,1.79940824 C10.214163,1.81255205 10.226131,1.82569587 10.2380989,1.84003458 C10.2787899,1.8854405 10.18544,1.75878189 10.2249342,1.82330609 C10.2452797,1.85795797 10.2656251,1.89022007 10.2811834,1.92726174 C10.2692155,1.89858432 10.2572476,1.8699069 10.2452797,1.84122948 C10.2680187,1.89619453 10.283577,1.95235448 10.2919546,2.01090422 C10.2871674,1.97864212 10.283577,1.94757491 10.2787899,1.91531281 C10.2847738,1.97027787 10.2847738,2.02524293 10.2787899,2.08140288 C10.283577,2.04914078 10.2871674,2.01807357 10.2919546,1.98581147 C10.283577,2.04436121 10.2680187,2.10052116 10.2452797,2.15548622 C10.2572476,2.1268088 10.2692155,2.09813137 10.2811834,2.06945395 C10.2656251,2.10291094 10.24887,2.13517304 10.2285246,2.16624025 C10.1806528,2.2391287 10.2775931,2.11366498 10.2380989,2.15668111 C10.226131,2.16982493 10.214163,2.18416364 10.2009983,2.19730746 C10.1878336,2.21045127 10.1746689,2.2224002 10.1603074,2.23434913 C10.1148292,2.27497547 10.2416893,2.18177385 10.1770625,2.22120531 C10.1423555,2.24151848 10.1100421,2.26183165 10.0729415,2.27736526 C10.1016645,2.26541633 10.1303875,2.25346741 10.1591106,2.24151848 C10.1040581,2.26422144 10.0478088,2.27975504 9.98916597,2.28811929 C10.0214794,2.28333972 10.052596,2.27975504 10.0849094,2.27497547 C10.0298569,2.28094993 9.97480446,2.28094993 9.91855519,2.27497547 C9.9508686,2.27975504 9.98198522,2.28333972 10.0142986,2.28811929 C9.95565577,2.27975504 9.89940651,2.26422144 9.84435403,2.24151848 C9.87307706,2.25346741 9.90180009,2.26541633 9.93052312,2.27736526 C9.89701292,2.26183165 9.86469951,2.24510316 9.8335829,2.22478998 C9.76057853,2.17699428 9.88624179,2.27378058 9.84315724,2.23434913 C9.82999252,2.2224002 9.81563101,2.21045127 9.80246628,2.19730746 C9.78930156,2.18416364 9.77733363,2.17101982 9.7653657,2.15668111 C9.72467475,2.11127519 9.81802459,2.2379338 9.77853043,2.1734096 C9.75818495,2.13875772 9.73783947,2.10649562 9.72228116,2.06945395 C9.73424909,2.09813137 9.74621702,2.1268088 9.75818495,2.15548622 C9.73544588,2.10052116 9.71988757,2.04436121 9.71151002,1.98581147 C9.7162972,2.01807357 9.71988757,2.04914078 9.72467475,2.08140288 C9.71869078,2.02643782 9.71869078,1.97147276 9.72467475,1.91531281 C9.71988757,1.94757491 9.7162972,1.97864212 9.71151002,2.01090422 C9.71988757,1.95235448 9.73544588,1.89619453 9.75818495,1.84122948 C9.74621702,1.8699069 9.73424909,1.89858432 9.72228116,1.92726174 C9.73783947,1.89380475 9.75459457,1.86154265 9.77494005,1.83047544 C9.82281176,1.757587 9.72587154,1.88305071 9.7653657,1.84003458 C9.77733363,1.82689076 9.78930156,1.81255205 9.80246628,1.79940824 C9.81563101,1.78626442 9.82879573,1.77431549 9.84315724,1.76236657 C9.88863537,1.72174022 9.76177533,1.81494184 9.82640214,1.77551038 C9.86110913,1.75519721 9.89342254,1.73488404 9.93052312,1.71935043 C9.90180009,1.73129936 9.87307706,1.74324829 9.84435403,1.75519721 C9.89940651,1.73249425 9.95565577,1.71696065 10.0142986,1.7085964 C9.98198522,1.71337597 9.9508686,1.71696065 9.91855519,1.72174022 C9.94608143,1.71815554 9.97360767,1.71696065 10.0011339,1.71696065 C10.1890304,1.71457086 10.3685493,1.55326037 10.3601718,1.35849288 C10.352991,1.16731008 10.2033919,0.997635333 10.0023307,1.00002512 Z" id="Shape"></path>
        </g>
    </g>
</svg>